<?xml version="1.0" standalone="no"?>
<!DOCTYPE svg PUBLIC "-//W3C//DTD SVG 1.1//EN" "http://www.w3.org/Graphics/SVG/1.1/DTD/svg11.dtd" >
<svg xmlns="http://www.w3.org/2000/svg">
<metadata></metadata>
<defs>
<font id="argosultralight" horiz-adv-x="931" >
<font-face units-per-em="2048" ascent="1536" descent="-512" />
<missing-glyph horiz-adv-x="409" />
<glyph unicode="&#xfb01;" d="M51 967v57h154v193q0 73 15 125.5t37.5 81.5t57 45.5t64 21t67.5 4.5q84 0 168 -31l-10 -55q-82 29 -162 29q-95 0 -135.5 -50.5t-40.5 -175.5v-188h277l-21 -57h-256v-967h-61v967h-154zM727 0v1024h61v-1024h-61zM727 1188v246h61v-246h-61z" />
<glyph unicode="&#xfb02;" d="M51 967v57h154v193q0 73 15 125.5t37.5 81.5t57 45.5t64 21t67.5 4.5q84 0 168 -31l-10 -55q-82 29 -162 29q-95 0 -135.5 -50.5t-40.5 -175.5v-188h277l-21 -57h-256v-967h-61v967h-154zM727 0v1434l61 20v-1454h-61z" />
<glyph horiz-adv-x="0" />
<glyph horiz-adv-x="682" />
<glyph unicode=" "  horiz-adv-x="409" />
<glyph unicode="&#x09;" horiz-adv-x="409" />
<glyph unicode="&#xa0;" horiz-adv-x="409" />
<glyph unicode="!" horiz-adv-x="409" d="M174 1434h62l-3 -1112h-57zM176 0v162h57v-162h-57z" />
<glyph unicode="&#x22;" horiz-adv-x="743" d="M141 1272v162h58v-162l-9 -273h-40zM547 1272v162h57v-162l-8 -273h-41z" />
<glyph unicode="#" horiz-adv-x="1239" d="M92 451v61h266v410h-266v61h266v451h62v-451h399v451h62v-451h266v-61h-266v-410h266v-61h-266v-451h-62v451h-399v-451h-62v451h-266zM420 512h399v410h-399v-410z" />
<glyph unicode="$" horiz-adv-x="1071" d="M113 420v20h61v-20q0 -101 30 -176t83.5 -118.5t119.5 -64t146 -20.5q164 0 261 81t97 226v10q0 64 -22 115t-59 84t-87 61.5t-106 47.5t-115 41t-115 42.5t-106 52t-87 69.5t-59 95.5t-22 129.5v10q0 160 110 250t279 98v184h62v-184q81 -5 148 -33t119.5 -79.5t82 -135 t29.5 -192.5l-62 -21v21q0 199 -94 289t-258 90q-161 0 -257.5 -72.5t-96.5 -214.5v-8q0 -71 26.5 -125.5t71.5 -90t103.5 -63t123 -49.5t129 -45t123 -54t103.5 -70.5t71.5 -101.5t26.5 -141v-10q0 -163 -109 -261t-280 -107v-185h-62v185q-83 5 -154.5 32.5t-129.5 78.5 t-91.5 135.5t-33.5 193.5z" />
<glyph unicode="%" horiz-adv-x="1576" d="M164 932v266q0 67 22.5 118.5t60.5 80.5t81.5 43t91.5 14t91.5 -14t81.5 -43t60.5 -80.5t22.5 -118.5v-266q0 -67 -22.5 -118.5t-60.5 -80.5t-81.5 -43t-91.5 -14t-91.5 14t-81.5 43t-60.5 80.5t-22.5 118.5zM225 932q0 -101 54.5 -148t140.5 -47t140 47t54 148v266 q0 101 -54 148t-140 47t-140.5 -47t-54.5 -148v-266zM424 0l655 1434h70l-655 -1434h-70zM901 236v266q0 67 22.5 118.5t60.5 80.5t81.5 43t91.5 14t91.5 -14t81.5 -43t60.5 -80.5t22.5 -118.5v-266q0 -67 -22.5 -118.5t-60.5 -80.5t-81.5 -43t-91.5 -14t-91.5 14t-81.5 43 t-60.5 80.5t-22.5 118.5zM963 236q0 -101 54 -148t140 -47t140.5 47t54.5 148v266q0 101 -54.5 147.5t-140.5 46.5t-140 -46.5t-54 -147.5v-266z" />
<glyph unicode="&#x26;" horiz-adv-x="1290" d="M123 338v10q0 127 81 226.5t220 170.5l-18 19q-191 191 -191 352v10q0 107 51.5 183t134 110.5t187.5 34.5q161 0 267 -82t106 -235q0 -77 -32 -140.5t-94 -112t-136.5 -84.5t-174.5 -69l428 -432q64 131 97 336h65q-44 -232 -119 -377l213 -215l-43 -43l-202 203 q-144 -223 -416 -223q-82 0 -156.5 22t-135 65t-96.5 113t-36 158zM184 338q0 -143 104 -220t259 -77q52 0 96 7.5t95.5 27.5t98.5 62.5t85 105.5l-457 461q-281 -137 -281 -357v-10zM276 1118q0 -139 168 -307l39 -39q102 33 172.5 65.5t128.5 76t86.5 99t28.5 124.5 q0 122 -85.5 189t-225.5 67q-141 0 -226.5 -69.5t-85.5 -197.5v-8z" />
<glyph unicode="'" horiz-adv-x="337" d="M141 1272v162h58v-162l-9 -273h-40z" />
<glyph unicode="(" horiz-adv-x="542" d="M102 717q0 257 88 532.5t240 491.5h62q-328 -521 -328 -1024t328 -1024h-62q-152 216 -240 491.5t-88 532.5z" />
<glyph unicode=")" horiz-adv-x="542" d="M51 -307q328 521 328 1024t-328 1024h62q152 -216 239.5 -491.5t87.5 -532.5t-87.5 -532.5t-239.5 -491.5h-62z" />
<glyph unicode="*" horiz-adv-x="667" d="M109 1096l192 106l-192 107l20 34l186 -110l-2 217h39l-4 -217l189 110l22 -34l-194 -107l194 -106l-22 -33l-189 113l4 -220h-39l2 220l-186 -113z" />
<glyph unicode="+" horiz-adv-x="907" d="M100 700v56h328v323h53v-323h326v-56h-326v-325h-53v325h-328z" />
<glyph unicode="," horiz-adv-x="344" d="M78 -270l65 270v162h58v-162l-74 -270h-49z" />
<glyph unicode="-" horiz-adv-x="909" d="M106 485v54h697v-54h-697z" />
<glyph unicode="." horiz-adv-x="344" d="M143 0v162h58v-162h-58z" />
<glyph unicode="/" horiz-adv-x="913" d="M49 0l758 1434h61l-757 -1434h-62z" />
<glyph unicode="0" horiz-adv-x="1146" d="M143 420v594q0 114 35 201t96 138t136.5 76t162.5 25q69 0 131 -15t117.5 -49t95.5 -84.5t63.5 -125t23.5 -166.5v-594q0 -92 -23.5 -166.5t-63.5 -125t-95.5 -84.5t-117.5 -49t-131 -15q-87 0 -162.5 25t-136.5 76t-96 138t-35 201zM205 420q0 -102 28 -176.5t79.5 -118 t116 -64t144.5 -20.5t144.5 20.5t116 64t80 118.5t28.5 176v594q0 101 -28.5 176t-80 118.5t-116 64t-144.5 20.5t-144.5 -20.5t-116 -64t-79.5 -118t-28 -176.5v-594z" />
<glyph unicode="1" horiz-adv-x="675" d="M41 1229l328 205h61v-1434h-61v1366l-297 -188z" />
<glyph unicode="2" horiz-adv-x="1075" d="M102 0v72q0 73 27.5 140t74.5 121.5t107.5 105.5t128 96.5t134.5 91t127.5 94t107.5 98.5t74.5 111t27.5 127v18q0 157 -98.5 237.5t-259.5 80.5q-80 0 -144.5 -20.5t-116 -64t-80 -118.5t-28.5 -176v-21h-61v21q0 114 35 201t96 138t136.5 76t162.5 25q86 0 161 -24 t133 -70t92 -119.5t34 -165.5v-20q0 -72 -27.5 -138.5t-74.5 -120.5t-107.5 -105t-128 -97t-134.5 -91.5t-127.5 -93.5t-107.5 -98t-74.5 -111t-27.5 -126v-13h809v-61h-871z" />
<glyph unicode="3" horiz-adv-x="1095" d="M113 420v20h61v-20q0 -102 28.5 -176.5t81 -118t119 -64t150.5 -20.5q160 0 264.5 82t104.5 225v41q0 105 -50.5 175.5t-131 101t-187.5 30.5h-113v62h113q145 0 246.5 82.5t101.5 224.5v41q0 140 -100 213.5t-248 73.5q-76 0 -138.5 -20.5t-113 -64t-78.5 -118.5 t-28 -176v-21l-62 21q0 114 35 201t95 138t133 76t157 25q79 0 151 -22t130.5 -64t93.5 -110t35 -152v-41q0 -118 -64 -204t-168 -130q114 -38 183 -124t69 -218v-41q0 -112 -61 -197.5t-158 -128t-211 -42.5q-91 0 -168.5 25t-139.5 76t-97 138t-35 201z" />
<glyph unicode="4" horiz-adv-x="1116" d="M51 410v61l717 963h61v-963h215l-20 -61h-195v-410h-61v410h-717zM123 471h645v860z" />
<glyph unicode="5" horiz-adv-x="1085" d="M113 420v20h61v-20q0 -101 28.5 -176t80 -118.5t116 -64t144.5 -20.5q84 0 150.5 20.5t119 64t81 118t28.5 176.5v41q0 101 -28.5 176t-80 118.5t-116 64t-144.5 20.5q-200 0 -338 -123l-61 20v697h768l-21 -62h-686v-584q67 50 155.5 81.5t182.5 31.5q87 0 162.5 -25 t136.5 -76t96 -138t35 -201v-41q0 -114 -35 -201t-97 -138t-139.5 -76t-168.5 -25q-87 0 -162.5 25t-136.5 76t-96 138t-35 201z" />
<glyph unicode="6" horiz-adv-x="1116" d="M143 379v635q0 114 35 201t96 138t136.5 76t162.5 25q69 0 131 -15t117.5 -49t95.5 -84.5t63.5 -125t23.5 -166.5l-62 -21v21q0 101 -28.5 176t-80 118.5t-116 64t-144.5 20.5t-144.5 -20.5t-116 -64t-79.5 -118t-28 -176.5v-365q55 84 153 127t215 43q69 0 131 -14 t117.5 -45t95.5 -76.5t63.5 -113t23.5 -150.5v-41q0 -96 -35.5 -173.5t-96 -126t-137 -74t-162.5 -25.5q-116 0 -211.5 43.5t-157 136t-61.5 219.5zM205 379q0 -110 50 -187.5t131.5 -114t186.5 -36.5q162 0 265.5 87.5t103.5 250.5v41q0 90 -28.5 157t-80 105.5t-116 57 t-144.5 18.5t-144.5 -18.5t-116 -57t-79.5 -105.5t-28 -157v-41z" />
<glyph unicode="7" horiz-adv-x="948" d="M61 1372l21 62h823v-62q-573 -674 -573 -1372h-66q0 356 155.5 716t420.5 656h-781z" />
<glyph unicode="8" horiz-adv-x="1095" d="M123 358v41q0 109 65 200t185 132q-103 41 -166.5 124t-63.5 200v41q0 69 27 133t77.5 114.5t130 80.5t175.5 30q78 0 150.5 -23.5t131 -67.5t93.5 -113.5t35 -153.5v-41q0 -118 -64 -201.5t-168 -124.5q114 -39 183 -124t69 -206v-41q0 -89 -35.5 -161.5t-95.5 -119.5 t-137 -72t-162 -25t-162 25t-137 72t-95.5 119.5t-35.5 161.5zM184 358q0 -150 104.5 -233.5t264.5 -83.5t264.5 83.5t104.5 233.5v41q0 142 -104 219.5t-265 77.5t-265 -77.5t-104 -219.5v-41zM205 1055q0 -95 49.5 -163.5t126.5 -101t172 -32.5t172 32.5t126.5 101 t49.5 163.5v41q0 95 -49.5 163.5t-126.5 101t-172 32.5t-172 -32.5t-126.5 -101t-49.5 -163.5v-41z" />
<glyph unicode="9" horiz-adv-x="1116" d="M113 420v20h61v-20q0 -101 28.5 -176t80 -118.5t116 -64t144.5 -20.5t144.5 20.5t116 64t79.5 118t28 176.5v364q-55 -84 -153 -127t-215 -43q-87 0 -162.5 23t-136.5 69.5t-96 125.5t-35 182v41q0 127 61.5 219.5t157 136t211.5 43.5t211.5 -43.5t157 -136t61.5 -219.5 v-635q0 -114 -35 -201t-96 -138t-136.5 -76t-162.5 -25t-162.5 25t-136.5 76t-96 138t-35 201zM174 1014q0 -90 28.5 -157t80 -105.5t116 -57t144.5 -18.5t144.5 18.5t116 57t79.5 105.5t28 157v41q0 110 -50 187.5t-131.5 114t-186.5 36.5q-162 0 -265.5 -87.5 t-103.5 -250.5v-41z" />
<glyph unicode=":" horiz-adv-x="352" d="M147 147v162h58v-162h-58zM147 653v162h58v-162h-58z" />
<glyph unicode=";" horiz-adv-x="425" d="M131 -270l66 270v162h57v-162l-74 -270h-49zM197 653v162h57v-162h-57z" />
<glyph unicode="&#x3c;" horiz-adv-x="778" d="M92 694v51l533 218v-62l-449 -178v-4l449 -176v-62z" />
<glyph unicode="=" horiz-adv-x="993" d="M143 563v53h697v-53h-697zM143 829v54h697v-54h-697z" />
<glyph unicode="&#x3e;" horiz-adv-x="778" d="M154 481v62l448 176v4l-448 178v62l532 -218v-51z" />
<glyph unicode="?" horiz-adv-x="1003" d="M72 993v21q0 114 35 201t96 138t136.5 76t162.5 25q88 0 162.5 -23.5t136 -72.5t96.5 -134.5t35 -199.5v-20q0 -111 -33.5 -195.5t-92 -134t-130.5 -74.5t-158 -27v-251h-57v313h41q80 0 144.5 19t116 60.5t79.5 115t28 174.5v20q0 101 -28 174.5t-79.5 115t-116 60.5 t-144.5 19t-144.5 -20.5t-116 -64t-80 -118.5t-28.5 -176v-21h-61zM461 0v162h57v-162h-57z" />
<glyph unicode="@" horiz-adv-x="1339" d="M143 260v496q0 103 32.5 187.5t85.5 139t123 91.5t141.5 53t144.5 16t144.5 -16t141 -53t122.5 -91.5t85.5 -139t32.5 -187.5v-332q0 -82 -24.5 -139t-68 -86t-87 -42t-98.5 -16h-58l-2 111q-64 -125 -211 -125q-110 0 -173.5 72.5t-63.5 179.5v242q0 107 63 179t172 72 q150 0 211 -124l21 112h41v-655q44 3 79 13t68.5 33t51.5 67t18 106v332q0 108 -41 192.5t-109 134t-148.5 74.5t-166.5 25t-166.5 -25t-148.5 -74.5t-109 -134t-41 -192.5v-496q0 -110 31.5 -193t87.5 -133t127.5 -75t156.5 -25v-61q-72 0 -138 16t-126.5 53t-104.5 92 t-70 138.5t-26 187.5zM471 381q0 -89 51 -145t142 -56q88 0 140 66.5t52 175.5v156q0 108 -52 174.5t-140 66.5q-91 0 -142 -56t-51 -145v-237z" />
<glyph unicode="A" horiz-adv-x="1105" d="M41 0l479 1444h64l481 -1444h-68l-141 430h-606l-141 -430h-68zM270 492h568l-283 862z" />
<glyph unicode="B" horiz-adv-x="1155" d="M172 0v1434h440q189 0 289 -83.5t100 -254.5v-62q0 -213 -174 -297q112 -30 174 -111.5t62 -215.5v-62q0 -175 -117.5 -261.5t-312.5 -86.5h-461zM233 61h400q368 0 368 287v62q0 150 -83.5 218t-243.5 68h-441v-635zM233 758h379q328 0 328 276v62q0 146 -78.5 211 t-249.5 65h-379v-614z" />
<glyph unicode="C" horiz-adv-x="1116" d="M143 420v594q0 114 35 201t96 138t136.5 76t162.5 25q69 0 131 -15t117.5 -49t95.5 -84.5t63.5 -125t23.5 -166.5l-62 -21v21q0 101 -28.5 176t-80 118.5t-116 64t-144.5 20.5t-144.5 -20.5t-116 -64t-79.5 -118t-28 -176.5v-594q0 -102 28 -176.5t79.5 -118t116 -64 t144.5 -20.5t144.5 20.5t116 64t80 118.5t28.5 176v20h62v-20q0 -92 -23.5 -166.5t-63.5 -125t-95.5 -84.5t-117.5 -49t-131 -15q-87 0 -162.5 25t-136.5 76t-96 138t-35 201z" />
<glyph unicode="D" horiz-adv-x="1187" d="M174 0v1434h420q70 0 133.5 -15.5t122 -50.5t101 -87t68 -131t25.5 -177v-512q0 -98 -25.5 -177t-68 -131t-101 -87t-122 -50.5t-133.5 -15.5h-420zM236 61h358q81 0 148 21t122.5 66t87 125t31.5 188v512q0 108 -31.5 187.5t-87 124.5t-122.5 66t-148 21h-358v-1311z " />
<glyph unicode="E" horiz-adv-x="1054" d="M174 0v1434h809v-62h-747v-614h671v-62h-671v-635h747v-61h-809z" />
<glyph unicode="F" horiz-adv-x="1034" d="M174 0v1434h809v-62h-747v-645h589l-20 -61h-569v-666h-62z" />
<glyph unicode="G" horiz-adv-x="1136" d="M143 420v594q0 114 35 201t96 138t136.5 76t162.5 25q69 0 131 -15t117.5 -49t95.5 -84.5t63.5 -125t23.5 -166.5v-21h-62v21q0 101 -28.5 176t-80 118.5t-116 64t-144.5 20.5t-144.5 -20.5t-116 -64t-79.5 -118t-28 -176.5v-594q0 -102 28 -176.5t79.5 -118t116 -64 t144.5 -20.5t144.5 20.5t116 64t80 118.5t28.5 176v213h-391l20 55h433v-268q0 -92 -23.5 -166.5t-63.5 -125t-95.5 -84.5t-117.5 -49t-131 -15q-87 0 -162.5 25t-136.5 76t-96 138t-35 201z" />
<glyph unicode="H" horiz-adv-x="1239" d="M174 0v1434h62v-676h768v676h61v-1434h-61v696h-768v-696h-62z" />
<glyph unicode="I" horiz-adv-x="409" d="M174 0v1434h62v-1434h-62z" />
<glyph unicode="J" horiz-adv-x="583" d="M51 0v57q307 0 307 365v1012h62v-1014q0 -420 -369 -420z" />
<glyph unicode="K" horiz-adv-x="962" d="M174 0v1434h62v-701l636 701h76l-643 -705l658 -729h-80l-647 721v-721h-62z" />
<glyph unicode="L" horiz-adv-x="1024" d="M174 0v1434h62v-1373h747l-20 -61h-789z" />
<glyph unicode="M" horiz-adv-x="1366" d="M172 0v1434h68l446 -770l442 770h66v-1434h-64v952q0 16 7 385l-426 -745h-58l-426 749q6 -343 6 -389v-952h-61z" />
<glyph unicode="N" horiz-adv-x="1277" d="M172 0v1434h68l811 -1328q-7 352 -7 375v953h62v-1434h-66l-813 1327q6 -319 6 -375v-952h-61z" />
<glyph unicode="O" horiz-adv-x="1146" d="M143 420v594q0 114 35 201t96 138t136.5 76t162.5 25q69 0 131 -15t117.5 -49t95.5 -84.5t63.5 -125t23.5 -166.5v-594q0 -92 -23.5 -166.5t-63.5 -125t-95.5 -84.5t-117.5 -49t-131 -15q-87 0 -162.5 25t-136.5 76t-96 138t-35 201zM205 420q0 -102 28 -176.5t79.5 -118 t116 -64t144.5 -20.5t144.5 20.5t116 64t80 118.5t28.5 176v594q0 101 -28.5 176t-80 118.5t-116 64t-144.5 20.5t-144.5 -20.5t-116 -64t-79.5 -118t-28 -176.5v-594z" />
<glyph unicode="P" horiz-adv-x="1095" d="M174 0v1434h430q87 0 162.5 -25t136.5 -75t96 -135t35 -195v-21q0 -110 -35 -195t-96 -135t-136.5 -75t-162.5 -25h-368v-553h-62zM236 614h368q80 0 145 20.5t116 63t79.5 115t28.5 170.5v21q0 98 -28.5 170.5t-79.5 114.5t-116 62.5t-145 20.5h-368v-758z" />
<glyph unicode="Q" horiz-adv-x="1146" d="M143 420v594q0 114 35 201t96 138t136.5 76t162.5 25q69 0 131 -15t117.5 -49t95.5 -84.5t63.5 -125t23.5 -166.5v-594q0 -157 -63 -258t-171 -146l234 -200l-41 -41l-256 221q-57 -16 -134 -16q-87 0 -162.5 25t-136.5 76t-96 138t-35 201zM205 420q0 -102 28 -176.5 t79.5 -118t116 -64t144.5 -20.5t144.5 20.5t116 64t80 118.5t28.5 176v594q0 101 -28.5 176t-80 118.5t-116 64t-144.5 20.5t-144.5 -20.5t-116 -64t-79.5 -118t-28 -176.5v-594z" />
<glyph unicode="R" horiz-adv-x="1146" d="M174 0v1434h440q192 0 301 -86t109 -263v-61q0 -129 -59 -210t-168 -114q147 -70 186 -311l61 -389h-63l-59 385q-11 67 -28.5 116t-45 80.5t-56 51t-71 28.5t-79 12t-91.5 3h-315v-676h-62zM236 737h378q173 0 261 68.5t88 218.5v61q0 150 -88 218.5t-261 68.5h-378 v-635z" />
<glyph unicode="S" horiz-adv-x="1085" d="M113 420v20h61v-20q0 -101 30 -176t83.5 -118.5t119.5 -64t146 -20.5q164 0 261 81t97 226v10q0 64 -22 115t-59 84t-87 61.5t-106 47.5t-115 41t-115 42.5t-106 52t-87 69.5t-59 95.5t-22 129.5v10q0 85 33 152.5t90.5 109.5t132 64t160.5 22q87 0 160 -25t131 -76 t90.5 -138t32.5 -201v-21h-62v21q0 199 -94 289t-258 90q-161 0 -257.5 -72.5t-96.5 -214.5v-8q0 -71 26.5 -125.5t71.5 -90t103.5 -63t123 -49.5t129 -45t123 -54t103.5 -70.5t71.5 -101.5t26.5 -141v-10q0 -170 -119 -269t-301 -99q-69 0 -132 15t-120 49.5t-98 84.5 t-65.5 124.5t-24.5 166.5z" />
<glyph unicode="T" horiz-adv-x="901" d="M51 1372v62h799l-21 -62h-348v-1372h-61v1372h-369z" />
<glyph unicode="U" horiz-adv-x="1187" d="M164 420v1014h61v-1014q0 -101 28.5 -176t80 -118.5t116 -64t144.5 -20.5t144.5 20.5t116 64t80 118.5t28.5 176v1014h61v-1014q0 -114 -35 -201t-96 -138t-136.5 -76t-162.5 -25t-162.5 25t-136.5 76t-96 138t-35 201z" />
<glyph unicode="V" horiz-adv-x="1105" d="M41 1434h68l444 -1354l444 1354h68l-481 -1444h-64z" />
<glyph unicode="W" horiz-adv-x="1699" d="M51 1434h68l350 -1332l350 1332h66l348 -1336l348 1336h68l-383 -1444h-66l-350 1331l-350 -1331h-64z" />
<glyph unicode="X" horiz-adv-x="1048" d="M10 0l479 727l-469 707h72l432 -654l432 654h72l-467 -707l477 -727h-71l-443 676l-442 -676h-72z" />
<glyph unicode="Y" horiz-adv-x="1075" d="M20 1434h68l449 -813l450 813h68l-490 -875v-559h-61v559z" />
<glyph unicode="Z" horiz-adv-x="956" d="M51 0v61l768 1311h-747l20 62h799v-62l-768 -1311h778v-61h-850z" />
<glyph unicode="[" horiz-adv-x="583" d="M164 -307v2048h348v-62h-287v-1925h287v-61h-348z" />
<glyph unicode="\" horiz-adv-x="913" d="M47 1434h62l757 -1434h-61z" />
<glyph unicode="]" horiz-adv-x="583" d="M72 -246h286v1925h-286v62h348v-2048h-348v61z" />
<glyph unicode="^" horiz-adv-x="972" d="M248 594l215 287h47l215 -287h-70l-170 225l-168 -225h-69z" />
<glyph unicode="_" horiz-adv-x="866" d="M84 -41h696v-51h-696v51z" />
<glyph unicode="`" horiz-adv-x="757" d="M248 1413h71l209 -287h-61z" />
<glyph unicode="a" d="M82 266v10q0 168 151.5 247.5t493.5 86.5v119q0 65 -17.5 113t-44 75t-65 43.5t-73 21.5t-76.5 5q-138 0 -314 -80l-20 58q70 33 161 56t173 23q337 0 337 -313v-731h-61v154q-99 -174 -328 -174q-153 0 -235 82t-82 204zM143 266q0 -106 73.5 -167.5t193.5 -61.5 q136 0 226.5 82.5t90.5 228.5v205q-311 -8 -447.5 -71.5t-136.5 -205.5v-10z" />
<glyph unicode="b" horiz-adv-x="962" d="M143 0v1434l62 20v-594q91 184 307 184q156 0 247 -103t91 -255v-348q0 -152 -91 -255t-247 -103q-216 0 -307 184v-164h-62zM205 397q0 -162 79 -261t212 -99q138 0 215 84.5t77 216.5v348q0 132 -77 216.5t-215 84.5q-133 0 -212 -99t-79 -261v-230z" />
<glyph unicode="c" horiz-adv-x="839" d="M113 358v308q0 89 24 158.5t59.5 109.5t83.5 66t90.5 35t84.5 9q170 0 323 -92l-22 -53q-149 88 -291 88q-54 0 -101.5 -15.5t-92 -50t-71 -102t-26.5 -160.5v-294q0 -93 26.5 -160.5t71 -102t92 -50t101.5 -15.5q142 0 291 88l22 -53q-153 -92 -323 -92q-42 0 -84.5 9 t-90.5 35t-83.5 66t-59.5 109.5t-24 158.5z" />
<glyph unicode="d" horiz-adv-x="962" d="M113 338v348q0 152 91 255t247 103q216 0 307 -184v594l61 -20v-1434h-61v164q-91 -184 -307 -184q-156 0 -247 103t-91 255zM174 338q0 -132 77.5 -216.5t215.5 -84.5q133 0 212 99t79 261v230q0 162 -79 261t-212 99q-138 0 -215.5 -84.5t-77.5 -216.5v-348z" />
<glyph unicode="e" d="M113 358v308q0 106 33 183.5t87.5 118t112.5 58.5t121 18q49 0 96 -10.5t94.5 -37.5t82.5 -68.5t57 -108.5t22 -153q0 -72 -10 -154h-635v-147q0 -75 19 -133.5t49 -94.5t71 -59t80.5 -32t81.5 -9q164 0 332 88l12 -55q-180 -90 -354 -90q-43 0 -86 9t-92.5 35t-86.5 66 t-62 109.5t-25 158.5zM174 569h580q4 33 4 97q0 85 -24.5 149t-67 100.5t-92.5 54t-107 17.5t-107.5 -17.5t-93 -54t-67.5 -100.5t-25 -149v-97z" />
<glyph unicode="f" horiz-adv-x="583" d="M51 967v57h154v193q0 73 15 125.5t37.5 81.5t57 45.5t64 21t67.5 4.5q84 0 168 -31l-10 -55q-82 29 -162 29q-95 0 -135.5 -50.5t-40.5 -175.5v-188h277l-21 -57h-256v-967h-61v967h-154z" />
<glyph unicode="g" horiz-adv-x="962" d="M113 379v307q0 152 91 255t247 103q216 0 307 -184v164h61v-1075q0 -89 -24 -158.5t-59.5 -110t-83.5 -66.5t-90.5 -35t-84.5 -9q-98 0 -188 29t-146 63l23 53q149 -88 301 -88q54 0 101.5 15.5t92 50t71 102t26.5 160.5v209q-105 -144 -307 -144q-156 0 -247 103.5 t-91 255.5zM174 379q0 -132 77.5 -216.5t215.5 -84.5q133 0 212 99t79 261v189q0 162 -79 261t-212 99q-138 0 -215.5 -84.5t-77.5 -216.5v-307z" />
<glyph unicode="h" horiz-adv-x="993" d="M143 0v1434l62 20v-604q45 99 128.5 146.5t188.5 47.5q108 0 184 -52t110 -131t34 -175v-686h-62v686q0 134 -72.5 217.5t-209.5 83.5q-134 0 -217.5 -99.5t-83.5 -260.5v-627h-62z" />
<glyph unicode="i" horiz-adv-x="348" d="M143 0v1024h62v-1024h-62zM143 1188v246h62v-246h-62z" />
<glyph unicode="j" horiz-adv-x="348" d="M-154 -410l11 56q71 -19 131 -19q92 0 123.5 48.5t31.5 177.5v1171h62v-1176q0 -61 -8.5 -108t-25 -76.5t-35.5 -49t-46.5 -28.5t-51 -12.5t-54.5 -3.5q-68 0 -138 20zM143 1188v246h62v-246h-62z" />
<glyph unicode="k" horiz-adv-x="870" d="M143 0v1434l62 20v-922l561 492h84l-571 -500l581 -524h-88l-567 512v-512h-62z" />
<glyph unicode="l" horiz-adv-x="348" d="M143 0v1434l62 20v-1454h-62z" />
<glyph unicode="m" horiz-adv-x="1638" d="M143 0v1024h62v-174q45 99 128.5 146.5t188.5 47.5q123 0 200.5 -62.5t108.5 -166.5q95 229 336 229q108 0 184 -52t110 -131t34 -175v-686h-61v686q0 134 -73 217.5t-210 83.5q-134 0 -217.5 -99.5t-83.5 -260.5v-627h-62v686q0 134 -72.5 217.5t-209.5 83.5 q-134 0 -217.5 -99.5t-83.5 -260.5v-627h-62z" />
<glyph unicode="n" horiz-adv-x="993" d="M143 0v1024h62v-174q45 99 128.5 146.5t188.5 47.5q108 0 184 -52t110 -131t34 -175v-686h-62v686q0 134 -72.5 217.5t-209.5 83.5q-134 0 -217.5 -99.5t-83.5 -260.5v-627h-62z" />
<glyph unicode="o" d="M113 358v308q0 106 33 183.5t87.5 118t112.5 58.5t121 18q49 0 96 -10.5t94.5 -37.5t82.5 -68.5t57 -108.5t22 -153v-308q0 -86 -22 -153t-57 -108.5t-82.5 -68.5t-94.5 -37.5t-96 -10.5q-63 0 -121 18t-112.5 58.5t-87.5 118t-33 183.5zM174 358q0 -85 25 -149 t67.5 -100.5t93 -54t107.5 -17.5t107 17.5t92.5 54t67 100.5t24.5 149v308q0 85 -24.5 149t-67 100.5t-92.5 54t-107 17.5t-107.5 -17.5t-93 -54t-67.5 -100.5t-25 -149v-308z" />
<glyph unicode="p" horiz-adv-x="962" d="M143 -410v1434h62v-164q91 184 307 184q156 0 247 -103t91 -255v-348q0 -152 -91 -255t-247 -103q-216 0 -307 184v-574h-62zM205 397q0 -162 79 -261t212 -99q138 0 215 84.5t77 216.5v348q0 132 -77 216.5t-215 84.5q-133 0 -212 -99t-79 -261v-230z" />
<glyph unicode="q" horiz-adv-x="962" d="M113 338v348q0 152 91 255t247 103q216 0 307 -184v164h61v-1454l-61 20v574q-91 -184 -307 -184q-156 0 -247 103t-91 255zM174 338q0 -132 77.5 -216.5t215.5 -84.5q133 0 212 99t79 261v230q0 162 -79 261t-212 99q-138 0 -215.5 -84.5t-77.5 -216.5v-348z" />
<glyph unicode="r" horiz-adv-x="675" d="M143 0v1024h62v-174q89 194 311 194q76 0 139 -26l-22 -57q-60 26 -131 26q-133 0 -215 -99.5t-82 -260.5v-627h-62z" />
<glyph unicode="s" horiz-adv-x="860" d="M82 51l24 60q62 -31 152 -52.5t172 -21.5q134 0 210.5 58.5t76.5 156.5v18q0 61 -34.5 104.5t-89.5 68t-122 43.5t-133.5 40t-121.5 49.5t-89.5 80t-34.5 122.5v23q0 104 86 173.5t248 69.5q36 0 73.5 -4t64 -9.5t59 -15t48 -15t43 -16t31.5 -11.5l-26 -60 q-170 74 -291 74q-118 0 -196 -46.5t-78 -139.5v-21q0 -61 34.5 -104.5t89.5 -67.5t121.5 -43t133 -40t121.5 -49t89.5 -79.5t34.5 -122.5v-22q0 -88 -50.5 -151.5t-127.5 -92t-168 -28.5q-204 0 -350 71z" />
<glyph unicode="t" horiz-adv-x="593" d="M51 967v57h154v205h61v-205h277l-21 -57h-256v-705q0 -129 32 -177t124 -48q64 0 131 18l10 -55q-70 -20 -137 -20q-31 0 -54.5 3.5t-51 12.5t-46.5 28.5t-35.5 49t-25 76.5t-8.5 108v709h-154z" />
<glyph unicode="u" horiz-adv-x="993" d="M143 338v686h62v-686q0 -134 72.5 -217.5t209.5 -83.5q134 0 217.5 99.5t83.5 260.5v627h62v-1024h-62v174q-45 -99 -128.5 -146.5t-188.5 -47.5q-108 0 -184 52t-110 131t-34 175z" />
<glyph unicode="v" horiz-adv-x="890" d="M51 1024h64l331 -944l330 944h64l-365 -1034h-59z" />
<glyph unicode="w" horiz-adv-x="1337" d="M55 1024h62l262 -946l260 946h59l263 -946l260 946h61l-289 -1034h-65l-258 942l-260 -942h-66z" />
<glyph unicode="x" horiz-adv-x="849" d="M31 0l362 512l-362 512h63l332 -463l330 463h63l-362 -512l362 -512h-63l-330 463l-332 -463h-63z" />
<glyph unicode="y" horiz-adv-x="882" d="M10 -410l6 52q80 -21 129 -21q82 0 130 50.5t94 183.5l43 125l-365 1044h64l333 -952l330 952h62l-410 -1167q-31 -90 -63.5 -148.5t-68 -88t-69 -40t-78.5 -10.5q-53 0 -137 20z" />
<glyph unicode="z" horiz-adv-x="829" d="M61 0v57l621 910h-600l20 57h646v-57l-619 -910h639v-57h-707z" />
<glyph unicode="{" horiz-adv-x="552" d="M61 686v62q42 6 71 23.5t45 40t25 58.5t11 67t2 77q0 60 -10 213.5t-10 216.5q0 88 23 148.5t66 92t92.5 44t115.5 12.5v-62q-86 0 -126 -16q-109 -46 -110 -219q0 -62 10 -239.5t10 -241.5q0 -112 -37.5 -168.5t-105.5 -75.5v-4q68 -19 105.5 -75.5t37.5 -168.5 q0 -64 -10 -243.5t-10 -241.5q0 -38 5.5 -69.5t13.5 -54t22.5 -40.5t26 -29t31.5 -19t32.5 -12t34.5 -6t31 -2h29h10v-61q-66 0 -115.5 12.5t-92.5 44t-66 92t-23 148.5q0 63 10 216.5t10 213.5q0 46 -2 77t-11 67t-25 58.5t-45 40t-71 23.5z" />
<glyph unicode="|" horiz-adv-x="389" d="M164 -307v2048h61v-2048h-61z" />
<glyph unicode="}" horiz-adv-x="552" d="M61 -246h10q24 0 38 0.5t41 4.5t44 12.5t38.5 25.5t34 41t21.5 62t9 86q0 62 -10.5 241.5t-10.5 243.5q0 204 144 244v4q-144 40 -144 244q0 64 10.5 241.5t10.5 239.5q0 49 -9 87.5t-22 62.5t-35 41.5t-39 25.5t-44 12.5t-41 5t-38 0.5h-8v62q66 0 115.5 -12.5t92.5 -44 t66 -92t23 -148.5q0 -63 -10 -216.5t-10 -213.5q0 -46 2 -77t11 -67t25 -58.5t45 -40t71 -23.5v-62q-42 -6 -71 -23.5t-45 -40t-25 -58.5t-11 -67t-2 -77q0 -60 10 -213.5t10 -216.5q0 -88 -23 -148.5t-66 -92t-92.5 -44t-115.5 -12.5v61z" />
<glyph unicode="~" horiz-adv-x="862" d="M143 651q0 88 36 128t85 40q51 0 113.5 -25.5t118 -51t88.5 -25.5q36 0 54.5 20t18.5 82h62q0 -88 -35.5 -126t-85.5 -38q-51 0 -112.5 25.5t-116.5 51.5t-88 26q-36 0 -56 -22.5t-20 -84.5h-62z" />
<glyph unicode="&#xa1;" horiz-adv-x="409" d="M174 -410l2 1112h57l3 -1112h-62zM176 862v162h57v-162h-57z" />
<glyph unicode="&#xa2;" horiz-adv-x="890" d="M113 358v308q0 82 20 147t51 105t73.5 68t81.5 40t81 16v187h61v-185q157 -7 297 -92l-22 -53q-149 88 -291 88q-54 0 -101.5 -15.5t-92 -50t-71 -102t-26.5 -160.5v-294q0 -93 26.5 -160.5t71 -102t92 -50t101.5 -15.5q142 0 291 88l22 -53q-140 -85 -297 -92v-185h-61 v187q-42 4 -81 16t-81.5 40t-73.5 68t-51 105t-20 147z" />
<glyph unicode="&#xa3;" horiz-adv-x="1136" d="M102 0v61h123v512h-123v62h123v399q0 212 111.5 316t298.5 104q91 0 164 -25t128.5 -76.5t86 -137.5t30.5 -201v-21h-61v21q0 379 -348 379q-163 0 -255.5 -87t-92.5 -272v-399h334l-21 -62h-313v-512h757v-61h-942z" />
<glyph unicode="&#xa4;" horiz-adv-x="1136" d="M102 0v61h123v512h-123v62h123v399q0 212 111.5 316t298.5 104q91 0 164 -25t128.5 -76.5t86 -137.5t30.5 -201v-21h-61v21q0 379 -348 379q-163 0 -255.5 -87t-92.5 -272v-399h334l-21 -62h-313v-512h757v-61h-942z" />
<glyph unicode="&#xa5;" horiz-adv-x="1136" d="M51 1434h68l448 -813l451 813h67l-475 -850h308l-21 -62h-301v-522h-61v522h-330v62h315z" />
<glyph unicode="&#xa6;" horiz-adv-x="389" d="M164 -307v921h61v-921h-61zM164 819v922h61v-922h-61z" />
<glyph unicode="&#xa7;" horiz-adv-x="1110" d="M139 367v137h62v-137q0 -156 100.5 -240t253.5 -84q150 0 250 76.5t100 206.5v313h-766v39h832v-39h-2v-313q0 -109 -60.5 -187.5t-152.5 -114.5t-201 -36q-65 0 -125 14t-113.5 44t-92.5 73.5t-62 107t-23 140.5zM139 774v342q0 109 60.5 187.5t153 114.5t202.5 36 q65 0 124.5 -14t112.5 -44t92 -73.5t62 -107t23 -140.5v-145h-62v145q0 156 -100 241t-252 85q-150 0 -251 -77t-101 -208v-303h768v-39h-832z" />
<glyph unicode="&#xa8;" horiz-adv-x="983" d="M246 1184v252h61v-252h-61zM676 1184v252h61v-252h-61z" />
<glyph unicode="&#xa9;" horiz-adv-x="1622" d="M94 717q0 204 93 372.5t258 266.5t366 98t366 -98t258 -266.5t93 -372.5q0 -154 -55 -291t-149.5 -234.5t-228 -154.5t-284.5 -57t-284.5 57t-228 154.5t-149.5 234.5t-55 291zM156 717q0 -142 50 -267.5t136.5 -215t208.5 -141.5t260 -52t260 52t208.5 141.5t136.5 215 t50 267.5q0 187 -85 342t-235.5 244.5t-334.5 89.5t-334.5 -89.5t-235.5 -244.5t-85 -342zM545 504v426q0 112 77.5 170.5t186.5 58.5t186.5 -58.5t77.5 -170.5v-90h-45v90q0 90 -64 140t-155 50t-155 -50t-64 -140v-426q0 -93 63.5 -142t155.5 -49t155.5 49t63.5 142v90h45 v-90q0 -112 -78 -171t-186 -59t-186 59t-78 171z" />
<glyph unicode="&#xaa;" horiz-adv-x="733" d="M102 547v53h529v-53h-529zM109 905v6q0 117 103.5 173.5t342.5 62.5v78q0 53 -16 89t-45.5 52.5t-57.5 22.5t-65 6q-92 0 -219 -56l-19 50q116 59 242 59q241 0 241 -223v-508h-57l-2 104q-70 -119 -225 -119q-108 0 -165.5 58.5t-57.5 144.5zM170 907q0 -70 48.5 -110.5 t127.5 -40.5q90 0 149.5 55.5t59.5 151.5v133q-205 -5 -295 -47.5t-90 -135.5v-6z" />
<glyph unicode="&#xab;" horiz-adv-x="1187" d="M68 485v50l499 407v-68l-440 -362v-4l440 -358v-68zM571 485v50l500 407v-68l-440 -362v-4l440 -358v-68z" />
<glyph unicode="&#xac;" horiz-adv-x="999" d="M170 700v54h680v-205h-53v151h-627z" />
<glyph unicode="&#xad;" horiz-adv-x="909" d="M106 485v54h697v-54h-697z" />
<glyph unicode="&#xae;" horiz-adv-x="1622" d="M94 717q0 204 93 372.5t258 266.5t366 98t366 -98t258 -266.5t93 -372.5q0 -154 -55 -291t-149.5 -234.5t-228 -154.5t-284.5 -57t-284.5 57t-228 154.5t-149.5 234.5t-55 291zM156 717q0 -142 50 -267.5t136.5 -215t208.5 -141.5t260 -52t260 52t208.5 141.5t136.5 215 t50 267.5q0 187 -85 342t-235.5 244.5t-334.5 89.5t-334.5 -89.5t-235.5 -244.5t-85 -342zM575 287v860h281q106 0 171 -52t65 -163v-23q0 -89 -44 -138.5t-120 -63.5q56 -13 91.5 -55.5t49.5 -131.5l37 -233h-47l-35 231q-7 47 -22 79t-32 50t-45.5 27.5t-53 11.5t-64.5 2 h-186v-401h-46zM621 725h231q89 0 142 44t53 134v27q0 90 -53 134t-142 44h-231v-383z" />
<glyph unicode="&#xaf;" horiz-adv-x="1073" d="M248 1198v62h577v-62h-577z" />
<glyph unicode="&#xb0;" horiz-adv-x="559" d="M109 1284q0 70 49.5 120t120.5 50t120.5 -50t49.5 -120t-49.5 -120t-120.5 -50t-120.5 50t-49.5 120zM170 1284q0 -46 31.5 -77t77.5 -31t77 31t31 77t-31 77.5t-77 31.5t-77.5 -31.5t-31.5 -77.5z" />
<glyph unicode="&#xb1;" horiz-adv-x="894" d="M96 381v53h701v-53h-701zM96 834v53h326v323h53v-323h322v-53h-322v-324h-53v324h-326z" />
<glyph unicode="&#xb2;" horiz-adv-x="761" d="M70 430v64q0 66 31 123.5t80.5 101t109.5 84t119.5 79.5t109 79.5t80.5 93t31 110.5v15q0 103 -66 157t-174 54q-111 0 -178.5 -61t-67.5 -193v-17h-61v17q0 157 87 234t220 77q130 0 215.5 -70.5t85.5 -199.5v-15q0 -65 -31 -123t-80 -102t-109 -85.5t-119.5 -81 t-108.5 -79.5t-80 -90.5t-31 -105.5v-9h559v-57h-622z" />
<glyph unicode="&#xb3;" horiz-adv-x="778" d="M76 725v14h63v-14q0 -131 68.5 -191.5t183.5 -60.5q106 0 176 55.5t70 149.5v27q0 103 -68 153.5t-178 50.5h-78v60h78q97 0 164.5 54.5t67.5 147.5v27q0 94 -65.5 143.5t-164.5 49.5q-107 0 -173 -61.5t-66 -192.5v-17l-64 17q0 81 25 142.5t68 97.5t96 53.5t114 17.5 q118 0 204.5 -65t86.5 -181v-28q0 -81 -43.5 -141t-114.5 -91q80 -28 127 -87.5t47 -149.5v-29q0 -119 -90 -189.5t-219 -70.5q-138 0 -226.5 76.5t-88.5 232.5z" />
<glyph unicode="&#xb4;" horiz-adv-x="757" d="M248 1126l209 287h71l-219 -287h-61z" />
<glyph unicode="&#xb6;" horiz-adv-x="1189" d="M141 993v62q0 95 37.5 170t100 119.5t137.5 67t157 22.5h195v-820h-195q-82 0 -157 22.5t-137.5 67t-100 119.5t-37.5 170zM860 0v1434h246v-62h-184v-1372h-62z" />
<glyph unicode="&#xb7;" horiz-adv-x="352" d="M147 459v164h58v-164h-58z" />
<glyph unicode="&#xb8;" horiz-adv-x="897" d="M231 -418l11 58q72 -29 153 -29q85 0 119.5 32.5t34.5 80.5v8q0 54 -38 80t-124 26h-82v182h62v-120h32q95 0 153 -41t58 -125v-10q0 -86 -57 -130.5t-162 -44.5q-86 0 -160 33z" />
<glyph unicode="&#xb9;" horiz-adv-x="544" d="M82 1290l237 144h62v-1004h-62v938l-208 -125z" />
<glyph unicode="&#xba;" horiz-adv-x="733" d="M102 547v53h529v-53h-529zM113 971v209q0 74 22.5 128.5t61 83.5t81 42.5t89.5 13.5t89.5 -13.5t81 -42.5t61 -83.5t22.5 -128.5v-209q0 -74 -22.5 -128.5t-61 -84t-81 -43t-89.5 -13.5t-89.5 13.5t-81 43t-61 84t-22.5 128.5zM174 969q0 -109 56 -161t137 -52 q82 0 137 52t55 161v213q0 109 -55 161t-137 52q-81 0 -137 -52t-56 -161v-213z" />
<glyph unicode="&#xbb;" horiz-adv-x="1187" d="M117 82v68l440 358v4l-440 362v68l499 -407v-50zM621 82v68l440 358v4l-440 362v68l499 -407v-50z" />
<glyph unicode="&#xbc;" horiz-adv-x="1679" d="M70 1290l237 144h62v-1004h-62v938l-209 -125zM383 0l754 1434h65l-753 -1434h-66zM887 281v57l497 666h64v-666h149l-16 -57h-133v-281h-64v281h-497zM956 338h428v565z" />
<glyph unicode="&#xbd;" horiz-adv-x="1748" d="M70 1290l237 144h62v-1004h-62v938l-209 -125zM383 0l754 1434h65l-753 -1434h-66zM1044 0v63q0 66 31 123.5t80.5 101t109.5 84.5t120 80t109.5 79.5t80.5 93t31 110.5v15q0 103 -66 157t-174 54q-111 0 -178.5 -61t-67.5 -193v-17h-61v17q0 157 87 234t220 77 q130 0 215.5 -70.5t85.5 -199.5v-15q0 -65 -31 -123t-80 -102t-108.5 -85.5t-119.5 -81t-109 -79.5t-80 -90.5t-31 -105.5v-9h559v-57h-623z" />
<glyph unicode="&#xbe;" horiz-adv-x="1927" d="M82 725v14h63v-14q0 -131 68.5 -191.5t183.5 -60.5q106 0 176 55.5t70 149.5v27q0 103 -68 153.5t-178 50.5h-78v60h78q97 0 164.5 54.5t67.5 147.5v27q0 94 -65.5 143.5t-164.5 49.5q-107 0 -173 -61.5t-66 -192.5v-17l-64 17q0 81 25 142.5t68 97.5t96 53.5t114 17.5 q118 0 204.5 -65t86.5 -181v-28q0 -81 -43.5 -141t-114.5 -91q80 -28 127.5 -88t47.5 -149v-29q0 -119 -90.5 -189.5t-219.5 -70.5q-138 0 -226.5 76.5t-88.5 232.5zM631 0l753 1434h66l-754 -1434h-65zM1135 281v57l497 666h64v-666h149l-16 -57h-133v-281h-64v281h-497z M1204 338h428v565z" />
<glyph unicode="&#xbf;" horiz-adv-x="993" d="M72 0v20q0 111 33 195t92 134t131 75t157 27v251h58v-313h-41q-81 0 -145 -19t-116 -60.5t-80 -115t-28 -174.5v-20q0 -101 28 -174.5t80 -115t116 -60.5t145 -19q80 0 144.5 20.5t116 64t79.5 118t28 176.5v21h62v-21q0 -114 -35 -201t-96 -138t-136.5 -76t-162.5 -25 q-88 0 -162.5 23.5t-136 72.5t-96.5 134.5t-35 199.5zM485 862v162h58v-162h-58z" />
<glyph unicode="&#xc0;" horiz-adv-x="1105" d="M41 0l479 1444h64l481 -1444h-68l-141 430h-606l-141 -430h-68zM270 492h568l-283 862zM317 1823h72l209 -287h-61z" />
<glyph unicode="&#xc1;" horiz-adv-x="1105" d="M41 0l479 1444h64l481 -1444h-68l-141 430h-606l-141 -430h-68zM270 492h568l-283 862zM530 1536l209 287h72l-219 -287h-62z" />
<glyph unicode="&#xc2;" horiz-adv-x="1105" d="M41 0l479 1444h64l481 -1444h-68l-141 430h-606l-141 -430h-68zM270 492h568l-283 862zM317 1536l215 287h48l215 -287h-70l-170 225l-168 -225h-70z" />
<glyph unicode="&#xc3;" horiz-adv-x="1105" d="M41 0l479 1444h64l481 -1444h-68l-141 430h-606l-141 -430h-68zM264 1552q0 88 36 128t85 40q51 0 113.5 -25.5t118 -51t88.5 -25.5q36 0 54.5 20t18.5 82h62q0 -88 -35.5 -126t-85.5 -38q-51 0 -113 26t-117 51.5t-88 25.5q-36 0 -55.5 -22.5t-19.5 -84.5h-62zM270 492 h568l-283 862z" />
<glyph unicode="&#xc4;" horiz-adv-x="1105" d="M41 0l479 1444h64l481 -1444h-68l-141 430h-606l-141 -430h-68zM270 492h568l-283 862zM309 1593v252h62v-252h-62zM739 1593v252h62v-252h-62z" />
<glyph unicode="&#xc5;" horiz-adv-x="1105" d="M41 0l479 1444h64l481 -1444h-68l-141 430h-606l-141 -430h-68zM270 492h568l-283 862zM348 1704q0 88 54.5 141t152.5 53q99 0 154 -53t55 -141q0 -87 -55 -141t-154 -54q-97 0 -152 54t-55 141zM410 1704q0 -59 36.5 -96t108.5 -37q73 0 110 37t37 96q0 60 -37 96.5 t-110 36.5q-72 0 -108.5 -36.5t-36.5 -96.5z" />
<glyph unicode="&#xc6;" horiz-adv-x="1628" d="M41 0l674 1434h841v-62h-747v-614h672v-62h-672v-635h747v-61h-808v430h-437l-202 -430h-68zM340 492h408v866z" />
<glyph unicode="&#xc7;" horiz-adv-x="1116" d="M143 420v594q0 114 35 201t96 138t136.5 76t162.5 25q69 0 131 -15t117.5 -49t95.5 -84.5t63.5 -125t23.5 -166.5l-62 -21v21q0 101 -28.5 176t-80 118.5t-116 64t-144.5 20.5t-144.5 -20.5t-116 -64t-79.5 -118t-28 -176.5v-594q0 -102 28 -176.5t79.5 -118t116 -64 t144.5 -20.5t144.5 20.5t116 64t80 118.5t28.5 176v20h62v-20q0 -112 -34 -198t-93 -137t-132 -77t-159 -28v-80h32q95 0 153 -41t58 -125v-10q0 -86 -57 -130.5t-162 -44.5q-85 0 -159 33l10 58q73 -29 153 -29q85 0 119.5 32.5t34.5 80.5v8q0 54 -38 80t-124 26h-82v144 q-79 6 -146 34.5t-120.5 80t-84 134.5t-30.5 189z" />
<glyph unicode="&#xc8;" horiz-adv-x="1054" d="M174 0v1434h809v-62h-747v-614h671v-62h-671v-635h747v-61h-809zM313 1823h72l209 -287h-62z" />
<glyph unicode="&#xc9;" horiz-adv-x="1054" d="M174 0v1434h809v-62h-747v-614h671v-62h-671v-635h747v-61h-809zM526 1536l209 287h72l-219 -287h-62z" />
<glyph unicode="&#xca;" horiz-adv-x="1054" d="M174 0v1434h809v-62h-747v-614h671v-62h-671v-635h747v-61h-809zM313 1536l215 287h47l216 -287h-70l-170 225l-168 -225h-70z" />
<glyph unicode="&#xcb;" horiz-adv-x="1054" d="M174 0v1434h809v-62h-747v-614h671v-62h-671v-635h747v-61h-809zM305 1593v252h62v-252h-62zM735 1593v252h62v-252h-62z" />
<glyph unicode="&#xcc;" horiz-adv-x="409" d="M-31 1823h72l209 -287h-62zM174 0v1434h62v-1434h-62z" />
<glyph unicode="&#xcd;" horiz-adv-x="409" d="M174 0v1434h62v-1434h-62zM182 1536l209 287h72l-219 -287h-62z" />
<glyph unicode="&#xce;" horiz-adv-x="409" d="M-31 1536l215 287h47l215 -287h-69l-170 225l-168 -225h-70zM174 0v1434h62v-1434h-62z" />
<glyph unicode="&#xcf;" horiz-adv-x="409" d="M-39 1593v252h62v-252h-62zM174 0v1434h62v-1434h-62zM391 1593v252h62v-252h-62z" />
<glyph unicode="&#xd0;" horiz-adv-x="1187" d="M20 696v54h154v684h420q70 0 133.5 -15.5t122 -50.5t101 -87t68 -131t25.5 -177v-512q0 -98 -25.5 -177t-68 -131t-101 -87t-122 -50.5t-133.5 -15.5h-420v696h-154zM236 61h358q81 0 148 21t122.5 66t87 125t31.5 188v512q0 108 -31.5 187.5t-87 124.5t-122.5 66 t-148 21h-358v-622h256v-54h-256v-635z" />
<glyph unicode="&#xd1;" horiz-adv-x="1277" d="M172 0v1434h68l811 -1328q-7 352 -7 375v953h62v-1434h-66l-813 1327q6 -319 6 -375v-952h-61zM348 1552q0 88 36 128t85 40q51 0 113 -25.5t117.5 -51t88.5 -25.5q36 0 55 20t19 82h62q0 -88 -35.5 -126t-85.5 -38q-51 0 -113 26t-117 51.5t-88 25.5q-36 0 -55.5 -22.5 t-19.5 -84.5h-62z" />
<glyph unicode="&#xd2;" horiz-adv-x="1146" d="M143 420v594q0 114 35 201t96 138t136.5 76t162.5 25q69 0 131 -15t117.5 -49t95.5 -84.5t63.5 -125t23.5 -166.5v-594q0 -92 -23.5 -166.5t-63.5 -125t-95.5 -84.5t-117.5 -49t-131 -15q-87 0 -162.5 25t-136.5 76t-96 138t-35 201zM205 420q0 -102 28 -176.5t79.5 -118 t116 -64t144.5 -20.5t144.5 20.5t116 64t80 118.5t28.5 176v594q0 101 -28.5 176t-80 118.5t-116 64t-144.5 20.5t-144.5 -20.5t-116 -64t-79.5 -118t-28 -176.5v-594zM338 1823h72l208 -287h-61z" />
<glyph unicode="&#xd3;" horiz-adv-x="1146" d="M143 420v594q0 114 35 201t96 138t136.5 76t162.5 25q69 0 131 -15t117.5 -49t95.5 -84.5t63.5 -125t23.5 -166.5v-594q0 -92 -23.5 -166.5t-63.5 -125t-95.5 -84.5t-117.5 -49t-131 -15q-87 0 -162.5 25t-136.5 76t-96 138t-35 201zM205 420q0 -102 28 -176.5t79.5 -118 t116 -64t144.5 -20.5t144.5 20.5t116 64t80 118.5t28.5 176v594q0 101 -28.5 176t-80 118.5t-116 64t-144.5 20.5t-144.5 -20.5t-116 -64t-79.5 -118t-28 -176.5v-594zM551 1536l209 287h71l-219 -287h-61z" />
<glyph unicode="&#xd4;" horiz-adv-x="1146" d="M143 420v594q0 114 35 201t96 138t136.5 76t162.5 25q69 0 131 -15t117.5 -49t95.5 -84.5t63.5 -125t23.5 -166.5v-594q0 -92 -23.5 -166.5t-63.5 -125t-95.5 -84.5t-117.5 -49t-131 -15q-87 0 -162.5 25t-136.5 76t-96 138t-35 201zM205 420q0 -102 28 -176.5t79.5 -118 t116 -64t144.5 -20.5t144.5 20.5t116 64t80 118.5t28.5 176v594q0 101 -28.5 176t-80 118.5t-116 64t-144.5 20.5t-144.5 -20.5t-116 -64t-79.5 -118t-28 -176.5v-594zM338 1536l215 287h47l215 -287h-70l-170 225l-167 -225h-70z" />
<glyph unicode="&#xd5;" horiz-adv-x="1146" d="M143 420v594q0 114 35 201t96 138t136.5 76t162.5 25q69 0 131 -15t117.5 -49t95.5 -84.5t63.5 -125t23.5 -166.5v-594q0 -92 -23.5 -166.5t-63.5 -125t-95.5 -84.5t-117.5 -49t-131 -15q-87 0 -162.5 25t-136.5 76t-96 138t-35 201zM205 420q0 -102 28 -176.5t79.5 -118 t116 -64t144.5 -20.5t144.5 20.5t116 64t80 118.5t28.5 176v594q0 101 -28.5 176t-80 118.5t-116 64t-144.5 20.5t-144.5 -20.5t-116 -64t-79.5 -118t-28 -176.5v-594zM285 1552q0 88 36 128t85 40q51 0 113 -25.5t117.5 -51t88.5 -25.5q36 0 55 20t19 82h61 q0 -88 -35.5 -126t-85.5 -38q-51 0 -112.5 26t-116.5 51.5t-88 25.5q-36 0 -56 -22.5t-20 -84.5h-61z" />
<glyph unicode="&#xd6;" horiz-adv-x="1146" d="M143 420v594q0 114 35 201t96 138t136.5 76t162.5 25q69 0 131 -15t117.5 -49t95.5 -84.5t63.5 -125t23.5 -166.5v-594q0 -92 -23.5 -166.5t-63.5 -125t-95.5 -84.5t-117.5 -49t-131 -15q-87 0 -162.5 25t-136.5 76t-96 138t-35 201zM205 420q0 -102 28 -176.5t79.5 -118 t116 -64t144.5 -20.5t144.5 20.5t116 64t80 118.5t28.5 176v594q0 101 -28.5 176t-80 118.5t-116 64t-144.5 20.5t-144.5 -20.5t-116 -64t-79.5 -118t-28 -176.5v-594zM330 1593v252h61v-252h-61zM760 1593v252h61v-252h-61z" />
<glyph unicode="&#xd7;" horiz-adv-x="905" d="M104 418l312 309l-312 309l39 39l310 -311l311 311l39 -39l-314 -309l314 -311l-39 -37l-309 311l-312 -311z" />
<glyph unicode="&#xd8;" horiz-adv-x="1146" d="M141 -41l90 168q-88 112 -88 293v594q0 114 35 201t96 138t136.5 76t162.5 25q196 0 310 -111l69 132h60l-92 -172q84 -115 84 -289v-594q0 -92 -23.5 -166.5t-63.5 -125t-95.5 -84.5t-117.5 -49t-131 -15q-190 0 -305 106l-67 -127h-60zM205 420q0 -145 57 -236 l592 1106q-97 103 -281 103q-80 0 -144.5 -20.5t-116 -64t-79.5 -118t-28 -176.5v-594zM297 139q95 -98 276 -98q80 0 144.5 20.5t116 64t80 118.5t28.5 176v594q0 139 -55 229z" />
<glyph unicode="&#xd9;" horiz-adv-x="1187" d="M164 420v1014h61v-1014q0 -101 28.5 -176t80 -118.5t116 -64t144.5 -20.5t144.5 20.5t116 64t80 118.5t28.5 176v1014h61v-1014q0 -114 -35 -201t-96 -138t-136.5 -76t-162.5 -25t-162.5 25t-136.5 76t-96 138t-35 201zM362 1823h72l209 -287h-61z" />
<glyph unicode="&#xda;" horiz-adv-x="1187" d="M164 420v1014h61v-1014q0 -101 28.5 -176t80 -118.5t116 -64t144.5 -20.5t144.5 20.5t116 64t80 118.5t28.5 176v1014h61v-1014q0 -114 -35 -201t-96 -138t-136.5 -76t-162.5 -25t-162.5 25t-136.5 76t-96 138t-35 201zM575 1536l209 287h72l-219 -287h-62z" />
<glyph unicode="&#xdb;" horiz-adv-x="1187" d="M164 420v1014h61v-1014q0 -101 28.5 -176t80 -118.5t116 -64t144.5 -20.5t144.5 20.5t116 64t80 118.5t28.5 176v1014h61v-1014q0 -114 -35 -201t-96 -138t-136.5 -76t-162.5 -25t-162.5 25t-136.5 76t-96 138t-35 201zM362 1536l216 287h47l215 -287h-70l-170 225 l-168 -225h-70z" />
<glyph unicode="&#xdc;" horiz-adv-x="1187" d="M164 420v1014h61v-1014q0 -101 28.5 -176t80 -118.5t116 -64t144.5 -20.5t144.5 20.5t116 64t80 118.5t28.5 176v1014h61v-1014q0 -114 -35 -201t-96 -138t-136.5 -76t-162.5 -25t-162.5 25t-136.5 76t-96 138t-35 201zM354 1593v252h62v-252h-62zM784 1593v252h62v-252 h-62z" />
<glyph unicode="&#xdd;" horiz-adv-x="1075" d="M20 1434h68l449 -813l450 813h68l-490 -875v-559h-61v559zM512 1536l209 287h72l-220 -287h-61z" />
<glyph unicode="&#xde;" horiz-adv-x="1095" d="M174 0v1434h62v-267h368q87 0 162.5 -25t136.5 -75t96 -135t35 -195v-20q0 -110 -35 -195t-96 -135t-136.5 -75t-162.5 -25h-368v-287h-62zM236 348h368q80 0 145 20.5t116 63t79.5 115t28.5 170.5v20q0 98 -28.5 170.5t-79.5 115t-116 63t-145 20.5h-368v-758z" />
<glyph unicode="&#xdf;" horiz-adv-x="1132" d="M51 967v57h156v135q0 94 33 163t87.5 105t112.5 52t121 16q50 0 97 -9.5t94.5 -33.5t83 -60.5t57.5 -96.5t22 -136v-63q0 -117 -53 -196t-143 -120q63 -14 115 -40.5t95 -68t67 -103.5t24 -138v-74q0 -77 -24.5 -138.5t-65 -101.5t-96 -66.5t-114.5 -38t-124 -11.5h-211 v53h209q73 0 136.5 17t115.5 52t82 95.5t30 140.5v74q0 63 -20.5 114.5t-55.5 86t-82 58t-98.5 34t-107.5 10.5h-211v58h106q73 0 136.5 16.5t116 51t82.5 94t30 137.5v71q0 73 -24.5 128t-67 86t-93 46t-108.5 15q-57 0 -107.5 -15t-93 -46t-67.5 -86t-25 -128v-1163h-61 v967h-156z" />
<glyph unicode="&#xe0;" d="M82 266v10q0 168 151.5 247.5t493.5 86.5v119q0 65 -17.5 113t-44 75t-65 43.5t-73 21.5t-76.5 5q-138 0 -314 -80l-20 58q70 33 161 56t173 23q337 0 337 -313v-731h-61v154q-99 -174 -328 -174q-153 0 -235 82t-82 204zM143 266q0 -106 73.5 -167.5t193.5 -61.5 q136 0 226.5 82.5t90.5 228.5v205q-311 -8 -447.5 -71.5t-136.5 -205.5v-10zM209 1413h72l208 -287h-61z" />
<glyph unicode="&#xe1;" d="M82 266v10q0 168 151.5 247.5t493.5 86.5v119q0 65 -17.5 113t-44 75t-65 43.5t-73 21.5t-76.5 5q-138 0 -314 -80l-20 58q70 33 161 56t173 23q337 0 337 -313v-731h-61v154q-99 -174 -328 -174q-153 0 -235 82t-82 204zM143 266q0 -106 73.5 -167.5t193.5 -61.5 q136 0 226.5 82.5t90.5 228.5v205q-311 -8 -447.5 -71.5t-136.5 -205.5v-10zM422 1126l209 287h71l-219 -287h-61z" />
<glyph unicode="&#xe2;" d="M82 266v10q0 168 151.5 247.5t493.5 86.5v119q0 65 -17.5 113t-44 75t-65 43.5t-73 21.5t-76.5 5q-138 0 -314 -80l-20 58q70 33 161 56t173 23q337 0 337 -313v-731h-61v154q-99 -174 -328 -174q-153 0 -235 82t-82 204zM143 266q0 -106 73.5 -167.5t193.5 -61.5 q136 0 226.5 82.5t90.5 228.5v205q-311 -8 -447.5 -71.5t-136.5 -205.5v-10zM209 1126l215 287h47l215 -287h-70l-170 226l-167 -226h-70z" />
<glyph unicode="&#xe3;" d="M82 266v10q0 168 151.5 247.5t493.5 86.5v119q0 65 -17.5 113t-44 75t-65 43.5t-73 21.5t-76.5 5q-138 0 -314 -80l-20 58q70 33 161 56t173 23q337 0 337 -313v-731h-61v154q-99 -174 -328 -174q-153 0 -235 82t-82 204zM143 266q0 -106 73.5 -167.5t193.5 -61.5 q136 0 226.5 82.5t90.5 228.5v205q-311 -8 -447.5 -71.5t-136.5 -205.5v-10zM156 1143q0 88 35.5 128t84.5 40q51 0 113.5 -25.5t118 -51.5t88.5 -26q36 0 55 20.5t19 82.5h61q0 -88 -35.5 -126t-85.5 -38q-51 0 -112.5 25.5t-116.5 51t-88 25.5q-36 0 -56 -22t-20 -84h-61z " />
<glyph unicode="&#xe4;" d="M82 266v10q0 168 151.5 247.5t493.5 86.5v119q0 65 -17.5 113t-44 75t-65 43.5t-73 21.5t-76.5 5q-138 0 -314 -80l-20 58q70 33 161 56t173 23q337 0 337 -313v-731h-61v154q-99 -174 -328 -174q-153 0 -235 82t-82 204zM143 266q0 -106 73.5 -167.5t193.5 -61.5 q136 0 226.5 82.5t90.5 228.5v205q-311 -8 -447.5 -71.5t-136.5 -205.5v-10zM201 1184v252h61v-252h-61zM631 1184v252h61v-252h-61z" />
<glyph unicode="&#xe5;" d="M82 266v10q0 168 151.5 247.5t493.5 86.5v119q0 65 -17.5 113t-44 75t-65 43.5t-73 21.5t-76.5 5q-138 0 -314 -80l-20 58q70 33 161 56t173 23q337 0 337 -313v-731h-61v154q-99 -174 -328 -174q-153 0 -235 82t-82 204zM143 266q0 -106 73.5 -167.5t193.5 -61.5 q136 0 226.5 82.5t90.5 228.5v205q-311 -8 -447.5 -71.5t-136.5 -205.5v-10zM240 1294q0 88 54 141.5t152 53.5q99 0 154 -53.5t55 -141.5q0 -87 -55 -140.5t-154 -53.5q-97 0 -151.5 53.5t-54.5 140.5zM301 1294q0 -59 36.5 -96t108.5 -37q73 0 110.5 37t37.5 96 q0 60 -37.5 96.5t-110.5 36.5q-72 0 -108.5 -36.5t-36.5 -96.5z" />
<glyph unicode="&#xe6;" horiz-adv-x="1546" d="M82 266v10q0 154 152.5 230.5t492.5 83.5v139q0 65 -17.5 113t-44 75t-65 43.5t-73 21.5t-76.5 5q-138 0 -314 -80l-20 58q70 33 161 56t173 23q255 0 317 -178q32 64 87 105.5t110.5 57t115.5 15.5q49 0 96 -10.5t94.5 -37.5t83 -68.5t57.5 -108.5t22 -153 q0 -44 -11 -134h-635v-167q0 -75 19 -133.5t49 -94.5t71 -59t81 -32t82 -9q163 0 331 88l13 -55q-180 -90 -355 -90q-43 0 -87 10t-92 33t-87.5 69t-60.5 109q-35 -98 -134.5 -159.5t-218.5 -61.5q-153 0 -235 82t-82 204zM143 266q0 -106 73.5 -167.5t193.5 -61.5 q136 0 226.5 82.5t90.5 228.5v184q-309 -7 -446.5 -67.5t-137.5 -188.5v-10zM788 590h580q4 31 4 76q0 85 -24.5 149t-67 100.5t-92.5 54t-107 17.5t-107.5 -17.5t-93 -54t-67.5 -100.5t-25 -149v-76z" />
<glyph unicode="&#xe7;" horiz-adv-x="839" d="M113 358v308q0 89 24 158.5t59.5 109.5t83.5 66t90.5 35t84.5 9q170 0 323 -92l-22 -53q-149 88 -291 88q-54 0 -101.5 -15.5t-92 -50t-71 -102t-26.5 -160.5v-294q0 -93 26.5 -160.5t71 -102t92 -50t101.5 -15.5q142 0 291 88l22 -53q-54 -34 -137 -62.5t-178 -29.5v-80 h33q95 0 153 -41t58 -125v-10q0 -85 -57.5 -130t-162.5 -45q-85 0 -159 33l10 58q72 -29 154 -29q153 0 153 113v8q0 54 -38 80t-124 26h-82v146q-41 6 -78.5 19.5t-76.5 42.5t-67.5 69t-47 102.5t-18.5 140.5z" />
<glyph unicode="&#xe8;" d="M113 358v308q0 106 33 183.5t87.5 118t112.5 58.5t121 18q49 0 96 -10.5t94.5 -37.5t82.5 -68.5t57 -108.5t22 -153q0 -72 -10 -154h-635v-147q0 -75 19 -133.5t49 -94.5t71 -59t80.5 -32t81.5 -9q164 0 332 88l12 -55q-180 -90 -354 -90q-43 0 -86 9t-92.5 35t-86.5 66 t-62 109.5t-25 158.5zM174 569h580q4 33 4 97q0 85 -24.5 149t-67 100.5t-92.5 54t-107 17.5t-107.5 -17.5t-93 -54t-67.5 -100.5t-25 -149v-97zM233 1413h72l209 -287h-61z" />
<glyph unicode="&#xe9;" d="M113 358v308q0 106 33 183.5t87.5 118t112.5 58.5t121 18q49 0 96 -10.5t94.5 -37.5t82.5 -68.5t57 -108.5t22 -153q0 -72 -10 -154h-635v-147q0 -75 19 -133.5t49 -94.5t71 -59t80.5 -32t81.5 -9q164 0 332 88l12 -55q-180 -90 -354 -90q-43 0 -86 9t-92.5 35t-86.5 66 t-62 109.5t-25 158.5zM174 569h580q4 33 4 97q0 85 -24.5 149t-67 100.5t-92.5 54t-107 17.5t-107.5 -17.5t-93 -54t-67.5 -100.5t-25 -149v-97zM446 1126l209 287h72l-219 -287h-62z" />
<glyph unicode="&#xea;" d="M113 358v308q0 106 33 183.5t87.5 118t112.5 58.5t121 18q49 0 96 -10.5t94.5 -37.5t82.5 -68.5t57 -108.5t22 -153q0 -72 -10 -154h-635v-147q0 -75 19 -133.5t49 -94.5t71 -59t80.5 -32t81.5 -9q164 0 332 88l12 -55q-180 -90 -354 -90q-43 0 -86 9t-92.5 35t-86.5 66 t-62 109.5t-25 158.5zM174 569h580q4 33 4 97q0 85 -24.5 149t-67 100.5t-92.5 54t-107 17.5t-107.5 -17.5t-93 -54t-67.5 -100.5t-25 -149v-97zM233 1126l216 287h47l215 -287h-70l-170 226l-168 -226h-70z" />
<glyph unicode="&#xeb;" d="M113 358v308q0 106 33 183.5t87.5 118t112.5 58.5t121 18q49 0 96 -10.5t94.5 -37.5t82.5 -68.5t57 -108.5t22 -153q0 -72 -10 -154h-635v-147q0 -75 19 -133.5t49 -94.5t71 -59t80.5 -32t81.5 -9q164 0 332 88l12 -55q-180 -90 -354 -90q-43 0 -86 9t-92.5 35t-86.5 66 t-62 109.5t-25 158.5zM174 569h580q4 33 4 97q0 85 -24.5 149t-67 100.5t-92.5 54t-107 17.5t-107.5 -17.5t-93 -54t-67.5 -100.5t-25 -149v-97zM225 1184v252h62v-252h-62zM655 1184v252h62v-252h-62z" />
<glyph unicode="&#xec;" horiz-adv-x="354" d="M-61 1413h71l209 -287h-61zM145 0v1024h62v-1024h-62z" />
<glyph unicode="&#xed;" horiz-adv-x="354" d="M145 0v1024h62v-1024h-62zM152 1126l208 287h72l-219 -287h-61z" />
<glyph unicode="&#xee;" horiz-adv-x="354" d="M-61 1126l215 287h47l215 -287h-70l-170 226l-168 -226h-69zM145 0v1024h62v-1024h-62z" />
<glyph unicode="&#xef;" horiz-adv-x="354" d="M-70 1184v252h62v-252h-62zM145 0v1024h62v-1024h-62zM360 1184v252h62v-252h-62z" />
<glyph unicode="&#xf0;" d="M113 358v52q0 106 33 183.5t87.5 118t112.5 58.5t121 18h291v267q0 152 -72.5 230.5t-183.5 88.5v-182h-62v184h-256v58h256v204h62v-206q47 -4 89.5 -17.5t85 -42t73.5 -69.5t50 -105t19 -143v-697q0 -86 -22 -153t-57 -108.5t-82.5 -68.5t-94.5 -37.5t-96 -10.5 q-63 0 -121 18t-112.5 58.5t-87.5 118t-33 183.5zM174 358q0 -85 25 -149t67.5 -100.5t93 -54t107.5 -17.5t107 17.5t92.5 54t67 100.5t24.5 149v373h-291q-57 0 -107.5 -17.5t-93 -54t-67.5 -100.5t-25 -149v-52z" />
<glyph unicode="&#xf1;" horiz-adv-x="993" d="M143 0v1024h62v-174q45 99 128.5 146.5t188.5 47.5q108 0 184 -52t110 -131t34 -175v-686h-62v686q0 134 -72.5 217.5t-209.5 83.5q-134 0 -217.5 -99.5t-83.5 -260.5v-627h-62zM217 1143q0 88 36 128t85 40q51 0 113 -25.5t117.5 -51.5t88.5 -26q36 0 55 20.5t19 82.5 h62q0 -88 -35.5 -126t-85.5 -38q-51 0 -113 25.5t-117 51t-88 25.5q-36 0 -55.5 -22t-19.5 -84h-62z" />
<glyph unicode="&#xf2;" d="M113 358v308q0 106 33 183.5t87.5 118t112.5 58.5t121 18q49 0 96 -10.5t94.5 -37.5t82.5 -68.5t57 -108.5t22 -153v-308q0 -86 -22 -153t-57 -108.5t-82.5 -68.5t-94.5 -37.5t-96 -10.5q-63 0 -121 18t-112.5 58.5t-87.5 118t-33 183.5zM174 358q0 -85 25 -149 t67.5 -100.5t93 -54t107.5 -17.5t107 17.5t92.5 54t67 100.5t24.5 149v308q0 85 -24.5 149t-67 100.5t-92.5 54t-107 17.5t-107.5 -17.5t-93 -54t-67.5 -100.5t-25 -149v-308zM223 1413h72l209 -287h-62z" />
<glyph unicode="&#xf3;" d="M113 358v308q0 106 33 183.5t87.5 118t112.5 58.5t121 18q49 0 96 -10.5t94.5 -37.5t82.5 -68.5t57 -108.5t22 -153v-308q0 -86 -22 -153t-57 -108.5t-82.5 -68.5t-94.5 -37.5t-96 -10.5q-63 0 -121 18t-112.5 58.5t-87.5 118t-33 183.5zM174 358q0 -85 25 -149 t67.5 -100.5t93 -54t107.5 -17.5t107 17.5t92.5 54t67 100.5t24.5 149v308q0 85 -24.5 149t-67 100.5t-92.5 54t-107 17.5t-107.5 -17.5t-93 -54t-67.5 -100.5t-25 -149v-308zM436 1126l209 287h72l-219 -287h-62z" />
<glyph unicode="&#xf4;" d="M113 358v308q0 106 33 183.5t87.5 118t112.5 58.5t121 18q49 0 96 -10.5t94.5 -37.5t82.5 -68.5t57 -108.5t22 -153v-308q0 -86 -22 -153t-57 -108.5t-82.5 -68.5t-94.5 -37.5t-96 -10.5q-63 0 -121 18t-112.5 58.5t-87.5 118t-33 183.5zM174 358q0 -85 25 -149 t67.5 -100.5t93 -54t107.5 -17.5t107 17.5t92.5 54t67 100.5t24.5 149v308q0 85 -24.5 149t-67 100.5t-92.5 54t-107 17.5t-107.5 -17.5t-93 -54t-67.5 -100.5t-25 -149v-308zM223 1126l215 287h47l215 -287h-69l-170 226l-168 -226h-70z" />
<glyph unicode="&#xf5;" d="M113 358v308q0 106 33 183.5t87.5 118t112.5 58.5t121 18q49 0 96 -10.5t94.5 -37.5t82.5 -68.5t57 -108.5t22 -153v-308q0 -86 -22 -153t-57 -108.5t-82.5 -68.5t-94.5 -37.5t-96 -10.5q-63 0 -121 18t-112.5 58.5t-87.5 118t-33 183.5zM170 1143q0 88 36 128t85 40 q51 0 113 -25.5t117.5 -51.5t88.5 -26q36 0 55 20.5t19 82.5h61q0 -88 -35.5 -126t-84.5 -38q-51 0 -113 25.5t-117 51t-88 25.5q-36 0 -56 -22t-20 -84h-61zM174 358q0 -85 25 -149t67.5 -100.5t93 -54t107.5 -17.5t107 17.5t92.5 54t67 100.5t24.5 149v308q0 85 -24.5 149 t-67 100.5t-92.5 54t-107 17.5t-107.5 -17.5t-93 -54t-67.5 -100.5t-25 -149v-308z" />
<glyph unicode="&#xf6;" d="M113 358v308q0 106 33 183.5t87.5 118t112.5 58.5t121 18q49 0 96 -10.5t94.5 -37.5t82.5 -68.5t57 -108.5t22 -153v-308q0 -86 -22 -153t-57 -108.5t-82.5 -68.5t-94.5 -37.5t-96 -10.5q-63 0 -121 18t-112.5 58.5t-87.5 118t-33 183.5zM174 358q0 -85 25 -149 t67.5 -100.5t93 -54t107.5 -17.5t107 17.5t92.5 54t67 100.5t24.5 149v308q0 85 -24.5 149t-67 100.5t-92.5 54t-107 17.5t-107.5 -17.5t-93 -54t-67.5 -100.5t-25 -149v-308zM215 1184v252h61v-252h-61zM645 1184v252h62v-252h-62z" />
<glyph unicode="&#xf7;" horiz-adv-x="995" d="M143 700v54h707v-54h-707zM469 406v161h57v-161h-57zM469 887v162h57v-162h-57z" />
<glyph unicode="&#xf8;" d="M113 -41l80 137q-80 100 -80 262v308q0 106 33 183.5t87.5 118t112.5 58.5t121 18q141 0 235 -79l58 100h61l-82 -139q80 -93 80 -260v-308q0 -86 -22 -153t-57 -108.5t-82.5 -68.5t-94.5 -37.5t-96 -10.5q-141 0 -236 77l-57 -98h-61zM174 358q0 -123 53 -202l443 755 q-79 76 -203 76q-57 0 -107.5 -17.5t-93 -54t-67.5 -100.5t-25 -149v-308zM264 113q79 -76 203 -76q57 0 107 17.5t92.5 54t67 100.5t24.5 149v308q0 126 -51 202z" />
<glyph unicode="&#xf9;" horiz-adv-x="993" d="M143 338v686h62v-686q0 -134 72.5 -217.5t209.5 -83.5q134 0 217.5 99.5t83.5 260.5v627h62v-1024h-62v174q-45 -99 -128.5 -146.5t-188.5 -47.5q-108 0 -184 52t-110 131t-34 175zM260 1413h72l209 -287h-62z" />
<glyph unicode="&#xfa;" horiz-adv-x="993" d="M143 338v686h62v-686q0 -134 72.5 -217.5t209.5 -83.5q134 0 217.5 99.5t83.5 260.5v627h62v-1024h-62v174q-45 -99 -128.5 -146.5t-188.5 -47.5q-108 0 -184 52t-110 131t-34 175zM473 1126l209 287h72l-219 -287h-62z" />
<glyph unicode="&#xfb;" horiz-adv-x="993" d="M143 338v686h62v-686q0 -134 72.5 -217.5t209.5 -83.5q134 0 217.5 99.5t83.5 260.5v627h62v-1024h-62v174q-45 -99 -128.5 -146.5t-188.5 -47.5q-108 0 -184 52t-110 131t-34 175zM260 1126l215 287h47l215 -287h-69l-170 226l-168 -226h-70z" />
<glyph unicode="&#xfc;" horiz-adv-x="993" d="M143 338v686h62v-686q0 -134 72.5 -217.5t209.5 -83.5q134 0 217.5 99.5t83.5 260.5v627h62v-1024h-62v174q-45 -99 -128.5 -146.5t-188.5 -47.5q-108 0 -184 52t-110 131t-34 175zM252 1184v252h61v-252h-61zM682 1184v252h61v-252h-61z" />
<glyph unicode="&#xfd;" horiz-adv-x="882" d="M10 -410l6 52q80 -21 129 -21q82 0 130 50.5t94 183.5l43 125l-365 1044h64l333 -952l330 952h62l-410 -1167q-31 -90 -63.5 -148.5t-68 -88t-69 -40t-78.5 -10.5q-53 0 -137 20zM416 1126l209 287h71l-219 -287h-61z" />
<glyph unicode="&#xfe;" horiz-adv-x="962" d="M143 -410v1844l62 20v-594q91 184 307 184q156 0 247 -103t91 -255v-348q0 -152 -91 -255t-247 -103q-216 0 -307 184v-574h-62zM205 397q0 -162 79 -261t212 -99q138 0 215 84.5t77 216.5v348q0 132 -77 216.5t-215 84.5q-133 0 -212 -99t-79 -261v-230z" />
<glyph unicode="&#xff;" horiz-adv-x="882" d="M10 -410l6 52q80 -21 129 -21q82 0 130 50.5t94 183.5l43 125l-365 1044h64l333 -952l330 952h62l-410 -1167q-31 -90 -63.5 -148.5t-68 -88t-69 -40t-78.5 -10.5q-53 0 -137 20zM195 1184v252h61v-252h-61zM625 1184v252h61v-252h-61z" />
<glyph unicode="&#x152;" horiz-adv-x="1822" d="M143 420v594q0 114 35 201t96 138t136.5 76t162.5 25q120 0 217 -47t152 -143v170h809v-62h-747v-614h671v-62h-671v-635h747v-61h-809v170q-55 -96 -152 -143t-217 -47q-87 0 -162.5 25t-136.5 76t-96 138t-35 201zM205 420q0 -102 28 -176.5t79.5 -118t116 -64 t144.5 -20.5t144.5 20.5t116 64t80 118.5t28.5 176v594q0 101 -28.5 176t-80 118.5t-116 64t-144.5 20.5t-144.5 -20.5t-116 -64t-79.5 -118t-28 -176.5v-594z" />
<glyph unicode="&#x153;" horiz-adv-x="1576" d="M113 358v308q0 106 33 183.5t87.5 118t112.5 58.5t121 18q47 0 91.5 -10t89 -32t81.5 -62.5t59 -95.5q29 73 85.5 119.5t115.5 63.5t123 17q49 0 96 -10.5t94.5 -37.5t82.5 -68.5t57 -108.5t22 -153q0 -72 -10 -154h-635v-147q0 -75 19 -133.5t49 -94.5t71 -59t80.5 -32 t81.5 -9q164 0 332 88l12 -55q-180 -90 -354 -90q-41 0 -83 9.5t-88.5 30.5t-86.5 62.5t-64 99.5q-29 -74 -85 -121t-114 -64t-122 -17q-63 0 -121 18t-112.5 58.5t-87.5 118t-33 183.5zM174 358q0 -85 25 -149t67.5 -100.5t93 -54t107.5 -17.5t107 17.5t92.5 54t67 100.5 t24.5 149v308q0 85 -24.5 149t-67 100.5t-92.5 54t-107 17.5t-107.5 -17.5t-93 -54t-67.5 -100.5t-25 -149v-308zM819 569h580q4 33 4 97q0 85 -24.5 149t-67 100.5t-92.5 54t-107 17.5t-107.5 -17.5t-93 -54t-67.5 -100.5t-25 -149v-97z" />
<glyph unicode="&#x178;" horiz-adv-x="1075" d="M20 1434h68l449 -813l450 813h68l-490 -875v-559h-61v559zM291 1593v252h61v-252h-61zM721 1593v252h61v-252h-61z" />
<glyph unicode="&#x2c6;" horiz-adv-x="972" d="M248 1126l215 287h47l215 -287h-70l-170 226l-168 -226h-69z" />
<glyph unicode="&#x2dc;" horiz-adv-x="663" d="M137 1143q0 88 36 128t85 40q51 0 113.5 -25.5t118 -51.5t88.5 -26q36 0 54.5 20.5t18.5 82.5h62q0 -88 -35.5 -126t-85.5 -38q-51 0 -113 25.5t-117 51t-88 25.5q-36 0 -55.5 -22t-19.5 -84h-62z" />
<glyph unicode="&#x2000;" horiz-adv-x="949" />
<glyph unicode="&#x2001;" horiz-adv-x="1898" />
<glyph unicode="&#x2002;" horiz-adv-x="949" />
<glyph unicode="&#x2003;" horiz-adv-x="1898" />
<glyph unicode="&#x2004;" horiz-adv-x="632" />
<glyph unicode="&#x2005;" horiz-adv-x="474" />
<glyph unicode="&#x2006;" horiz-adv-x="316" />
<glyph unicode="&#x2007;" horiz-adv-x="316" />
<glyph unicode="&#x2008;" horiz-adv-x="237" />
<glyph unicode="&#x2009;" horiz-adv-x="379" />
<glyph unicode="&#x200a;" horiz-adv-x="105" />
<glyph unicode="&#x2010;" horiz-adv-x="909" d="M106 485v54h697v-54h-697z" />
<glyph unicode="&#x2011;" horiz-adv-x="909" d="M106 485v54h697v-54h-697z" />
<glyph unicode="&#x2012;" horiz-adv-x="909" d="M106 485v54h697v-54h-697z" />
<glyph unicode="&#x2013;" horiz-adv-x="1216" d="M106 485v54h1004v-54h-1004z" />
<glyph unicode="&#x2014;" horiz-adv-x="1421" d="M106 485v54h1209v-54h-1209z" />
<glyph unicode="&#x2018;" horiz-adv-x="339" d="M143 999v435h43l15 -271v-164h-58z" />
<glyph unicode="&#x2019;" horiz-adv-x="339" d="M139 1272v162h58v-435h-43z" />
<glyph unicode="&#x201a;" horiz-adv-x="344" d="M143 0v162h58v-432h-43z" />
<glyph unicode="&#x201c;" horiz-adv-x="745" d="M143 999v435h43l15 -271v-164h-58zM549 999v435h43l14 -271v-164h-57z" />
<glyph unicode="&#x201d;" horiz-adv-x="745" d="M139 1272v162h58v-435h-43zM545 1272v162h57v-435h-43z" />
<glyph unicode="&#x201e;" horiz-adv-x="749" d="M143 0v162h58v-432h-43zM551 0v162h57v-432h-43z" />
<glyph unicode="&#x2022;" horiz-adv-x="358" d="M147 653v168h62v-168h-62z" />
<glyph unicode="&#x2026;" horiz-adv-x="1157" d="M143 0v162h58v-162h-58zM551 0v162h57v-162h-57zM956 0v162h58v-162h-58z" />
<glyph unicode="&#x202f;" horiz-adv-x="379" />
<glyph unicode="&#x2039;" horiz-adv-x="684" d="M68 485v50l499 407v-68l-440 -362v-4l440 -358v-68z" />
<glyph unicode="&#x203a;" horiz-adv-x="684" d="M117 82v68l440 358v4l-440 362v68l499 -407v-50z" />
<glyph unicode="&#x205f;" horiz-adv-x="474" />
<glyph unicode="&#x20ac;" horiz-adv-x="1198" d="M82 573v62h123v184h-123v62h123v133q0 114 35 201t96 138t136.5 76t162.5 25t162.5 -25t136.5 -76t96 -138t35 -201l-61 -21v21q0 101 -28.5 176t-80 118.5t-116 64t-144.5 20.5t-144.5 -20.5t-116 -64t-80 -118.5t-28.5 -176v-133h334l-20 -62h-314v-184h334l-20 -62 h-314v-153q0 -101 28.5 -176t80 -118.5t116 -64t144.5 -20.5t144.5 20.5t116 64t80 118.5t28.5 176v20h61v-20q0 -114 -35 -201t-96 -138t-136.5 -76t-162.5 -25t-162.5 25t-136.5 76t-96 138t-35 201v153h-123z" />
<glyph unicode="&#x2122;" horiz-adv-x="1497" d="M100 1395v39h484v-39h-213v-822h-45v822h-226zM721 573v861h49l262 -455l262 455h45v-861h-45v560q0 47 0.5 76t1.5 69.5t2 87.5l-249 -438h-37l-252 440q1 -61 3.5 -120t2.5 -115v-560h-45z" />
<glyph unicode="&#x25fc;" horiz-adv-x="1024" d="M0 0v1024h1024v-1024h-1024z" />
</font>
</defs>
</svg>
