<?xml version="1.0" standalone="no"?>
<!DOCTYPE svg PUBLIC "-//W3C//DTD SVG 1.1//EN" "http://www.w3.org/Graphics/SVG/1.1/DTD/svg11.dtd" >
<svg xmlns="http://www.w3.org/2000/svg">
<metadata></metadata>
<defs>
<font id="argosultralight_italic" horiz-adv-x="931" >
<font-face units-per-em="2048" ascent="1536" descent="-512" />
<missing-glyph horiz-adv-x="409" />
<glyph unicode="&#xfb01;" d="M154 967l6 57h151l21 193q8 73 29 125.5t46.5 81.5t62 45.5t66.5 21t68 4.5q83 0 164 -31l-16 -55q-78 29 -158 29q-95 0 -141.5 -51t-59.5 -175l-20 -188h278l-26 -57h-258l-101 -967h-61l100 967h-151zM727 0l109 1024h61l-109 -1024h-61zM852 1188l27 246h61l-27 -246 h-61z" />
<glyph unicode="&#xfb02;" d="M154 967l6 57h151l21 193q8 73 29 125.5t46.5 81.5t62 45.5t66.5 21t68 4.5q83 0 164 -31l-16 -55q-78 29 -158 29q-95 0 -141.5 -51t-59.5 -175l-20 -188h278l-26 -57h-258l-101 -967h-61l100 967h-151zM727 0l152 1434l63 20l-154 -1454h-61z" />
<glyph horiz-adv-x="0" />
<glyph horiz-adv-x="682" />
<glyph unicode=" "  horiz-adv-x="409" />
<glyph unicode="&#x09;" horiz-adv-x="409" />
<glyph unicode="&#xa0;" horiz-adv-x="409" />
<glyph unicode="!" horiz-adv-x="409" d="M176 0l17 162h57l-17 -162h-57zM211 322l115 1112h61l-119 -1112h-57z" />
<glyph unicode="&#x22;" horiz-adv-x="743" d="M254 999l20 273l19 162h57l-18 -162l-37 -273h-41zM659 999l21 273l18 162h58l-19 -162l-37 -273h-41z" />
<glyph unicode="#" horiz-adv-x="1239" d="M139 451l6 61h267l45 410h-269l7 61h268l47 451h61l-47 -451h400l47 451h61l-47 -451h264l-6 -61h-264l-45 -410h266l-6 -61h-266l-47 -451h-62l47 451h-399l-47 -451h-62l48 451h-267zM473 512h399l43 410h-399z" />
<glyph unicode="$" horiz-adv-x="1071" d="M158 420l2 20h61l-2 -20q-11 -101 10.5 -176.5t70.5 -118.5t113 -63.5t144 -20.5q164 0 270 81t121 226q8 76 -12.5 133t-62 93t-97 63.5t-117.5 48.5t-124.5 43t-117.5 52.5t-95.5 71t-60.5 105t-11 148.5q18 160 137.5 250t288.5 98l18 184h62l-19 -184q81 -5 145 -33 t111 -79.5t67 -135t9 -192.5l-63 -21l2 21q11 102 -7.5 176.5t-62 118t-104 64t-140.5 20.5q-161 0 -265 -72.5t-118 -214.5q-8 -75 13 -132t62.5 -93t96.5 -63.5t117.5 -49t124.5 -43.5t117 -53t95.5 -71.5t60.5 -105t12 -147.5q-17 -163 -136 -261t-292 -107l-21 -185h-61 l20 185q-83 5 -151.5 32.5t-121.5 78.5t-77 135.5t-12 193.5z" />
<glyph unicode="%" horiz-adv-x="1576" d="M262 932l27 266q7 67 35 118.5t69.5 80.5t86.5 43t93 14t90 -14t76.5 -43t51.5 -80.5t10 -118.5l-27 -266q-7 -67 -35 -118.5t-68.5 -80.5t-85.5 -43t-93 -14t-90 14t-77.5 43t-52.5 80.5t-10 118.5zM324 932q-11 -101 38.5 -148t135.5 -47q85 0 144.5 47t70.5 148 l26 266q11 101 -38.5 148t-135.5 47q-85 0 -144.5 -47t-70.5 -148zM424 0l807 1434h69l-806 -1434h-70zM926 236l28 266q6 67 34 118.5t69 80.5t86.5 43t93.5 14q104 0 172.5 -63t56.5 -193l-28 -266q-9 -89 -55.5 -149t-104.5 -83.5t-123 -23.5q-48 0 -90 14t-77 43 t-52 80.5t-10 118.5zM987 236q-10 -101 39.5 -148t134.5 -47q86 0 145.5 47t69.5 148l29 266q10 101 -39 147.5t-135 46.5t-145.5 -47t-69.5 -147z" />
<glyph unicode="&#x26;" horiz-adv-x="1290" d="M158 338q30 254 344 407q-87 99 -133.5 187t-36.5 184q12 115 71.5 192.5t145 111.5t192.5 34q104 0 183 -34t122.5 -107t32.5 -176q-8 -77 -46.5 -140t-105 -111.5t-144 -84.5t-181.5 -70l383 -432q79 136 131 336h66q-66 -226 -160 -377l190 -215l-47 -43l-180 203 q-172 -223 -440 -223q-82 0 -154 22t-128.5 65t-85 113t-19.5 158zM219 338q-10 -97 34.5 -165.5t121 -100t176.5 -31.5q52 0 97 7.5t98 27.5t105 62.5t97 105.5l-409 461q-139 -64 -222.5 -152t-97.5 -215zM393 1118q-8 -87 36 -165.5t136 -180.5q106 34 179 66.5t136 75.5 t97 98.5t41 124.5q13 121 -66 188.5t-219 67.5q-145 0 -235 -69t-105 -206z" />
<glyph unicode="'" horiz-adv-x="337" d="M254 999l20 273l19 162h57l-18 -162l-37 -273h-41z" />
<glyph unicode="(" horiz-adv-x="542" d="M178 717q26 256 143 531.5t291 492.5h62q-380 -516 -434 -1024q-54 -503 219 -1024h-62q-129 217 -188 492t-31 532z" />
<glyph unicode=")" horiz-adv-x="542" d="M18 -307q383 521 437 1024q53 498 -222 1024h62q130 -215 188.5 -490.5t32.5 -533.5q-28 -257 -145 -532.5t-291 -491.5h-62z" />
<glyph unicode="*" horiz-adv-x="667" d="M223 1096l205 106l-182 107l24 34l174 -110l21 217h39l-27 -217l201 110l18 -34l-204 -107l182 -106l-25 -33l-178 113l-18 -220h-39l24 220l-196 -113z" />
<glyph unicode="+" horiz-adv-x="907" d="M174 700l6 56h328l33 323h53l-33 -323h326l-6 -56h-326l-35 -325h-53l35 325h-328z" />
<glyph unicode="," horiz-adv-x="344" d="M49 -270l94 270l17 162h57l-16 -162l-103 -270h-49z" />
<glyph unicode="-" horiz-adv-x="909" d="M158 485l6 54h696l-6 -54h-696z" />
<glyph unicode="." horiz-adv-x="344" d="M143 0l17 162h57l-16 -162h-58z" />
<glyph unicode="/" horiz-adv-x="913" d="M49 0l909 1434h62l-909 -1434h-62z" />
<glyph unicode="0" horiz-adv-x="1146" d="M188 420l62 594q12 114 56.5 201t111 138t144.5 76t165 25t159.5 -25t128 -76t81.5 -138t14 -201l-61 -594q-13 -114 -57.5 -201t-111 -138t-144.5 -76t-165 -25t-160 25t-128.5 76t-81.5 138t-13 201zM250 420q-11 -101 9 -176t67 -118.5t109.5 -64t142.5 -20.5 t146.5 20.5t122.5 64t92.5 118t47.5 176.5l62 594q11 101 -10 176t-68 118.5t-109.5 64t-142.5 20.5q-167 0 -277 -91t-131 -288z" />
<glyph unicode="1" horiz-adv-x="675" d="M170 1229l350 205h62l-152 -1434h-61l145 1366l-319 -188z" />
<glyph unicode="2" horiz-adv-x="1075" d="M102 0l9 72q8 73 42.5 140t86.5 121.5t118 105.5t138 96.5l144 91t137.5 94t117.5 98.5t86 111t41 127q18 172 -70 254t-254 82q-80 0 -146.5 -20.5t-122.5 -64t-91.5 -118t-46.5 -176.5l-2 -21h-62l2 21q12 114 56.5 201t111 138t145 76t165.5 25q88 0 159.5 -23.5 t124.5 -70.5t78 -125t14 -180q-10 -91 -63 -174t-131 -147t-170.5 -125t-185 -120.5t-170 -120t-130 -136.5t-61.5 -158l-2 -13h809l-6 -61h-871z" />
<glyph unicode="3" horiz-adv-x="1095" d="M158 420l2 20h61l-2 -20q-11 -102 9 -176.5t68 -118t112.5 -64t148.5 -20.5q160 0 273 82t128 225q11 100 -9 169.5t-68 107.5t-109.5 54.5t-144.5 16.5h-113l6 62h113q94 0 176 35t138.5 106t66.5 166q35 328 -316 328q-76 0 -140.5 -20.5t-119.5 -64t-90.5 -118.5 t-46.5 -176l-2 -21l-59 21q10 92 41 166.5t75.5 124.5t102.5 84.5t120 49.5t128 15q85 0 154 -21t122.5 -65t78 -121.5t13.5 -181.5q-11 -116 -84 -202t-180 -130q243 -80 209 -385q-12 -112 -82 -197.5t-171.5 -128t-215.5 -42.5q-91 0 -166 25t-131.5 76t-82.5 138 t-13 201z" />
<glyph unicode="4" horiz-adv-x="1116" d="M94 410l6 61l820 963h61l-102 -963h215l-27 -61h-195l-43 -410h-61l43 410h-717zM172 471h645l92 862z" />
<glyph unicode="5" horiz-adv-x="1085" d="M158 420l2 20h61l-2 -20q-11 -101 9 -176t67 -118.5t109.5 -64t142.5 -20.5q84 0 152.5 20.5t125.5 64t94 118t48 176.5l4 41q11 101 -10 176t-68 118.5t-109.5 64t-142.5 20.5q-104 0 -194 -34.5t-156 -88.5l-60 20l74 697h768l-29 -62h-686l-61 -584q167 113 350 113 q69 0 129.5 -15t112.5 -49t87 -84.5t50.5 -125t5.5 -166.5l-4 -41q-13 -114 -57.5 -201t-111.5 -138t-147 -76t-171 -25q-87 0 -160 25t-128.5 76t-81.5 138t-13 201z" />
<glyph unicode="6" horiz-adv-x="1116" d="M182 379l68 635q12 114 56.5 201t111 138t144.5 76t165 25t159.5 -25t128 -76t81.5 -138t14 -201l-63 -21l2 21q11 101 -10 176t-68 118.5t-109.5 64t-142.5 20.5q-167 0 -277 -91t-131 -288l-37 -365q62 83 165 126.5t220 43.5q87 0 160 -23t129.5 -69t83.5 -125 t17 -182l-7 -41q-31 -201 -160 -300t-311 -99q-86 0 -160 25.5t-129.5 74t-83 126t-16.5 173.5zM244 379q-18 -163 77 -250.5t257 -87.5q79 0 144.5 18.5t119.5 58t89.5 105.5t49.5 156l6 41q9 90 -12.5 157t-68.5 105.5t-110 57t-143 18.5q-79 0 -145.5 -18.5t-122.5 -58 t-91.5 -106.5t-45.5 -157z" />
<glyph unicode="7" horiz-adv-x="948" d="M205 1372l28 62h824l-8 -62q-643 -673 -717 -1372h-66q37 356 230 716t489 656h-780z" />
<glyph unicode="8" horiz-adv-x="1095" d="M160 358l4 41q13 109 87 200t200 132q-99 40 -153.5 124t-43.5 200l4 41q8 69 42 133t89.5 114.5t138.5 80.5t179 30q78 0 148 -23.5t123 -67.5t80.5 -113.5t18.5 -153.5l-4 -41q-11 -117 -83.5 -201t-180.5 -125q108 -39 168 -124t47 -206l-4 -41q-12 -117 -82.5 -205 t-171 -130.5t-215.5 -42.5q-85 0 -159.5 25t-129.5 72t-83 119.5t-19 161.5zM221 358q-19 -149 78 -233t258 -84q174 0 283 88.5t123 269.5q12 143 -82 220t-254 77q-361 0 -406 -338zM315 1055q-14 -141 78.5 -219t239.5 -78q160 0 262.5 82.5t120.5 255.5 q14 141 -78.5 219t-239.5 78q-160 0 -262.5 -82.5t-120.5 -255.5z" />
<glyph unicode="9" horiz-adv-x="1116" d="M158 420l2 20h61l-2 -20q-11 -101 9 -176t67 -118.5t109.5 -64t142.5 -20.5t146.5 20.5t122.5 64t92.5 118t47.5 176.5l37 364q-62 -83 -165 -126.5t-220 -43.5q-87 0 -160.5 23t-129.5 69.5t-83 125.5t-16 182l4 41q14 127 85.5 219.5t171.5 136t216 43.5 q68 0 129.5 -16t112.5 -49t86 -79.5t51 -112t8 -142.5l-65 -635q-10 -92 -41.5 -166.5t-76.5 -125t-104 -84.5t-122.5 -49t-132.5 -15q-87 0 -160 25t-128.5 76t-81.5 138t-13 201zM281 1028q-8 -77 4.5 -137t41 -100t73.5 -66t97.5 -37.5t116.5 -11.5q87 0 153.5 18.5 t121 61t88.5 117.5t45 182q18 163 -77 250.5t-257 87.5q-172 0 -279.5 -91.5t-127.5 -273.5z" />
<glyph unicode=":" horiz-adv-x="352" d="M164 147l16 162h58l-17 -162h-57zM217 653l16 162h58l-17 -162h-57z" />
<glyph unicode=";" horiz-adv-x="425" d="M102 -270l95 270l16 162h57l-16 -162l-102 -270h-50zM266 653l17 162h57l-16 -162h-58z" />
<glyph unicode="&#x3c;" horiz-adv-x="778" d="M166 694l4 51l555 218l-6 -62l-467 -178v-4l430 -176l-6 -62z" />
<glyph unicode="=" horiz-adv-x="993" d="M203 563l6 53h696l-6 -53h-696zM231 829l5 54h696l-4 -54h-697z" />
<glyph unicode="&#x3e;" horiz-adv-x="778" d="M205 481l6 62l467 176v4l-430 178l6 62l510 -218l-4 -51z" />
<glyph unicode="?" horiz-adv-x="1003" d="M176 993l2 21q12 114 56.5 201t111 138t144.5 76t165 25q70 0 130 -14t112 -47t86.5 -81.5t50.5 -122t6 -165.5q-10 -97 -40 -173.5t-72.5 -127t-100 -84.5t-118.5 -49t-131 -17l-25 -251h-57l32 313h41q83 0 148.5 18.5t121.5 61.5t92 121t48 188q11 101 -10 174.5 t-69 115t-110 60.5t-143 19q-80 0 -146.5 -20.5t-122.5 -64t-91.5 -118t-46.5 -176.5l-2 -21h-62zM461 0l16 162h58l-17 -162h-57z" />
<glyph unicode="@" horiz-adv-x="1339" d="M170 260l53 496q11 103 52.5 187.5t100 139t132.5 91.5t147 53t146 16t142.5 -16t135.5 -53t113 -91.5t71 -139t13 -187.5l-35 -332q-29 -266 -309 -283h-58l11 111q-78 -125 -223 -125q-110 0 -167 72.5t-46 179.5l26 242q11 107 82 179t180 72q151 0 197 -124l33 112 h41l-68 -655q219 12 240 219l34 332q11 108 -21 192.5t-94.5 134t-140 74.5t-163.5 25t-169 -25t-156.5 -74.5t-123.5 -134t-61 -192.5l-54 -496q-11 -110 12 -193t73.5 -133t119.5 -75t154 -25l-6 -61q-92 0 -169 26.5t-138.5 82t-90.5 152.5t-16 226zM512 381 q-9 -89 35 -145t135 -56q88 0 147.5 66.5t71.5 175.5l17 156q11 108 -34.5 174.5t-133.5 66.5q-91 0 -147.5 -56t-65.5 -145z" />
<glyph unicode="A" horiz-adv-x="1105" d="M41 0l631 1444h63l330 -1444h-68l-96 430h-606l-186 -430h-68zM322 492h567l-193 862z" />
<glyph unicode="B" horiz-adv-x="1155" d="M172 0l152 1434h440q190 0 280 -84q75 -70 75 -200q0 -26 -3 -54l-6 -62q-23 -215 -205 -297q108 -29 162 -111q42 -64 42 -160q0 -27 -3 -56l-6 -62q-13 -118 -78.5 -198t-163.5 -115t-225 -35h-461zM240 61h399q367 0 399 287l6 62q3 27 3 52q-1 111 -63 166 q-76 68 -236 68h-441zM313 758h379q329 0 357 276l6 62q3 25 3 48q0 109 -60 163q-72 65 -242 65h-377z" />
<glyph unicode="C" horiz-adv-x="1116" d="M188 420l62 594q12 114 56.5 201t111 138t144.5 76t165 25t159.5 -25t128 -76t81.5 -138q18 -60 18 -132q0 -33 -4 -69l-63 -21l2 21q4 35 4 66q0 60 -14 110q-21 75 -68 118.5t-109.5 64t-142.5 20.5q-167 0 -277 -91t-131 -288l-61 -594q-4 -36 -4 -68q0 -59 13 -108 q20 -75 67 -118.5t109.5 -64t142.5 -20.5t146.5 20.5t122.5 64t92.5 118t47.5 176.5l2 20h62l-2 -20q-13 -114 -57.5 -201t-111 -138t-144.5 -76t-165 -25t-160 25t-128.5 76t-81.5 138q-17 58 -17 128q0 35 4 73z" />
<glyph unicode="D" horiz-adv-x="1187" d="M174 0l152 1434h419q70 0 132 -15.5t116.5 -50.5t92 -87t54.5 -131q11 -50 11 -107q0 -34 -4 -70l-53 -512q-11 -98 -45 -177t-82 -131t-110.5 -87t-127.5 -50.5t-135 -15.5h-420zM242 61h358q81 0 150 21t129.5 66t100.5 125t52 188l53 512q4 35 4 67q0 66 -16 120 q-23 80 -74 125t-116 66t-146 21h-358z" />
<glyph unicode="E" horiz-adv-x="1054" d="M174 0l152 1434h809l-9 -62h-745l-66 -614h672l-6 -62h-672l-67 -635h747l-6 -61h-809z" />
<glyph unicode="F" horiz-adv-x="1034" d="M174 0l152 1434h809l-9 -62h-745l-68 -645h588l-27 -61h-569l-69 -666h-62z" />
<glyph unicode="G" horiz-adv-x="1136" d="M188 420l62 594q12 114 56.5 201t111 138t144.5 76t165 25t159.5 -25t128 -76t81.5 -138q18 -60 18 -132q0 -33 -4 -69l-2 -21h-61l2 21q4 35 4 66q0 61 -14 110q-21 75 -68 118.5t-109.5 64t-142.5 20.5q-167 0 -277 -91t-131 -288l-61 -594q-4 -36 -4 -68 q0 -60 13 -108q20 -75 67 -118.5t109.5 -64t142.5 -20.5t146.5 20.5t122.5 64t92.5 118t47.5 176.5l21 213h-392l27 55h432l-26 -268q-13 -114 -57.5 -201t-111 -138t-144.5 -76t-165 -25t-160 25t-128.5 76t-81.5 138q-17 58 -17 128q0 35 4 73z" />
<glyph unicode="H" horiz-adv-x="1239" d="M174 0l152 1434h61l-72 -676h768l72 676h62l-152 -1434h-61l73 696h-768l-73 -696h-62z" />
<glyph unicode="I" horiz-adv-x="409" d="M174 0l152 1434h61l-151 -1434h-62z" />
<glyph unicode="J" horiz-adv-x="583" d="M51 0l6 57q149 0 237 87.5t109 277.5l107 1012h61l-106 -1014q-44 -420 -414 -420z" />
<glyph unicode="K" horiz-adv-x="962" d="M174 0l152 1434h61l-74 -699l711 699h76l-719 -705l582 -729h-80l-572 719l-75 -719h-62z" />
<glyph unicode="L" horiz-adv-x="1024" d="M174 0l152 1434h61l-145 -1373h747l-26 -61h-789z" />
<glyph unicode="M" horiz-adv-x="1366" d="M172 0l152 1434h67l365 -770l524 770h66l-152 -1434h-64l101 952q16 159 47 383l-506 -743h-57l-346 747q-27 -303 -35 -387l-101 -952h-61z" />
<glyph unicode="N" horiz-adv-x="1277" d="M172 0l152 1434h67l670 -1328q17 218 35 375l100 953h61l-151 -1434h-66l-673 1325q-14 -187 -33 -373l-101 -952h-61z" />
<glyph unicode="O" horiz-adv-x="1146" d="M188 420l62 594q12 114 56.5 201t111 138t144.5 76t165 25t159.5 -25t128 -76t81.5 -138q18 -60 18 -132q0 -33 -4 -69l-61 -594q-13 -114 -57.5 -201t-111 -138t-144.5 -76t-165 -25t-160 25t-128.5 76t-81.5 138q-17 58 -17 128q0 35 4 73zM250 420q-4 -36 -4 -68 q0 -59 13 -108q20 -75 67 -118.5t109.5 -64t142.5 -20.5t146.5 20.5t122.5 64t92.5 118t47.5 176.5l62 594q4 35 4 66q0 60 -14 110q-21 75 -68 118.5t-109.5 64t-142.5 20.5q-167 0 -277 -91t-131 -288z" />
<glyph unicode="P" horiz-adv-x="1095" d="M174 0l152 1434h430q69 0 129.5 -15t112 -48.5t86.5 -82.5q34 -50 50 -122q10 -46 10 -99q0 -30 -3 -63l-2 -21q-11 -110 -55.5 -195t-111 -135t-145 -75t-165.5 -25h-369l-57 -553h-62zM301 614h369q80 0 147 20.5t122.5 63t91.5 115t46 170.5l2 21q3 33 3 62 q0 143 -76 217q-92 89 -258 89h-369z" />
<glyph unicode="Q" horiz-adv-x="1146" d="M188 420l62 594q12 114 56.5 201t111 138t144.5 76t165 25t159.5 -25t128 -76t81.5 -138q18 -60 18 -132q0 -33 -4 -69l-61 -594q-18 -157 -91.5 -258t-185.5 -146l213 -200l-47 -41l-231 221q-72 -16 -136 -16q-87 0 -160 25t-128.5 76t-81.5 138q-17 58 -17 128 q0 35 4 73zM250 420q-4 -36 -4 -68q0 -60 13 -108q20 -75 67 -118.5t109.5 -64t142.5 -20.5t146.5 20.5t122.5 64t92.5 118t47.5 176.5l62 594q4 35 4 66q0 61 -14 110q-21 75 -68 118.5t-109.5 64t-142.5 20.5q-167 0 -277 -91t-131 -288z" />
<glyph unicode="R" horiz-adv-x="1146" d="M174 0l152 1434h440q192 0 292 -86q84 -73 83 -211q0 -25 -2 -52l-6 -61q-13 -128 -82 -209.5t-181 -114.5q141 -70 154 -311l20 -389h-63l-18 385q-3 57 -14 101.5t-26 75t-40.5 52t-50 33.5t-62 18.5t-69 8.5t-78.5 2h-316l-71 -676h-62zM313 737h379q173 0 267.5 68.5 t111.5 218.5l6 61q2 24 2 45q1 116 -67 174q-80 68 -254 68h-379z" />
<glyph unicode="S" horiz-adv-x="1085" d="M158 420l2 20h61l-2 -20q-4 -34 -4 -65q1 -61 15 -111q22 -76 70.5 -119t112.5 -63.5t144 -20.5q164 0 270 81t121 226q2 20 2 39q0 49 -15 91q-21 56 -62.5 92.5t-97 64.5t-118 50.5t-124.5 45.5t-117 55.5t-96 74.5q-41 41 -60 107q-13 44 -13 98q0 25 3 52 q10 84 50 149.5t102 105.5t138 60.5t162 20.5q87 0 157.5 -25t122.5 -76t76 -138q16 -58 15 -127q0 -35 -4 -74l-2 -21h-61l2 21q4 38 4 72q0 58 -12 104q-18 74 -61.5 118t-104 64.5t-140.5 20.5q-160 0 -264 -71t-119 -206q-2 -22 -2 -43q0 -51 14 -93q20 -60 61 -97 t96.5 -65.5t118 -50.5t124.5 -44t117.5 -53t96.5 -72q41 -42 61 -106q14 -46 14 -102q0 -22 -2 -46q-12 -113 -77 -197t-164 -125.5t-218 -41.5q-88 0 -162 25t-131.5 76t-85.5 138q-19 59 -18 131q0 33 4 70z" />
<glyph unicode="T" horiz-adv-x="901" d="M195 1372l8 62h798l-28 -62h-346l-146 -1372h-61l145 1372h-370z" />
<glyph unicode="U" horiz-adv-x="1187" d="M209 420l106 1014h62l-107 -1014q-4 -36 -4 -68q0 -59 13 -108q20 -75 67 -118.5t109.5 -64t142.5 -20.5t147 20.5t123 64t92.5 118t47.5 176.5l106 1014h62l-107 -1014q-10 -92 -41.5 -166.5t-76.5 -125t-104 -84.5t-122.5 -49t-132.5 -15q-87 0 -160 25t-128.5 76 t-81.5 138q-17 58 -17 128q0 35 4 73z" />
<glyph unicode="V" horiz-adv-x="1105" d="M193 1434h67l301 -1354l588 1354h68l-635 -1444h-64z" />
<glyph unicode="W" horiz-adv-x="1699" d="M203 1434h67l209 -1332l492 1332h65l207 -1336l490 1336h67l-536 -1444h-66l-209 1331l-491 -1331h-64z" />
<glyph unicode="X" horiz-adv-x="1048" d="M10 0l557 727l-395 707h72l364 -654l500 654h72l-543 -707l401 -727h-71l-371 676l-514 -676h-72z" />
<glyph unicode="Y" horiz-adv-x="1075" d="M172 1434h68l362 -813l537 813h67l-581 -875l-60 -559h-61l59 561z" />
<glyph unicode="Z" horiz-adv-x="956" d="M51 0l6 61l906 1311h-748l29 62h798l-8 -62l-905 -1311h778l-6 -61h-850z" />
<glyph unicode="[" horiz-adv-x="583" d="M131 -307l215 2048h348l-6 -62h-287l-202 -1925h286l-6 -61h-348z" />
<glyph unicode="\" horiz-adv-x="913" d="M199 1434h61l606 -1434h-61z" />
<glyph unicode="]" horiz-adv-x="583" d="M39 -307l6 61h287l203 1925h-287l6 62h348l-215 -2048h-348z" />
<glyph unicode="^" horiz-adv-x="972" d="M309 594l246 287h47l184 -287h-69l-146 225l-192 -225h-70z" />
<glyph unicode="_" horiz-adv-x="866" d="M74 -92l6 51h696l-6 -51h-696z" />
<glyph unicode="`" horiz-adv-x="757" d="M397 1413h72l178 -287h-61z" />
<glyph unicode="a" horiz-adv-x="962" d="M147 338l37 348q16 152 118.5 255t258.5 103q216 0 287 -184l18 164h62l-109 -1024h-61l16 164q-110 -184 -325 -184q-156 0 -237 103q-68 86 -68 206q0 24 3 49zM209 338q-2 -20 -2 -39q0 -107 58 -178q68 -84 206 -84q133 0 222 99t106 261l24 230q3 32 3 62 q0 120 -54 199q-68 99 -201 99q-138 0 -224.5 -84.5t-100.5 -216.5z" />
<glyph unicode="b" horiz-adv-x="962" d="M143 0l152 1434l63 20l-63 -594q113 184 328 184q104 0 176.5 -49t102.5 -129q22 -60 22 -132q0 -24 -2 -48l-37 -348q-16 -152 -117.5 -255t-257.5 -103q-215 0 -289 184l-16 -164h-62zM246 397q-3 -32 -3 -62q0 -120 55 -199q69 -99 202 -99q138 0 224.5 84.5 t98.5 216.5l37 348q2 23 2 44q0 102 -56 172q-68 84 -206 85q-133 0 -223 -99t-107 -261z" />
<glyph unicode="c" horiz-adv-x="839" d="M150 358l32 308q9 89 40.5 158.5t71.5 109.5t91 66t94.5 35t85.5 9q172 0 314 -92l-29 -53q-141 88 -281 88q-54 0 -103 -15.5t-97.5 -50.5t-81.5 -102t-43 -160l-31 -294q-3 -32 -3 -61q0 -56 12 -100q19 -68 60 -102t87 -49.5t100 -15.5q143 0 299 88l18 -53 q-164 -92 -333 -92q-42 0 -83.5 9t-87 35t-77 66t-47.5 110q-11 45 -11 98q0 29 3 60z" />
<glyph unicode="d" horiz-adv-x="962" d="M147 338l37 348q16 152 118.5 255t258.5 103q216 0 287 -184l63 594l60 -20l-152 -1434h-61l16 164q-110 -184 -325 -184q-156 0 -237 103q-68 86 -68 206q0 24 3 49zM209 338q-2 -20 -2 -39q0 -107 58 -178q68 -84 206 -84q133 0 222 99t106 261l24 230q3 32 3 62 q0 120 -54 199q-68 99 -201 99q-138 0 -224.5 -84.5t-100.5 -216.5z" />
<glyph unicode="e" d="M150 358l32 308q9 86 38.5 153t69.5 108.5t91 68.5t99 37.5t98 10.5q49 0 94.5 -10.5t90 -37.5t75 -68.5t45.5 -108.5q9 -42 9 -91q0 -30 -3 -62q-5 -64 -27 -154h-635l-14 -147q-3 -29 -3 -56q0 -41 8 -77q12 -58 38 -94.5t64.5 -59.5t77.5 -32t81 -9q164 0 340 88 l8 -55q-191 -90 -364 -90q-43 0 -85 9t-89 35t-80 66t-51 110q-12 46 -11 100q0 28 3 58zM233 569h582q0 4 5.5 40.5t6.5 56.5q3 30 3 57q0 121 -62 185q-76 78 -197 79q-57 0 -109 -17.5t-99 -54t-78.5 -100.5t-40.5 -149z" />
<glyph unicode="f" horiz-adv-x="583" d="M154 967l6 57h151l21 193q8 73 29 125.5t46.5 81.5t62 45.5t66.5 21t68 4.5q83 0 164 -31l-16 -55q-78 29 -158 29q-95 0 -141.5 -51t-59.5 -175l-20 -188h278l-26 -57h-258l-101 -967h-61l100 967h-151z" />
<glyph unicode="g" horiz-adv-x="962" d="M109 -338l26 53q141 -88 293 -88q54 0 103 15.5t97.5 50.5t82 102t43.5 160l20 209q-121 -144 -321 -144q-156 0 -237 104q-67 86 -67 206q0 24 3 49l32 307q16 152 118.5 255t258.5 103q216 0 287 -184l18 164h62l-115 -1075q-8 -75 -30.5 -136t-55 -101t-69.5 -69 t-78.5 -44t-77 -22t-70.5 -7q-98 0 -184.5 29t-138.5 63zM213 379q-2 -20 -2 -39q0 -107 58 -178q68 -84 206 -84q133 0 222 99t106 261l20 189q3 32 3 62q0 120 -54 199q-68 99 -201 99q-138 0 -224.5 -84.5t-100.5 -216.5z" />
<glyph unicode="h" horiz-adv-x="993" d="M143 0l152 1434l63 20l-63 -604q56 99 144.5 146.5t193.5 47.5q108 0 178.5 -52t95.5 -131q18 -56 18 -122q0 -26 -3 -53l-72 -686h-62l72 686q3 24 3 47q-1 103 -53 171q-64 84 -200 83q-134 0 -228.5 -99.5t-111.5 -260.5l-65 -627h-62z" />
<glyph unicode="i" horiz-adv-x="348" d="M143 0l109 1024h61l-108 -1024h-62zM268 1188l27 246h61l-26 -246h-62z" />
<glyph unicode="j" horiz-adv-x="348" d="M-197 -410l17 56q68 -19 129 -19q91 0 128.5 50t49.5 176l125 1171h61l-125 -1176q-10 -88 -34 -146.5t-61 -85.5t-72 -36.5t-82 -9.5q-69 0 -136 20zM268 1188l27 246h61l-26 -246h-62z" />
<glyph unicode="k" horiz-adv-x="870" d="M143 0l152 1434l63 20l-98 -922l614 492h84l-624 -500l526 -524h-88l-514 512l-53 -512h-62z" />
<glyph unicode="l" horiz-adv-x="348" d="M143 0l152 1434l63 20l-153 -1454h-62z" />
<glyph unicode="m" horiz-adv-x="1638" d="M143 0l109 1024h61l-18 -174q56 99 144.5 146.5t193.5 47.5q123 0 195 -63.5t90 -167.5q118 231 360 231q108 0 178.5 -52t95.5 -131q18 -56 18 -122q0 -26 -3 -53l-72 -686h-61l71 686q3 24 3 47q0 103 -52 171q-64 84 -201 83q-134 0 -228.5 -99.5t-111.5 -260.5 l-65 -627h-62l72 686q3 24 3 47q-1 103 -53 171q-64 84 -200 83q-134 0 -228.5 -99.5t-111.5 -260.5l-65 -627h-62z" />
<glyph unicode="n" horiz-adv-x="993" d="M143 0l109 1024h61l-18 -174q56 99 144.5 146.5t193.5 47.5q108 0 178.5 -52t95.5 -131q18 -56 18 -122q0 -26 -3 -53l-72 -686h-62l72 686q3 24 3 47q-1 103 -53 171q-64 84 -200 83q-134 0 -228.5 -99.5t-111.5 -260.5l-65 -627h-62z" />
<glyph unicode="o" d="M150 358l32 308q9 86 38.5 153t69.5 108.5t91 68.5t99 37.5t98 10.5q49 0 94.5 -10.5t90 -37.5t75 -68.5t45.5 -108.5q9 -42 9 -91q0 -30 -3 -62l-33 -308q-9 -86 -38 -153t-68.5 -108.5t-89.5 -68.5t-98 -37.5t-97 -10.5q-50 0 -95.5 10.5t-90.5 37.5t-76 68.5 t-47 108.5q-10 42 -9 92q0 29 3 61zM211 358q-3 -28 -3 -53q0 -53 12 -96q18 -64 57.5 -100.5t88 -54t105.5 -17.5t109 17.5t97.5 54t77 100.5t40.5 149l32 308q3 30 3 57q0 121 -62 185q-76 78 -197 79q-57 0 -109 -17.5t-99 -54t-78.5 -100.5t-40.5 -149z" />
<glyph unicode="p" horiz-adv-x="962" d="M100 -410l152 1434h61l-18 -164q113 184 328 184q104 0 176.5 -49t102.5 -129q22 -61 22 -132q0 -23 -2 -48l-37 -348q-16 -152 -117.5 -255t-257.5 -103q-215 0 -289 184l-59 -574h-62zM246 397q-3 -32 -3 -62q0 -120 55 -199q69 -99 202 -99q138 0 224.5 84.5 t98.5 216.5l37 348q2 23 2 44q0 102 -56 172q-68 85 -206 85q-133 0 -223 -99t-107 -261z" />
<glyph unicode="q" horiz-adv-x="962" d="M147 338l37 348q16 152 118.5 255t258.5 103q216 0 287 -184l18 164h62l-154 -1454l-59 20l59 574q-110 -184 -325 -184q-156 0 -237 103q-68 86 -68 206q0 24 3 49zM209 338q-2 -20 -2 -39q0 -107 58 -178q68 -84 206 -84q133 0 222 99t106 261l24 230q3 32 3 62 q0 120 -54 199q-68 99 -201 99q-138 0 -224.5 -84.5t-100.5 -216.5z" />
<glyph unicode="r" horiz-adv-x="675" d="M143 0l109 1024h61l-18 -174q110 194 332 194q75 0 135 -26l-29 -57q-57 26 -127 26q-133 0 -226 -99.5t-110 -260.5l-65 -627h-62z" />
<glyph unicode="s" horiz-adv-x="860" d="M88 51l31 60q59 -31 146 -52.5t169 -21.5q133 0 215.5 58.5t93.5 156.5q2 15 2 29q-1 38 -13 68q-16 41 -49 65.5t-77.5 42.5t-95 31t-100.5 27.5t-95 36t-78 52t-50 80.5q-13 37 -13 82q0 16 2 33q10 103 104.5 174t256.5 71q36 0 72.5 -4t63 -9.5t58 -15t46.5 -15 t41 -15.5t30 -12l-33 -60q-161 74 -283 74q-118 0 -201 -46.5t-93 -139.5q-2 -14 -2 -28q0 -38 13 -68q17 -41 50.5 -66t78 -43.5t95 -32.5t100.5 -29t95 -37t78 -53q34 -30 50 -79q12 -34 11 -76q0 -18 -2 -37q-13 -130 -122.5 -201t-252.5 -71q-204 0 -342 71z" />
<glyph unicode="t" horiz-adv-x="593" d="M154 967l6 57h151l23 205h61l-22 -205h278l-26 -57h-258l-74 -705q-4 -40 -4 -73q1 -71 19 -104q26 -48 118 -48q62 0 133 18l4 -55q-73 -20 -139 -20q-23 0 -41 1.5t-39 6.5t-36 13.5t-31.5 23t-24.5 35.5q-10 20 -18 48q-8 26 -7 58v8q1 37 4 84l74 709h-151z" />
<glyph unicode="u" horiz-adv-x="993" d="M178 338l74 686h61l-73 -686q-2 -23 -2 -44q0 -104 53 -174q64 -84 201 -83q134 0 227 99.5t110 260.5l68 627h61l-108 -1024h-62l19 174q-56 -99 -144.5 -146.5t-193.5 -47.5q-108 0 -178.5 52t-96.5 131q-19 58 -18 126q0 24 2 49z" />
<glyph unicode="v" horiz-adv-x="890" d="M160 1024h63l232 -944l430 944h63l-475 -1034h-59z" />
<glyph unicode="w" horiz-adv-x="1337" d="M164 1024h61l160 -946l363 946h59l160 -946l362 946h62l-400 -1034h-65l-160 942l-358 -942h-66z" />
<glyph unicode="x" horiz-adv-x="849" d="M31 0l415 512l-307 512h64l282 -463l379 463h64l-418 -512l309 -512h-63l-281 463l-381 -463h-63z" />
<glyph unicode="y" horiz-adv-x="882" d="M-33 -410l13 52q76 -21 126 -21q81 0 133.5 50t114.5 184l56 125l-254 1044h63l234 -952l430 952h61l-532 -1167q-41 -90 -80 -148.5t-77.5 -88t-73 -40t-79.5 -10.5q-54 0 -135 20z" />
<glyph unicode="z" horiz-adv-x="829" d="M61 0l7 57l716 910h-600l27 57h645l-6 -57l-715 -910h639l-6 -57h-707z" />
<glyph unicode="{" horiz-adv-x="552" d="M133 686l6 62q35 5 62.5 17t46.5 32t31.5 41.5t21 53t13 58t8.5 64.5q6 61 12 214.5t12 215.5q10 88 39 148.5t75 92t97 44t117 12.5l-6 -62q-86 0 -128 -16q-113 -45 -132 -219q-5 -57 -14.5 -235.5t-16.5 -245.5q-20 -204 -168 -244v-4q66 -19 97 -75t20 -169 q-6 -68 -36 -248t-36 -237q-7 -67 5.5 -113.5t31 -69.5t54 -34.5t55.5 -13t55 -1.5h10l-6 -61q-66 0 -114.5 12.5t-88 44t-56 92t-7.5 148.5q7 64 33.5 217.5t33.5 212.5q7 49 5 94t-11.5 80.5t-39.5 60t-81 31.5z" />
<glyph unicode="|" horiz-adv-x="389" d="M131 -307l215 2048h62l-215 -2048h-62z" />
<glyph unicode="}" horiz-adv-x="552" d="M29 -307l6 61h10q24 0 38 0.5t41.5 4.5t45.5 12.5t41 25.5t38 41t28 62t18 86q7 67 16.5 247t14.5 238q20 203 170 244v4q-66 19 -98 75.5t-21 168.5q7 60 36.5 238t35.5 243q9 83 -7.5 135.5t-57 71.5t-67.5 23.5t-71 4.5h-8l6 62q66 0 114.5 -12.5t88.5 -44t56.5 -92 t6.5 -148.5q-6 -64 -33 -217.5t-33 -212.5q-7 -49 -6 -94t10.5 -80.5t39.5 -60t81 -31.5l-6 -62q-42 -6 -73 -23.5t-49.5 -40.5t-30.5 -58.5t-17.5 -66.5t-9.5 -77q-7 -61 -13.5 -214.5t-13.5 -215.5q-9 -88 -38 -148.5t-75 -92t-97 -44t-117 -12.5z" />
<glyph unicode="~" horiz-adv-x="862" d="M211 651q10 88 50 128t89 40q51 0 110.5 -25.5t112.5 -51t86 -25.5q36 0 56.5 20t27.5 82h62q-10 -88 -49 -126t-88 -38q-40 0 -86.5 16t-81.5 35.5t-74 35.5t-66 16q-36 0 -58.5 -22.5t-29.5 -84.5h-61z" />
<glyph unicode="&#xa1;" horiz-adv-x="409" d="M131 -410l119 1112h57l-114 -1112h-62zM266 862l19 162h57l-18 -162h-58z" />
<glyph unicode="&#xa2;" horiz-adv-x="890" d="M150 358l32 308q10 101 47 176t90 115.5t104.5 60t106.5 24.5l19 187h61l-18 -185q152 -7 287 -92l-29 -53q-141 88 -281 88q-54 0 -103 -15.5t-97.5 -50.5t-81.5 -102t-43 -160l-31 -294q-10 -93 9 -160.5t60 -102t87 -50t100 -15.5q143 0 299 88l18 -53 q-157 -85 -307 -92l-20 -185h-62l21 187q-42 4 -80 16t-77.5 40t-66.5 68t-40 105t-4 147z" />
<glyph unicode="&#xa3;" horiz-adv-x="1136" d="M102 0l7 61h122l54 512h-123l8 62h121l43 399q11 108 50.5 189.5t100 131.5t137 74.5t166.5 24.5q91 0 161.5 -25t120.5 -76.5t71.5 -137.5t9.5 -201l-2 -21h-62l3 21q39 379 -310 379q-162 0 -264 -87t-121 -272l-41 -399h334l-29 -62h-311l-51 -512h754l-7 -61h-942z " />
<glyph unicode="&#xa4;" horiz-adv-x="1136" d="M102 0l7 61h122l54 512h-123l8 62h121l43 399q11 108 50.5 189.5t100 131.5t137 74.5t166.5 24.5q91 0 161.5 -25t120.5 -76.5t71.5 -137.5t9.5 -201l-2 -21h-62l3 21q39 379 -310 379q-162 0 -264 -87t-121 -272l-41 -399h334l-29 -62h-311l-51 -512h754l-7 -61h-942z " />
<glyph unicode="&#xa5;" horiz-adv-x="1136" d="M203 1434h67l363 -813l536 813h68l-565 -850h307l-27 -62h-301l-55 -522h-61l55 522h-330l6 62h318z" />
<glyph unicode="&#xa6;" horiz-adv-x="389" d="M131 -307l98 921h62l-98 -921h-62zM250 819l96 922h62l-97 -922h-61z" />
<glyph unicode="&#xa7;" horiz-adv-x="1110" d="M178 367l15 137h61l-14 -137q-8 -79 13 -141.5t65.5 -102t106 -60t134.5 -20.5q150 0 259 76.5t122 206.5l31 290h-766l6 62h831l-38 -352q-12 -109 -81 -187.5t-165 -114.5t-205 -36q-82 0 -152.5 22.5t-125 67t-81 119.5t-16.5 170zM221 774l35 342q12 109 81 187.5 t165.5 114.5t206.5 36q65 0 123 -14t107.5 -44t84 -73.5t50 -107t7.5 -140.5l-14 -145h-61l14 145q11 105 -29.5 180t-115 110.5t-173.5 35.5q-150 0 -260 -77t-123 -208l-28 -282h768l-6 -60h-832z" />
<glyph unicode="&#xa8;" horiz-adv-x="983" d="M371 1184l26 252h62l-27 -252h-61zM801 1184l26 252h62l-27 -252h-61z" />
<glyph unicode="&#xa9;" horiz-adv-x="1622" d="M170 717q16 152 85 288.5t174.5 235t245 156t290.5 57.5q201 0 355.5 -98t229.5 -266.5t54 -372.5q-22 -206 -133 -375t-285.5 -265.5t-376.5 -96.5q-151 0 -278.5 57t-212 154.5t-125 234.5t-23.5 291zM231 717q-15 -142 21.5 -267.5t114 -215t194 -141.5t254.5 -52 t265.5 52t223.5 141.5t159.5 215t78.5 267.5q19 187 -50 342t-210.5 244.5t-325.5 89.5t-344 -89.5t-261 -244.5t-120 -342zM598 504l45 426q6 58 33 103t67.5 72t88 40.5t98.5 13.5q109 0 180.5 -58.5t60.5 -170.5l-10 -90h-45l10 90q9 90 -50 140t-150 50t-160 -50 t-78 -140l-45 -426q-10 -93 48.5 -142t150.5 -49t160.5 49t78.5 142l9 90h45l-9 -90q-11 -112 -95.5 -171t-192.5 -59t-179.5 59t-60.5 171z" />
<glyph unicode="&#xaa;" horiz-adv-x="733" d="M160 547l6 53h528l-6 -53h-528zM203 905q13 125 122.5 180.5t350.5 61.5l8 78q6 53 -6.5 89t-40 52.5t-55 22.5t-64.5 6q-94 0 -225 -56l-14 50q126 59 247 59q242 0 219 -223l-53 -508h-57l8 125q-26 -52 -69.5 -85t-84 -44t-83.5 -11q-108 0 -159.5 58.5t-43.5 144.5z M266 907q-7 -70 37 -110.5t123 -40.5q111 0 170.5 84.5t73.5 255.5q-213 -4 -304 -47t-100 -142z" />
<glyph unicode="&#xab;" horiz-adv-x="1187" d="M119 485l4 50l543 407l-7 -68l-479 -362v-4l404 -358l-9 -68zM623 485l4 50l542 407l-6 -68l-479 -362v-4l403 -358l-8 -68z" />
<glyph unicode="&#xac;" horiz-adv-x="999" d="M244 700l6 54h680l-23 -205h-53l16 151h-626z" />
<glyph unicode="&#xad;" horiz-adv-x="909" d="M158 485l6 54h696l-6 -54h-696z" />
<glyph unicode="&#xae;" horiz-adv-x="1622" d="M170 717q16 152 85 288.5t174.5 235t245 156t290.5 57.5q201 0 355.5 -98t229.5 -266.5t54 -372.5q-22 -206 -133 -375t-285.5 -265.5t-376.5 -96.5q-151 0 -278.5 57t-212 154.5t-125 234.5t-23.5 291zM231 717q-15 -142 21.5 -267.5t114 -215t194 -141.5t254.5 -52 t265.5 52t223.5 141.5t159.5 215t78.5 267.5q19 187 -50 342t-210.5 244.5t-325.5 89.5t-344 -89.5t-261 -244.5t-120 -342zM606 287l90 860h281q114 0 169 -55t42 -183q-8 -88 -55 -139.5t-117 -67.5q47 -12 74.5 -52.5t33.5 -129.5l13 -233h-47l-11 231q-3 58 -17.5 93.5 t-44.5 51.5t-59 20.5t-79 4.5h-185l-43 -401h-45zM696 725h232q88 0 146 47t67 137q11 114 -31.5 156.5t-140.5 42.5h-232z" />
<glyph unicode="&#xaf;" horiz-adv-x="1073" d="M373 1198l8 62h577l-8 -62h-577z" />
<glyph unicode="&#xb0;" horiz-adv-x="559" d="M244 1284q8 71 63 120.5t125 49.5q71 0 115 -50t37 -120t-62.5 -120t-126.5 -50q-70 0 -114.5 49.5t-36.5 120.5zM305 1284q-4 -46 24 -77t72 -31q46 0 81.5 31t39.5 77q5 46 -23.5 77.5t-74.5 31.5q-45 0 -80 -32t-39 -77z" />
<glyph unicode="&#xb1;" horiz-adv-x="894" d="M137 381l4 53h701l-4 -53h-701zM184 834l6 53h326l33 323h53l-33 -323h322l-6 -53h-322l-35 -324h-53l35 324h-326z" />
<glyph unicode="&#xb2;" horiz-adv-x="761" d="M115 430l6 64q7 66 44 123.5t91.5 101t118.5 84t128 79.5t118 79.5t90.5 93t42.5 110.5l2 15q10 103 -50.5 157t-168.5 54q-111 0 -185 -61t-88 -193l-2 -17h-61l2 17q18 157 112.5 234t227.5 77q130 0 208 -70.5t64 -199.5v-15q-6 -57 -36 -109t-73.5 -91.5t-98 -79 t-110.5 -71.5t-110 -69.5t-97 -72.5t-72 -80t-34 -94v-9h559l-6 -57h-622z" />
<glyph unicode="&#xb3;" horiz-adv-x="778" d="M152 725l2 14h63l-2 -14q-13 -131 48.5 -191.5t176.5 -60.5q106 0 182.5 55.5t86.5 149.5q13 127 -45.5 179t-176.5 52h-77l6 60h78q97 0 169 54.5t82 147.5q21 220 -206 220q-107 0 -180 -61.5t-87 -192.5l-2 -17l-61 17q18 157 112 234t224 77q127 0 201.5 -66.5 t60.5 -207.5q-7 -81 -57 -141t-125 -91q76 -27 117 -93t32 -157q-13 -135 -108 -205.5t-232 -70.5q-138 0 -218 76t-64 233z" />
<glyph unicode="&#xb4;" horiz-adv-x="757" d="M367 1126l239 287h72l-250 -287h-61z" />
<glyph unicode="&#xb6;" horiz-adv-x="1189" d="M246 993l6 62q8 77 40 140.5t78.5 107t105.5 73.5t121.5 44t127.5 14h195l-86 -820h-195q-82 0 -155 22.5t-131 67t-87.5 119.5t-19.5 170zM860 0l152 1434h245l-8 -62h-182l-145 -1372h-62z" />
<glyph unicode="&#xb7;" horiz-adv-x="352" d="M197 459l16 164h57l-16 -164h-57z" />
<glyph unicode="&#xb8;" horiz-adv-x="897" d="M188 -418l17 58q68 -29 149 -29q147 0 164 106l2 15q8 52 -27.5 79t-121.5 27h-82l6 62l12 120h62l-13 -120h33q95 0 149 -42t44 -124l-2 -17q-21 -168 -236 -168q-87 0 -156 33z" />
<glyph unicode="&#xb9;" horiz-adv-x="544" d="M217 1290l254 144h61l-106 -1004h-61l100 938l-223 -125z" />
<glyph unicode="&#xba;" horiz-adv-x="733" d="M160 547l6 53h528l-6 -53h-528zM215 971l23 209q7 74 35 128.5t69 83.5t85 42.5t91 13.5t88 -13.5t76.5 -42.5t52.5 -83.5t10 -128.5l-22 -209q-8 -74 -36.5 -128.5t-70 -84t-85.5 -43t-91 -13.5t-88 13.5t-76.5 43t-52 84t-8.5 128.5zM276 969q-11 -109 39 -161t131 -52 q82 0 143.5 52t72.5 161l22 213q11 109 -38.5 161t-131.5 52q-81 0 -142.5 -52t-72.5 -161z" />
<glyph unicode="&#xbb;" horiz-adv-x="1187" d="M125 82l8 68l477 358v4l-401 362l6 68l457 -407l-4 -50zM629 82l8 68l477 358v4l-401 362l6 68l457 -407l-5 -50z" />
<glyph unicode="&#xbc;" horiz-adv-x="1679" d="M205 1290l254 144h61l-106 -1004h-62l101 938l-224 -125zM383 0l905 1434h66l-905 -1434h-66zM915 281l7 57l569 666h63l-69 -666h147l-22 -57h-131l-31 -281h-64l31 281h-500zM991 338h430l60 567z" />
<glyph unicode="&#xbd;" horiz-adv-x="1748" d="M205 1290l254 144h61l-106 -1004h-62l101 938l-224 -125zM383 0l905 1434h66l-905 -1434h-66zM1044 0l7 63q7 68 44.5 126.5t92 102t118.5 83.5t128 79t117.5 80.5t89.5 96.5t42 119q9 104 -50.5 157.5t-166.5 53.5q-111 0 -184.5 -61t-87.5 -193l-2 -17h-62l3 17 q18 157 112.5 234t227.5 77q129 0 206.5 -70t65.5 -200q-7 -73 -44 -135.5t-91 -107.5t-118 -86.5t-128 -80t-118 -78.5t-90 -92t-42 -111h559l-6 -57h-623z" />
<glyph unicode="&#xbe;" horiz-adv-x="1927" d="M158 725l2 14h63l-2 -14q-13 -131 48.5 -191.5t176.5 -60.5q106 0 182.5 55.5t86.5 149.5q13 127 -45 179t-176 52h-78l6 60h78q96 0 169 56.5t83 150.5q13 111 -44 163t-163 52q-107 0 -179.5 -61.5t-86.5 -192.5l-3 -17l-61 17q18 157 112 234t224 77q56 0 105.5 -15.5 t88.5 -45.5t58.5 -80.5t13.5 -114.5q-10 -100 -58.5 -158.5t-127.5 -91.5q77 -28 117.5 -87.5t31.5 -149.5q-10 -97 -59 -163.5t-120.5 -96t-160.5 -29.5q-138 0 -218 76t-64 233zM631 0l905 1434h66l-906 -1434h-65zM1163 281l6 57l570 666h63l-69 -666h147l-22 -57h-132 l-30 -281h-64l31 281h-500zM1239 338h430l60 567z" />
<glyph unicode="&#xbf;" horiz-adv-x="993" d="M72 0q10 97 40 173.5t72.5 127t99.5 84.5t117.5 49t130.5 17l27 251h57l-32 -313h-41q-83 0 -149 -18.5t-122 -61.5t-92 -121t-47 -188q-20 -196 70.5 -282.5t259.5 -86.5q80 0 146.5 20.5t122.5 64t92.5 118t47.5 176.5l2 21h62l-2 -21q-10 -92 -41.5 -166.5t-76.5 -125 t-104 -84.5t-122.5 -49t-132.5 -15q-70 0 -130 14t-112 47t-86.5 81.5t-50.5 122t-6 165.5zM575 862l19 162h57l-18 -162h-58z" />
<glyph unicode="&#xc0;" horiz-adv-x="1105" d="M41 0l631 1444h63l330 -1444h-68l-96 430h-606l-186 -430h-68zM322 492h567l-193 862zM510 1823h72l178 -287h-62z" />
<glyph unicode="&#xc1;" horiz-adv-x="1105" d="M41 0l631 1444h63l330 -1444h-68l-96 430h-606l-186 -430h-68zM322 492h567l-193 862zM692 1536l240 287h72l-250 -287h-62z" />
<glyph unicode="&#xc2;" horiz-adv-x="1105" d="M41 0l631 1444h63l330 -1444h-68l-96 430h-606l-186 -430h-68zM322 492h567l-193 862zM479 1536l246 287h47l184 -287h-69l-148 225l-190 -225h-70z" />
<glyph unicode="&#xc3;" horiz-adv-x="1105" d="M41 0l631 1444h63l330 -1444h-68l-96 430h-606l-186 -430h-68zM322 492h567l-193 862zM428 1552q8 88 48 128t89 40q51 0 110.5 -25.5t112.5 -51t86 -25.5q36 0 57.5 20t26.5 82h62q-8 -88 -47.5 -126t-89.5 -38q-51 0 -110.5 26t-112 51.5t-85.5 25.5q-36 0 -58 -22.5 t-28 -84.5h-61z" />
<glyph unicode="&#xc4;" horiz-adv-x="1105" d="M41 0l631 1444h63l330 -1444h-68l-96 430h-606l-186 -430h-68zM322 492h567l-193 862zM477 1593l27 252h61l-26 -252h-62zM907 1593l27 252h61l-26 -252h-62z" />
<glyph unicode="&#xc5;" horiz-adv-x="1105" d="M41 0l631 1444h63l330 -1444h-68l-96 430h-606l-186 -430h-68zM322 492h567l-193 862zM526 1704q9 88 69.5 141t158.5 53q99 0 148 -53t40 -141q-8 -87 -69 -141t-160 -54q-97 0 -146 54t-41 141zM588 1704q-5 -59 28 -96t105 -37q73 0 114 37t46 96q6 60 -27 96.5 t-106 36.5q-72 0 -113 -36.5t-47 -96.5z" />
<glyph unicode="&#xc6;" horiz-adv-x="1628" d="M41 0l825 1434h842l-8 -62h-746l-65 -614h672l-7 -62h-671l-68 -635h748l-7 -61h-808l45 430h-437l-247 -430h-68zM391 492h408l92 864z" />
<glyph unicode="&#xc7;" horiz-adv-x="1116" d="M188 420l62 594q12 114 56.5 201t111 138t144.5 76t165 25t159.5 -25t128 -76t81.5 -138t14 -201l-63 -21l2 21q11 101 -10 176t-68 118.5t-109.5 64t-142.5 20.5q-167 0 -277 -91t-131 -288l-61 -594q-11 -101 9 -176t67 -118.5t109.5 -64t142.5 -20.5t146.5 20.5 t122.5 64t92.5 118t47.5 176.5l2 20h62l-2 -20q-13 -112 -56 -198t-107.5 -137t-140 -77t-161.5 -28l-9 -80h33q95 0 149 -42t44 -124l-2 -17q-21 -168 -236 -168q-86 0 -155 33l16 58q68 -29 149 -29q147 0 164 106l2 15q8 52 -27.5 79t-121.5 27h-82l6 62l8 82 q-79 6 -143 34.5t-112 80t-69.5 134.5t-9.5 189z" />
<glyph unicode="&#xc8;" horiz-adv-x="1054" d="M174 0l152 1434h809l-9 -62h-745l-66 -614h672l-6 -62h-672l-67 -635h747l-6 -61h-809zM506 1823h72l178 -287h-62z" />
<glyph unicode="&#xc9;" horiz-adv-x="1054" d="M174 0l152 1434h809l-9 -62h-745l-66 -614h672l-6 -62h-672l-67 -635h747l-6 -61h-809zM688 1536l240 287h71l-249 -287h-62z" />
<glyph unicode="&#xca;" horiz-adv-x="1054" d="M174 0l152 1434h809l-9 -62h-745l-66 -614h672l-6 -62h-672l-67 -635h747l-6 -61h-809zM475 1536l246 287h47l184 -287h-69l-148 225l-190 -225h-70z" />
<glyph unicode="&#xcb;" horiz-adv-x="1054" d="M174 0l152 1434h809l-9 -62h-745l-66 -614h672l-6 -62h-672l-67 -635h747l-6 -61h-809zM473 1593l27 252h61l-26 -252h-62zM903 1593l27 252h61l-26 -252h-62z" />
<glyph unicode="&#xcc;" horiz-adv-x="409" d="M162 1823h71l179 -287h-62zM174 0l152 1434h61l-151 -1434h-62z" />
<glyph unicode="&#xcd;" horiz-adv-x="409" d="M174 0l152 1434h61l-151 -1434h-62zM344 1536l240 287h71l-249 -287h-62z" />
<glyph unicode="&#xce;" horiz-adv-x="409" d="M131 1536l246 287h47l184 -287h-69l-148 225l-190 -225h-70zM174 0l152 1434h61l-151 -1434h-62z" />
<glyph unicode="&#xcf;" horiz-adv-x="409" d="M129 1593l27 252h61l-27 -252h-61zM174 0l152 1434h61l-151 -1434h-62zM559 1593l27 252h61l-26 -252h-62z" />
<glyph unicode="&#xd0;" horiz-adv-x="1187" d="M94 696l4 54h156l72 684h419q70 0 132 -15.5t116.5 -50.5t92 -87t54.5 -131t7 -177l-53 -512q-11 -98 -45 -177t-82 -131t-110.5 -87t-127.5 -50.5t-135 -15.5h-420l74 696h-154zM242 61h358q81 0 150 21t129.5 66t100.5 125t52 188l53 512q11 108 -12 187.5t-74 124.5 t-116 66t-146 21h-358l-66 -622h256l-4 -54h-258z" />
<glyph unicode="&#xd1;" horiz-adv-x="1277" d="M172 0l152 1434h67l670 -1328q17 218 35 375l100 953h61l-151 -1434h-66l-673 1325q-14 -187 -33 -373l-101 -952h-61zM512 1552q8 88 48 128t89 40q51 0 110.5 -25.5t112.5 -51t86 -25.5q36 0 57.5 20t26.5 82h62q-8 -88 -47.5 -126t-89.5 -38q-51 0 -110.5 26 t-112 51.5t-85.5 25.5q-36 0 -58 -22.5t-28 -84.5h-61z" />
<glyph unicode="&#xd2;" horiz-adv-x="1146" d="M188 420l62 594q12 114 56.5 201t111 138t144.5 76t165 25t159.5 -25t128 -76t81.5 -138t14 -201l-61 -594q-13 -114 -57.5 -201t-111 -138t-144.5 -76t-165 -25t-160 25t-128.5 76t-81.5 138t-13 201zM250 420q-11 -101 9 -176t67 -118.5t109.5 -64t142.5 -20.5 t146.5 20.5t122.5 64t92.5 118t47.5 176.5l62 594q11 101 -10 176t-68 118.5t-109.5 64t-142.5 20.5q-167 0 -277 -91t-131 -288zM530 1823h72l178 -287h-61z" />
<glyph unicode="&#xd3;" horiz-adv-x="1146" d="M188 420l62 594q12 114 56.5 201t111 138t144.5 76t165 25t159.5 -25t128 -76t81.5 -138t14 -201l-61 -594q-13 -114 -57.5 -201t-111 -138t-144.5 -76t-165 -25t-160 25t-128.5 76t-81.5 138t-13 201zM250 420q-11 -101 9 -176t67 -118.5t109.5 -64t142.5 -20.5 t146.5 20.5t122.5 64t92.5 118t47.5 176.5l62 594q11 101 -10 176t-68 118.5t-109.5 64t-142.5 20.5q-167 0 -277 -91t-131 -288zM713 1536l239 287h72l-250 -287h-61z" />
<glyph unicode="&#xd4;" horiz-adv-x="1146" d="M188 420l62 594q12 114 56.5 201t111 138t144.5 76t165 25t159.5 -25t128 -76t81.5 -138t14 -201l-61 -594q-13 -114 -57.5 -201t-111 -138t-144.5 -76t-165 -25t-160 25t-128.5 76t-81.5 138t-13 201zM250 420q-11 -101 9 -176t67 -118.5t109.5 -64t142.5 -20.5 t146.5 20.5t122.5 64t92.5 118t47.5 176.5l62 594q11 101 -10 176t-68 118.5t-109.5 64t-142.5 20.5q-167 0 -277 -91t-131 -288zM500 1536l245 287h48l184 -287h-70l-147 225l-191 -225h-69z" />
<glyph unicode="&#xd5;" horiz-adv-x="1146" d="M188 420l62 594q12 114 56.5 201t111 138t144.5 76t165 25t159.5 -25t128 -76t81.5 -138t14 -201l-61 -594q-13 -114 -57.5 -201t-111 -138t-144.5 -76t-165 -25t-160 25t-128.5 76t-81.5 138t-13 201zM250 420q-11 -101 9 -176t67 -118.5t109.5 -64t142.5 -20.5 t146.5 20.5t122.5 64t92.5 118t47.5 176.5l62 594q11 101 -10 176t-68 118.5t-109.5 64t-142.5 20.5q-167 0 -277 -91t-131 -288zM449 1552q8 88 48 128t89 40q51 0 110.5 -25.5t112.5 -51t86 -25.5q36 0 57.5 20t26.5 82h61q-8 -88 -47.5 -126t-89.5 -38q-51 0 -110 26 t-111.5 51.5t-85.5 25.5q-36 0 -58 -22.5t-28 -84.5h-61z" />
<glyph unicode="&#xd6;" horiz-adv-x="1146" d="M188 420l62 594q12 114 56.5 201t111 138t144.5 76t165 25t159.5 -25t128 -76t81.5 -138t14 -201l-61 -594q-13 -114 -57.5 -201t-111 -138t-144.5 -76t-165 -25t-160 25t-128.5 76t-81.5 138t-13 201zM250 420q-11 -101 9 -176t67 -118.5t109.5 -64t142.5 -20.5 t146.5 20.5t122.5 64t92.5 118t47.5 176.5l62 594q11 101 -10 176t-68 118.5t-109.5 64t-142.5 20.5q-167 0 -277 -91t-131 -288zM498 1593l26 252h62l-27 -252h-61zM928 1593l26 252h62l-27 -252h-61z" />
<glyph unicode="&#xd7;" horiz-adv-x="905" d="M147 418l347 309l-281 309l43 39l276 -311l345 311l34 -39l-344 -309l279 -311l-43 -37l-277 311l-344 -311z" />
<glyph unicode="&#xd8;" horiz-adv-x="1146" d="M137 -41l107 168q-76 113 -56 293l62 594q12 114 56.5 201t111 138t144.5 76t165 25q192 0 297 -111l84 132h59l-110 -172q70 -109 53 -289l-61 -594q-13 -114 -57.5 -201t-111 -138t-144.5 -76t-165 -25q-189 0 -292 106l-82 -127h-60zM250 420q-15 -148 33 -236 l706 1104q-84 105 -270 105q-167 0 -277 -91t-131 -288zM313 139q83 -98 265 -98q80 0 146.5 20.5t122.5 64t92.5 118t47.5 176.5l62 594q14 139 -29 227z" />
<glyph unicode="&#xd9;" horiz-adv-x="1187" d="M209 420l106 1014h62l-107 -1014q-11 -101 9 -176t67 -118.5t109.5 -64t142.5 -20.5t147 20.5t123 64t92.5 118t47.5 176.5l106 1014h62l-107 -1014q-10 -92 -41.5 -166.5t-76.5 -125t-104 -84.5t-122.5 -49t-132.5 -15q-87 0 -160 25t-128.5 76t-81.5 138t-13 201z M555 1823h72l178 -287h-62z" />
<glyph unicode="&#xda;" horiz-adv-x="1187" d="M209 420l106 1014h62l-107 -1014q-11 -101 9 -176t67 -118.5t109.5 -64t142.5 -20.5t147 20.5t123 64t92.5 118t47.5 176.5l106 1014h62l-107 -1014q-10 -92 -41.5 -166.5t-76.5 -125t-104 -84.5t-122.5 -49t-132.5 -15q-87 0 -160 25t-128.5 76t-81.5 138t-13 201z M737 1536l240 287h72l-250 -287h-62z" />
<glyph unicode="&#xdb;" horiz-adv-x="1187" d="M209 420l106 1014h62l-107 -1014q-11 -101 9 -176t67 -118.5t109.5 -64t142.5 -20.5t147 20.5t123 64t92.5 118t47.5 176.5l106 1014h62l-107 -1014q-10 -92 -41.5 -166.5t-76.5 -125t-104 -84.5t-122.5 -49t-132.5 -15q-87 0 -160 25t-128.5 76t-81.5 138t-13 201z M524 1536l246 287h47l184 -287h-69l-148 225l-190 -225h-70z" />
<glyph unicode="&#xdc;" horiz-adv-x="1187" d="M209 420l106 1014h62l-107 -1014q-11 -101 9 -176t67 -118.5t109.5 -64t142.5 -20.5t147 20.5t123 64t92.5 118t47.5 176.5l106 1014h62l-107 -1014q-10 -92 -41.5 -166.5t-76.5 -125t-104 -84.5t-122.5 -49t-132.5 -15q-87 0 -160 25t-128.5 76t-81.5 138t-13 201z M522 1593l27 252h61l-26 -252h-62zM952 1593l27 252h61l-26 -252h-62z" />
<glyph unicode="&#xdd;" horiz-adv-x="1075" d="M172 1434h68l362 -813l537 813h67l-581 -875l-60 -559h-61l59 561zM674 1536l239 287h72l-250 -287h-61z" />
<glyph unicode="&#xde;" horiz-adv-x="1095" d="M174 0l152 1434h61l-29 -267h369q69 0 129.5 -15t112 -48.5t86.5 -83t50.5 -122t6.5 -161.5l-2 -20q-12 -111 -56 -195.5t-110 -134.5t-144 -75t-165 -25h-369l-30 -287h-62zM272 348h369q166 0 276.5 89.5t131.5 279.5l2 20q11 98 -10 170.5t-67.5 115t-109.5 63 t-143 20.5h-369z" />
<glyph unicode="&#xdf;" horiz-adv-x="1132" d="M154 967l6 57h155l13 135q8 76 37 136t68.5 96.5t90 60.5t98 33.5t97.5 9.5t96 -9.5t91 -33.5t76 -60.5t46.5 -96.5t7.5 -136l-6 -63q-11 -117 -72.5 -196t-156.5 -120q131 -29 205.5 -115.5t58.5 -234.5l-8 -74q-8 -77 -38.5 -138.5t-75.5 -101.5t-103.5 -66.5 t-118.5 -38t-125 -11.5h-211l6 53h209q73 0 138 17t120.5 52t92 95.5t44.5 140.5l9 74q7 63 -8.5 114.5t-46.5 86t-76 58t-95 34t-106 10.5h-211l6 58h106q73 0 138.5 16.5t121 51t92 94t44.5 137.5l8 71q7 73 -12 128t-58 86t-87.5 46t-106.5 15q-57 0 -109 -15t-98.5 -46 t-77 -86t-37.5 -128l-123 -1163h-61l102 967h-155z" />
<glyph unicode="&#xe0;" horiz-adv-x="962" d="M147 338l37 348q16 152 118.5 255t258.5 103q216 0 287 -184l18 164h62l-109 -1024h-61l16 164q-110 -184 -325 -184q-156 0 -237 103t-65 255zM209 338q-12 -133 56 -217t206 -84q133 0 222 99t106 261l24 230q17 162 -51 261t-201 99q-138 0 -224.5 -84.5 t-100.5 -216.5zM420 1413h72l178 -287h-62z" />
<glyph unicode="&#xe1;" horiz-adv-x="962" d="M147 338l37 348q16 152 118.5 255t258.5 103q216 0 287 -184l18 164h62l-109 -1024h-61l16 164q-110 -184 -325 -184q-156 0 -237 103t-65 255zM209 338q-12 -133 56 -217t206 -84q133 0 222 99t106 261l24 230q17 162 -51 261t-201 99q-138 0 -224.5 -84.5 t-100.5 -216.5zM602 1126l240 287h71l-249 -287h-62z" />
<glyph unicode="&#xe2;" horiz-adv-x="962" d="M147 338l37 348q16 152 118.5 255t258.5 103q216 0 287 -184l18 164h62l-109 -1024h-61l16 164q-110 -184 -325 -184q-156 0 -237 103t-65 255zM209 338q-12 -133 56 -217t206 -84q133 0 222 99t106 261l24 230q17 162 -51 261t-201 99q-138 0 -224.5 -84.5 t-100.5 -216.5zM389 1126l246 287h47l184 -287h-69l-148 226l-190 -226h-70z" />
<glyph unicode="&#xe3;" horiz-adv-x="962" d="M147 338l37 348q16 152 118.5 255t258.5 103q216 0 287 -184l18 164h62l-109 -1024h-61l16 164q-110 -184 -325 -184q-156 0 -237 103t-65 255zM209 338q-12 -133 56 -217t206 -84q133 0 222 99t106 261l24 230q17 162 -51 261t-201 99q-138 0 -224.5 -84.5 t-100.5 -216.5zM338 1143q8 88 48 128t89 40q51 0 110.5 -25.5t112.5 -51.5t86 -26q36 0 57.5 20.5t26.5 82.5h62q-8 -88 -47.5 -126t-89.5 -38q-51 0 -110.5 25.5t-112 51t-85.5 25.5q-36 0 -58.5 -22t-27.5 -84h-61z" />
<glyph unicode="&#xe4;" horiz-adv-x="962" d="M147 338l37 348q16 152 118.5 255t258.5 103q216 0 287 -184l18 164h62l-109 -1024h-61l16 164q-110 -184 -325 -184q-156 0 -237 103t-65 255zM209 338q-12 -133 56 -217t206 -84q133 0 222 99t106 261l24 230q17 162 -51 261t-201 99q-138 0 -224.5 -84.5 t-100.5 -216.5zM387 1184l27 252h61l-26 -252h-62zM817 1184l27 252h61l-26 -252h-62z" />
<glyph unicode="&#xe5;" horiz-adv-x="962" d="M147 338l37 348q16 152 118.5 255t258.5 103q216 0 287 -184l18 164h62l-109 -1024h-61l16 164q-110 -184 -325 -184q-156 0 -237 103t-65 255zM209 338q-12 -133 56 -217t206 -84q133 0 222 99t106 261l24 230q17 162 -51 261t-201 99q-138 0 -224.5 -84.5 t-100.5 -216.5zM436 1294q9 88 69.5 141.5t158.5 53.5q99 0 148 -53.5t40 -141.5q-8 -87 -69 -140.5t-160 -53.5q-97 0 -146 53.5t-41 140.5zM498 1294q-5 -59 28 -96t105 -37q73 0 114 37t46 96q6 60 -27.5 96.5t-106.5 36.5q-72 0 -112.5 -36.5t-46.5 -96.5z" />
<glyph unicode="&#xe6;" horiz-adv-x="1546" d="M111 276q17 154 177 230.5t500 83.5l15 139q7 65 -5 113t-35.5 75t-60.5 43.5t-71 21.5t-76 5q-139 0 -322 -80l-14 58q73 33 166.5 56t175.5 23q255 0 299 -178q38 64 97 105.5t116.5 57t118.5 15.5q49 0 94.5 -10.5t90 -37.5t75 -68.5t45.5 -108.5t6 -153 q-4 -53 -24 -134h-635l-17 -167q-8 -75 4.5 -133.5t39 -94.5t65 -59t77.5 -32t81 -9q164 0 340 88l8 -55q-191 -90 -365 -90q-43 0 -85.5 10t-88 33t-81 69t-50.5 109q-45 -99 -150.5 -160t-224.5 -61q-157 0 -228 82t-58 214zM172 276q-12 -116 53 -177.5t189 -61.5 q136 0 236 83t114 228l18 184q-309 -7 -452.5 -67.5t-157.5 -188.5zM850 590h582l10 76q17 164 -58.5 242.5t-197.5 78.5q-57 0 -109.5 -17.5t-99 -54t-78.5 -100.5t-41 -149z" />
<glyph unicode="&#xe7;" horiz-adv-x="839" d="M150 358l32 308q9 89 40.5 158.5t71.5 109.5t91 66t94.5 35t85.5 9q172 0 314 -92l-29 -53q-141 88 -281 88q-54 0 -103 -15.5t-97.5 -50.5t-81.5 -102t-43 -160l-31 -294q-10 -93 9 -160.5t60 -102t87 -50t100 -15.5q143 0 299 88l18 -53q-160 -90 -325 -92l-8 -80h32 q95 0 149 -42t44 -124l-2 -17q-21 -168 -236 -168q-86 0 -155 33l16 58q68 -29 150 -29q146 0 163 106l2 15q8 52 -27.5 79t-121.5 27h-82l6 62l8 84q-41 6 -77 19.5t-72.5 42.5t-60.5 69t-35.5 102.5t-3.5 140.5z" />
<glyph unicode="&#xe8;" d="M150 358l32 308q9 86 38.5 153t69.5 108.5t91 68.5t99 37.5t98 10.5q49 0 94.5 -10.5t90 -37.5t75 -68.5t45.5 -108.5t6 -153q-5 -64 -27 -154h-635l-14 -147q-8 -75 4.5 -133.5t38.5 -94.5t64.5 -59t77.5 -32t81 -9q164 0 340 88l8 -55q-191 -90 -364 -90q-43 0 -85 9 t-89 35t-80 66t-50.5 109.5t-8.5 158.5zM233 569h582q0 4 5.5 40.5t6.5 56.5q17 164 -58.5 242.5t-197.5 78.5q-57 0 -109 -17.5t-99 -54t-78.5 -100.5t-40.5 -149zM383 1413h72l178 -287h-62z" />
<glyph unicode="&#xe9;" d="M150 358l32 308q9 86 38.5 153t69.5 108.5t91 68.5t99 37.5t98 10.5q49 0 94.5 -10.5t90 -37.5t75 -68.5t45.5 -108.5t6 -153q-5 -64 -27 -154h-635l-14 -147q-8 -75 4.5 -133.5t38.5 -94.5t64.5 -59t77.5 -32t81 -9q164 0 340 88l8 -55q-191 -90 -364 -90q-43 0 -85 9 t-89 35t-80 66t-50.5 109.5t-8.5 158.5zM233 569h582q0 4 5.5 40.5t6.5 56.5q17 164 -58.5 242.5t-197.5 78.5q-57 0 -109 -17.5t-99 -54t-78.5 -100.5t-40.5 -149zM565 1126l240 287h72l-250 -287h-62z" />
<glyph unicode="&#xea;" d="M150 358l32 308q9 86 38.5 153t69.5 108.5t91 68.5t99 37.5t98 10.5q49 0 94.5 -10.5t90 -37.5t75 -68.5t45.5 -108.5t6 -153q-5 -64 -27 -154h-635l-14 -147q-8 -75 4.5 -133.5t38.5 -94.5t64.5 -59t77.5 -32t81 -9q164 0 340 88l8 -55q-191 -90 -364 -90q-43 0 -85 9 t-89 35t-80 66t-50.5 109.5t-8.5 158.5zM233 569h582q0 4 5.5 40.5t6.5 56.5q17 164 -58.5 242.5t-197.5 78.5q-57 0 -109 -17.5t-99 -54t-78.5 -100.5t-40.5 -149zM352 1126l246 287h47l184 -287h-69l-148 226l-190 -226h-70z" />
<glyph unicode="&#xeb;" d="M150 358l32 308q9 86 38.5 153t69.5 108.5t91 68.5t99 37.5t98 10.5q49 0 94.5 -10.5t90 -37.5t75 -68.5t45.5 -108.5t6 -153q-5 -64 -27 -154h-635l-14 -147q-8 -75 4.5 -133.5t38.5 -94.5t64.5 -59t77.5 -32t81 -9q164 0 340 88l8 -55q-191 -90 -364 -90q-43 0 -85 9 t-89 35t-80 66t-50.5 109.5t-8.5 158.5zM233 569h582q0 4 5.5 40.5t6.5 56.5q17 164 -58.5 242.5t-197.5 78.5q-57 0 -109 -17.5t-99 -54t-78.5 -100.5t-40.5 -149zM350 1184l27 252h61l-26 -252h-62zM780 1184l27 252h61l-26 -252h-62z" />
<glyph unicode="&#xec;" horiz-adv-x="354" d="M88 1413h72l178 -287h-62zM145 0l109 1024h61l-108 -1024h-62z" />
<glyph unicode="&#xed;" horiz-adv-x="354" d="M145 0l109 1024h61l-108 -1024h-62zM270 1126l240 287h72l-250 -287h-62z" />
<glyph unicode="&#xee;" horiz-adv-x="354" d="M57 1126l246 287h47l185 -287h-70l-148 226l-190 -226h-70zM145 0l109 1024h61l-108 -1024h-62z" />
<glyph unicode="&#xef;" horiz-adv-x="354" d="M55 1184l27 252h61l-26 -252h-62zM145 0l109 1024h61l-108 -1024h-62zM485 1184l27 252h61l-26 -252h-62z" />
<glyph unicode="&#xf0;" d="M150 358l6 52q9 86 38.5 153t69 108.5t90 68.5t98 37.5t97.5 10.5h291l28 267q17 164 -58.5 242.5t-197.5 78.5h-28l-19 -184h-61l18 184h-192l6 58h192l23 204h61l-22 -204h28q41 0 79 -7.5t77 -24.5t69.5 -46.5t53.5 -70t31.5 -99.5t1.5 -131l-74 -697q-9 -86 -38 -153 t-68.5 -108.5t-89.5 -68.5t-98 -37.5t-97 -10.5q-50 0 -95.5 10.5t-90.5 37.5t-76 68.5t-46.5 108.5t-6.5 153zM211 358q-9 -85 9.5 -149t57.5 -100.5t87.5 -54t105.5 -17.5t109 17.5t97.5 54t77 100.5t40.5 149l39 373h-289q-57 0 -109.5 -17.5t-99 -54t-78.5 -100.5 t-41 -149z" />
<glyph unicode="&#xf1;" horiz-adv-x="993" d="M143 0l109 1024h61l-18 -174q56 99 144.5 146.5t193.5 47.5q108 0 178.5 -52t95.5 -131t15 -175l-72 -686h-62l72 686q14 134 -49.5 217.5t-200.5 83.5q-134 0 -228.5 -99.5t-111.5 -260.5l-65 -627h-62zM338 1143q8 88 48 128t89 40q51 0 110.5 -25.5t112.5 -51.5 t86 -26q36 0 57.5 20.5t26.5 82.5h62q-8 -88 -47.5 -126t-89.5 -38q-51 0 -110.5 25.5t-112 51t-85.5 25.5q-36 0 -58.5 -22t-27.5 -84h-61z" />
<glyph unicode="&#xf2;" d="M150 358l32 308q9 86 38.5 153t69.5 108.5t91 68.5t99 37.5t98 10.5q49 0 94.5 -10.5t90 -37.5t75 -68.5t45.5 -108.5t6 -153l-33 -308q-9 -86 -38 -153t-68.5 -108.5t-89.5 -68.5t-98 -37.5t-97 -10.5q-50 0 -95.5 10.5t-90.5 37.5t-76 68.5t-46.5 108.5t-6.5 153z M211 358q-9 -85 9.5 -149t57.5 -100.5t87.5 -54t105.5 -17.5t109 17.5t97.5 54t77 100.5t40.5 149l32 308q17 164 -58.5 242.5t-197.5 78.5q-57 0 -109 -17.5t-99 -54t-78.5 -100.5t-40.5 -149zM373 1413h71l179 -287h-62z" />
<glyph unicode="&#xf3;" d="M150 358l32 308q9 86 38.5 153t69.5 108.5t91 68.5t99 37.5t98 10.5q49 0 94.5 -10.5t90 -37.5t75 -68.5t45.5 -108.5t6 -153l-33 -308q-9 -86 -38 -153t-68.5 -108.5t-89.5 -68.5t-98 -37.5t-97 -10.5q-50 0 -95.5 10.5t-90.5 37.5t-76 68.5t-46.5 108.5t-6.5 153z M211 358q-9 -85 9.5 -149t57.5 -100.5t87.5 -54t105.5 -17.5t109 17.5t97.5 54t77 100.5t40.5 149l32 308q17 164 -58.5 242.5t-197.5 78.5q-57 0 -109 -17.5t-99 -54t-78.5 -100.5t-40.5 -149zM555 1126l240 287h71l-250 -287h-61z" />
<glyph unicode="&#xf4;" d="M150 358l32 308q9 86 38.5 153t69.5 108.5t91 68.5t99 37.5t98 10.5q49 0 94.5 -10.5t90 -37.5t75 -68.5t45.5 -108.5t6 -153l-33 -308q-9 -86 -38 -153t-68.5 -108.5t-89.5 -68.5t-98 -37.5t-97 -10.5q-50 0 -95.5 10.5t-90.5 37.5t-76 68.5t-46.5 108.5t-6.5 153z M211 358q-9 -85 9.5 -149t57.5 -100.5t87.5 -54t105.5 -17.5t109 17.5t97.5 54t77 100.5t40.5 149l32 308q17 164 -58.5 242.5t-197.5 78.5q-57 0 -109 -17.5t-99 -54t-78.5 -100.5t-40.5 -149zM342 1126l246 287h47l184 -287h-69l-148 226l-190 -226h-70z" />
<glyph unicode="&#xf5;" d="M150 358l32 308q9 86 38.5 153t69.5 108.5t91 68.5t99 37.5t98 10.5q49 0 94.5 -10.5t90 -37.5t75 -68.5t45.5 -108.5t6 -153l-33 -308q-9 -86 -38 -153t-68.5 -108.5t-89.5 -68.5t-98 -37.5t-97 -10.5q-50 0 -95.5 10.5t-90.5 37.5t-76 68.5t-46.5 108.5t-6.5 153z M211 358q-9 -85 9.5 -149t57.5 -100.5t87.5 -54t105.5 -17.5t109 17.5t97.5 54t77 100.5t40.5 149l32 308q17 164 -58.5 242.5t-197.5 78.5q-57 0 -109 -17.5t-99 -54t-78.5 -100.5t-40.5 -149zM291 1143q8 88 48 128t89 40q51 0 110.5 -25.5t112.5 -51.5t86 -26 q36 0 57.5 20.5t26.5 82.5h62q-8 -88 -48 -126t-90 -38q-51 0 -110 25.5t-111.5 51t-85.5 25.5q-36 0 -58.5 -22t-27.5 -84h-61z" />
<glyph unicode="&#xf6;" d="M150 358l32 308q9 86 38.5 153t69.5 108.5t91 68.5t99 37.5t98 10.5q49 0 94.5 -10.5t90 -37.5t75 -68.5t45.5 -108.5t6 -153l-33 -308q-9 -86 -38 -153t-68.5 -108.5t-89.5 -68.5t-98 -37.5t-97 -10.5q-50 0 -95.5 10.5t-90.5 37.5t-76 68.5t-46.5 108.5t-6.5 153z M211 358q-9 -85 9.5 -149t57.5 -100.5t87.5 -54t105.5 -17.5t109 17.5t97.5 54t77 100.5t40.5 149l32 308q17 164 -58.5 242.5t-197.5 78.5q-57 0 -109 -17.5t-99 -54t-78.5 -100.5t-40.5 -149zM340 1184l27 252h61l-27 -252h-61zM770 1184l27 252h61l-27 -252h-61z" />
<glyph unicode="&#xf7;" horiz-adv-x="995" d="M217 700l6 54h707l-6 -54h-707zM512 406l16 161h58l-17 -161h-57zM563 887l17 162h57l-16 -162h-58z" />
<glyph unicode="&#xf8;" d="M109 -41l94 137q-69 100 -53 262l32 308q9 86 38.5 153t69.5 108.5t91 68.5t99 37.5t98 10.5q143 0 225 -79l69 100h62l-96 -139q68 -94 51 -260l-33 -308q-9 -86 -38 -153t-68.5 -108.5t-89.5 -68.5t-98 -37.5t-97 -10.5q-142 0 -227 77l-68 -98h-61zM211 358 q-11 -121 33 -204l524 757q-70 76 -197 76q-57 0 -109 -17.5t-99 -54t-78.5 -100.5t-40.5 -149zM274 111q71 -74 197 -74q57 0 109 17.5t97.5 54t77 100.5t40.5 149l32 308q11 124 -30 202z" />
<glyph unicode="&#xf9;" horiz-adv-x="993" d="M178 338l74 686h61l-73 -686q-13 -134 51 -217.5t201 -83.5q134 0 227 99.5t110 260.5l68 627h61l-108 -1024h-62l19 174q-56 -99 -144.5 -146.5t-193.5 -47.5q-108 0 -178.5 52t-96 131t-16.5 175zM410 1413h71l178 -287h-61z" />
<glyph unicode="&#xfa;" horiz-adv-x="993" d="M178 338l74 686h61l-73 -686q-13 -134 51 -217.5t201 -83.5q134 0 227 99.5t110 260.5l68 627h61l-108 -1024h-62l19 174q-56 -99 -144.5 -146.5t-193.5 -47.5q-108 0 -178.5 52t-96 131t-16.5 175zM592 1126l239 287h72l-250 -287h-61z" />
<glyph unicode="&#xfb;" horiz-adv-x="993" d="M178 338l74 686h61l-73 -686q-13 -134 51 -217.5t201 -83.5q134 0 227 99.5t110 260.5l68 627h61l-108 -1024h-62l19 174q-56 -99 -144.5 -146.5t-193.5 -47.5q-108 0 -178.5 52t-96 131t-16.5 175zM379 1126l246 287h47l184 -287h-70l-147 226l-190 -226h-70z" />
<glyph unicode="&#xfc;" horiz-adv-x="993" d="M178 338l74 686h61l-73 -686q-13 -134 51 -217.5t201 -83.5q134 0 227 99.5t110 260.5l68 627h61l-108 -1024h-62l19 174q-56 -99 -144.5 -146.5t-193.5 -47.5q-108 0 -178.5 52t-96 131t-16.5 175zM377 1184l26 252h62l-27 -252h-61zM807 1184l27 252h61l-27 -252h-61z " />
<glyph unicode="&#xfd;" horiz-adv-x="882" d="M-33 -410l13 52q76 -21 126 -21q81 0 133.5 50t114.5 184l56 125l-254 1044h63l234 -952l430 952h61l-532 -1167q-41 -90 -80 -148.5t-77.5 -88t-73 -40t-79.5 -10.5q-54 0 -135 20zM535 1126l239 287h72l-250 -287h-61z" />
<glyph unicode="&#xfe;" horiz-adv-x="962" d="M100 -410l195 1844l63 20l-63 -594q113 184 328 184q104 0 176.5 -49t102.5 -129.5t20 -179.5l-37 -348q-16 -152 -117.5 -255t-257.5 -103q-215 0 -289 184l-59 -574h-62zM246 397q-17 -162 52 -261t202 -99q138 0 224.5 84.5t98.5 216.5l37 348q14 132 -54 216.5 t-206 84.5q-133 0 -223 -99t-107 -261z" />
<glyph unicode="&#xff;" horiz-adv-x="882" d="M-33 -410l13 52q76 -21 126 -21q81 0 133.5 50t114.5 184l56 125l-254 1044h63l234 -952l430 952h61l-532 -1167q-41 -90 -80 -148.5t-77.5 -88t-73 -40t-79.5 -10.5q-54 0 -135 20zM319 1184l27 252h62l-27 -252h-62zM750 1184l26 252h62l-27 -252h-61z" />
<glyph unicode="&#x152;" horiz-adv-x="1822" d="M188 420l62 594q12 114 56.5 201t111 138t144.5 76t165 25q120 0 212 -46t136 -140l19 166h809l-9 -62h-745l-66 -614h672l-6 -62h-672l-67 -635h747l-6 -61h-809l19 166q-66 -94 -168.5 -140t-221.5 -46q-87 0 -160 25t-128.5 76t-81.5 138t-13 201zM250 420 q-11 -101 9 -176t67 -118.5t109.5 -64t142.5 -20.5q78 0 144 19t122.5 59t92.5 110t46 164l66 621q11 101 -10 176t-68 118.5t-109.5 64t-142.5 20.5q-167 0 -277 -91t-131 -288z" />
<glyph unicode="&#x153;" horiz-adv-x="1576" d="M150 358l32 308q9 86 38.5 153t69.5 108.5t91 68.5t99 37.5t98 10.5q64 0 120 -17t107 -63.5t72 -119.5q55 106 149 153t197 47q49 0 94.5 -10.5t90 -37.5t75 -68.5t45.5 -108.5t6 -153q-5 -64 -27 -154h-635l-14 -147q-8 -75 4.5 -133.5t38.5 -94.5t64.5 -59t77.5 -32 t81 -9q164 0 340 88l9 -55q-191 -90 -365 -90q-41 0 -82 9.5t-85 30.5t-79.5 62.5t-52.5 99.5q-54 -107 -148 -154.5t-196 -47.5q-50 0 -95.5 10.5t-90.5 37.5t-76 68.5t-46.5 108.5t-6.5 153zM211 358q-9 -85 9.5 -149t57.5 -100.5t87.5 -54t105.5 -17.5t109 17.5t97.5 54 t77 100.5t40.5 149l32 308q17 164 -58.5 242.5t-197.5 78.5q-57 0 -109 -17.5t-99 -54t-78.5 -100.5t-40.5 -149zM879 569h581q1 9 6.5 43.5t6.5 53.5q17 164 -58.5 242.5t-197.5 78.5q-57 0 -109.5 -17.5t-99 -54t-78.5 -100.5t-41 -149z" />
<glyph unicode="&#x178;" horiz-adv-x="1075" d="M172 1434h68l362 -813l537 813h67l-581 -875l-60 -559h-61l59 561zM459 1593l26 252h62l-27 -252h-61zM889 1593l26 252h62l-27 -252h-61z" />
<glyph unicode="&#x2c6;" horiz-adv-x="972" d="M367 1126l245 287h47l185 -287h-70l-147 226l-191 -226h-69z" />
<glyph unicode="&#x2dc;" horiz-adv-x="663" d="M258 1143q8 88 48 128t89 40q40 0 87 -16t82 -35.5t74.5 -35.5t66.5 -16q36 0 57 20.5t26 82.5h62q-8 -88 -47.5 -126t-89.5 -38q-51 0 -110 25.5t-111.5 51t-85.5 25.5q-36 0 -59 -22t-28 -84h-61z" />
<glyph unicode="&#x2000;" horiz-adv-x="949" />
<glyph unicode="&#x2001;" horiz-adv-x="1898" />
<glyph unicode="&#x2002;" horiz-adv-x="949" />
<glyph unicode="&#x2003;" horiz-adv-x="1898" />
<glyph unicode="&#x2004;" horiz-adv-x="632" />
<glyph unicode="&#x2005;" horiz-adv-x="474" />
<glyph unicode="&#x2006;" horiz-adv-x="316" />
<glyph unicode="&#x2007;" horiz-adv-x="316" />
<glyph unicode="&#x2008;" horiz-adv-x="237" />
<glyph unicode="&#x2009;" horiz-adv-x="379" />
<glyph unicode="&#x200a;" horiz-adv-x="105" />
<glyph unicode="&#x2010;" horiz-adv-x="909" d="M158 485l6 54h696l-6 -54h-696z" />
<glyph unicode="&#x2011;" horiz-adv-x="909" d="M158 485l6 54h696l-6 -54h-696z" />
<glyph unicode="&#x2012;" horiz-adv-x="909" d="M158 485l6 54h696l-6 -54h-696z" />
<glyph unicode="&#x2013;" horiz-adv-x="1216" d="M158 485l6 54h1003l-6 -54h-1003z" />
<glyph unicode="&#x2014;" horiz-adv-x="1421" d="M158 485l6 54h1208l-6 -54h-1208z" />
<glyph unicode="&#x2018;" horiz-adv-x="339" d="M248 999l47 435h43l-14 -271l-19 -164h-57z" />
<glyph unicode="&#x2019;" horiz-adv-x="339" d="M258 999l14 273l19 162h57l-47 -435h-43z" />
<glyph unicode="&#x201a;" horiz-adv-x="344" d="M129 -270l14 270l17 162h57l-45 -432h-43z" />
<glyph unicode="&#x201c;" horiz-adv-x="745" d="M248 999l47 435h43l-14 -271l-19 -164h-57zM653 999l47 435h43l-14 -271l-18 -164h-58z" />
<glyph unicode="&#x201d;" horiz-adv-x="745" d="M258 999l14 273l19 162h57l-47 -435h-43zM664 999l14 273l18 162h58l-47 -435h-43z" />
<glyph unicode="&#x201e;" horiz-adv-x="749" d="M129 -270l14 270l17 162h57l-45 -432h-43zM537 -270l14 270l16 162h58l-45 -432h-43z" />
<glyph unicode="&#x2022;" horiz-adv-x="358" d="M217 653l16 168h62l-16 -168h-62z" />
<glyph unicode="&#x2026;" horiz-adv-x="1157" d="M143 0l17 162h57l-16 -162h-58zM551 0l16 162h58l-17 -162h-57zM956 0l17 162h57l-16 -162h-58z" />
<glyph unicode="&#x202f;" horiz-adv-x="379" />
<glyph unicode="&#x2039;" horiz-adv-x="684" d="M119 485l4 50l543 407l-7 -68l-479 -362v-4l404 -358l-9 -68z" />
<glyph unicode="&#x203a;" horiz-adv-x="684" d="M125 82l8 68l477 358v4l-401 362l6 68l457 -407l-4 -50z" />
<glyph unicode="&#x205f;" horiz-adv-x="474" />
<glyph unicode="&#x20ac;" horiz-adv-x="1198" d="M141 573l9 62h122l19 184h-123l6 62h123l14 133q12 114 56.5 201t111 138t144.5 76t165 25t159.5 -25t128 -76t81.5 -138t14 -201l-63 -21l2 21q11 101 -10 176t-68 118.5t-109.5 64t-142.5 20.5t-146.5 -20.5t-122.5 -64t-91.5 -118t-46.5 -176.5l-15 -133h334l-26 -62 h-314l-18 -184h334l-29 -62h-311l-17 -153q-11 -101 9 -176t67 -118.5t109.5 -64t142.5 -20.5t147 20.5t123 64t92.5 118t47.5 176.5l2 20h61l-2 -20q-10 -92 -41.5 -166.5t-76.5 -125t-104 -84.5t-122.5 -49t-132.5 -15q-87 0 -160 25t-128.5 76t-81.5 138t-13 201l16 153 h-125z" />
<glyph unicode="&#x2122;" horiz-adv-x="1497" d="M248 1395l4 39h483l-4 -39h-215l-86 -822h-45l86 822h-223zM780 573l92 861h50l215 -455l309 455h45l-92 -861h-45l59 560q4 47 8 76t10.5 69.5t12.5 87.5l-297 -438h-37l-205 440q-6 -68 -10.5 -125.5t-9.5 -109.5l-60 -560h-45z" />
<glyph unicode="&#x25fc;" horiz-adv-x="1024" d="M0 0v1024h1024v-1024h-1024z" />
</font>
</defs>
</svg>
