<?xml version="1.0" standalone="no"?>
<!DOCTYPE svg PUBLIC "-//W3C//DTD SVG 1.1//EN" "http://www.w3.org/Graphics/SVG/1.1/DTD/svg11.dtd" >
<svg xmlns="http://www.w3.org/2000/svg">
<metadata></metadata>
<defs>
<font id="argosbook_italic" horiz-adv-x="997" >
<font-face units-per-em="2048" ascent="1536" descent="-512" />
<missing-glyph horiz-adv-x="409" />
<glyph unicode="&#xfb01;" horiz-adv-x="1019" d="M147 909l13 115h135l16 164q10 89 38 150.5t71.5 95t93.5 47.5t113 14q91 0 182 -31l-29 -110q-63 26 -145 26q-84 0 -126 -45t-54 -151l-17 -160h254l-39 -115h-227l-96 -909h-144l97 909h-136zM748 0l108 1024h143l-108 -1024h-143zM870 1176l29 258h143l-28 -258h-144 z" />
<glyph unicode="&#xfb02;" horiz-adv-x="1019" d="M147 909l13 115h135l16 164q10 89 38 150.5t71.5 95t93.5 47.5t113 14q91 0 182 -31l-29 -110q-63 26 -145 26q-84 0 -126 -45t-54 -151l-17 -160h254l-39 -115h-227l-96 -909h-144l97 909h-136zM748 0l151 1434l145 26l-153 -1460h-143z" />
<glyph horiz-adv-x="0" />
<glyph horiz-adv-x="682" />
<glyph unicode=" "  horiz-adv-x="409" />
<glyph unicode="&#x09;" horiz-adv-x="409" />
<glyph unicode="&#xa0;" horiz-adv-x="409" />
<glyph unicode="!" horiz-adv-x="462" d="M166 0l20 201h129l-20 -201h-129zM203 350l104 1084h150l-125 -1084h-129z" />
<glyph unicode="&#x22;" horiz-adv-x="823" d="M250 952l6 281l23 201h131l-23 -201l-53 -281h-84zM690 952l6 281l23 201h129l-23 -201l-51 -281h-84z" />
<glyph unicode="#" horiz-adv-x="1273" d="M133 424l12 111h261l36 364h-260l13 113h260l45 422h110l-45 -422h359l45 422h110l-45 -422h256l-12 -113h-256l-37 -364h256l-12 -111h-256l-45 -424h-111l45 424h-358l-45 -424h-111l45 424h-260zM516 535h358l39 364h-358z" />
<glyph unicode="$" horiz-adv-x="1118" d="M145 438l2 21h150l-2 -21q-10 -88 8 -153t59.5 -102.5t96 -55.5t123.5 -18q141 0 228.5 65.5t100.5 187.5q7 64 -13.5 113t-61 80.5t-94.5 56t-114.5 45.5t-120.5 43t-113 54t-92.5 73.5t-58.5 107t-10 148.5q17 167 138.5 263.5t300.5 105.5l20 186h105l-19 -186 q174 -18 267 -131t71 -326l-151 -24l4 24q18 173 -55 251.5t-214 78.5q-137 0 -221 -60.5t-96 -179.5q-7 -64 14 -113t61 -80t94 -55.5t114.5 -45t120.5 -42.5t113 -54t92 -73.5t58 -106.5t11 -148q-17 -165 -138.5 -267t-299.5 -118l-21 -187h-104l20 187 q-88 6 -159.5 35.5t-125 83t-77.5 140t-11 197.5z" />
<glyph unicode="%" horiz-adv-x="1636" d="M252 944l24 242q14 132 100 200t199 68q114 0 184 -67.5t56 -200.5l-22 -242q-7 -68 -35 -121t-70 -84t-91 -47t-103 -16q-113 0 -184.5 68t-57.5 200zM354 952q-10 -91 32 -132.5t118 -41.5q167 0 186 174l23 226q10 91 -31.5 132.5t-118.5 41.5q-164 0 -186 -174z M449 0l778 1434h108l-778 -1434h-108zM969 248l26 241q13 132 98.5 200.5t198.5 68.5q73 0 129.5 -27t90 -89.5t24.5 -152.5l-27 -241q-7 -68 -35 -121t-70 -84t-91 -47t-103 -16q-113 0 -184 68t-57 200zM1073 256q-10 -91 31.5 -132.5t116.5 -41.5q77 0 127.5 41.5 t58.5 132.5l25 225q10 91 -31.5 132.5t-118.5 41.5q-75 0 -125.5 -41.5t-60.5 -132.5z" />
<glyph unicode="&#x26;" horiz-adv-x="1333" d="M147 344q14 132 97.5 225t222.5 162q-83 94 -126.5 183.5t-33.5 183.5q18 173 140 264.5t307 91.5q180 0 279.5 -91.5t84.5 -240.5q-8 -74 -44.5 -136t-97 -110.5t-130.5 -85t-160 -69.5l313 -342q67 118 113 278h133q-66 -209 -160 -362l189 -201l-103 -106l-182 192 q-173 -200 -444 -200q-88 0 -163.5 23.5t-131.5 68t-84 115t-19 157.5zM297 348q-13 -118 66.5 -182t209.5 -64q209 0 332 160l-356 387q-111 -56 -176 -127.5t-76 -173.5zM453 1098q-7 -75 32 -144.5t119 -154.5q91 34 153 63t115 67t81 84.5t34 104.5q10 104 -57 161.5 t-187 57.5q-123 0 -200.5 -60.5t-89.5 -178.5z" />
<glyph unicode="'" horiz-adv-x="382" d="M250 952l6 281l23 201h131l-23 -201l-53 -281h-84z" />
<glyph unicode="(" horiz-adv-x="577" d="M170 717q26 259 142.5 532t287.5 492h113q-374 -538 -426 -1024q-51 -481 211 -1024h-113q-131 229 -187.5 495t-27.5 529z" />
<glyph unicode=")" horiz-adv-x="577" d="M16 -307q375 543 426 1024q51 475 -211 1024h111q126 -217 185 -490t32 -534q-28 -263 -140.5 -529.5t-291.5 -494.5h-111z" />
<glyph unicode="*" horiz-adv-x="694" d="M213 1092l197 96l-177 96l48 70l163 -111l15 209h80l-33 -209l190 111l35 -70l-199 -96l177 -96l-47 -70l-168 115l-11 -211h-80l29 211l-184 -115z" />
<glyph unicode="+" horiz-adv-x="911" d="M164 670l12 116h305l31 304h117l-33 -304h305l-12 -116h-305l-33 -305h-115l33 305h-305z" />
<glyph unicode="," horiz-adv-x="395" d="M27 -281l106 281l21 201h129l-21 -201l-127 -281h-108z" />
<glyph unicode="-" horiz-adv-x="909" d="M154 455l12 114h696l-12 -114h-696z" />
<glyph unicode="." horiz-adv-x="395" d="M133 0l21 201h129l-21 -201h-129z" />
<glyph unicode="/" horiz-adv-x="952" d="M47 0l899 1434h113l-897 -1434h-115z" />
<glyph unicode="0" horiz-adv-x="1181" d="M176 440l57 553q13 119 59 209.5t116.5 144.5t155 80.5t181.5 26.5q96 0 174.5 -26.5t137.5 -80.5t86 -144.5t14 -209.5l-57 -553q-13 -119 -59 -209.5t-116.5 -144t-154.5 -80t-180 -26.5q-97 0 -176 26.5t-138.5 80t-86 144t-13.5 209.5zM326 438q-19 -172 57 -250.5 t219 -78.5q142 0 235.5 78.5t112.5 250.5l60 557q18 171 -60 250.5t-221 79.5q-142 0 -235 -79t-111 -251z" />
<glyph unicode="1" horiz-adv-x="739" d="M162 1200l364 234h150l-152 -1434h-149l135 1276l-285 -180z" />
<glyph unicode="2" horiz-adv-x="1124" d="M96 0l15 135q8 74 42 141.5t85 120t114.5 100.5t132.5 90t138 82t132 81.5t112.5 84.5t81.5 95.5t38 109.5q14 145 -58.5 215t-213.5 70q-142 0 -235 -79t-111 -251l-4 -24h-148l2 24q12 119 58 209.5t117 143.5t155 79.5t180 26.5q202 0 316 -105.5t92 -312.5 q-10 -94 -61.5 -176.5t-127 -143.5t-164.5 -116.5t-178 -107t-163.5 -103t-125 -115.5t-57.5 -135l-2 -10h784l-14 -129h-932z" />
<glyph unicode="3" horiz-adv-x="1136" d="M143 426l2 20h150l-2 -20q-18 -164 61 -240.5t228 -76.5q136 0 231.5 69t108.5 189q35 297 -281 297h-113l13 129h112q124 0 216.5 69.5t105.5 186.5q16 145 -55 210.5t-205 65.5q-140 0 -232 -79.5t-110 -250.5l-2 -24l-148 24q13 119 59 209.5t116 143.5t153 79.5 t178 26.5q90 0 164 -22.5t130 -69t82 -125.5t15 -184q-11 -109 -78 -192t-168 -130q225 -88 197 -377q-12 -113 -85.5 -199.5t-182.5 -130.5t-234 -44q-100 0 -181.5 26t-142 78.5t-88 139.5t-14.5 202z" />
<glyph unicode="4" horiz-adv-x="1175" d="M88 381l14 129l797 924h150l-99 -924h211l-39 -129h-186l-39 -381h-149l40 381h-700zM272 510h529l73 696z" />
<glyph unicode="5" horiz-adv-x="1124" d="M150 426l2 20h149l-2 -20q-19 -163 59 -240t220 -77q145 0 239 77.5t113 245.5l4 41q18 166 -59.5 245t-221.5 79q-94 0 -170.5 -34t-126.5 -85l-139 27l76 729h823l-41 -129h-653l-49 -476q147 95 309 95q90 0 166 -26.5t134 -79.5t85.5 -141.5t15.5 -203.5l-4 -41 q-13 -116 -59.5 -204.5t-117 -141.5t-156 -79.5t-183.5 -26.5q-96 0 -174.5 26t-137.5 78t-86.5 140t-14.5 202z" />
<glyph unicode="6" horiz-adv-x="1155" d="M168 387l65 606q13 119 59 209.5t116.5 144.5t155 80.5t181.5 26.5t175 -24.5t137.5 -75.5t87 -139.5t14.5 -206.5l-151 -27l2 27q9 87 -8 149.5t-57.5 98.5t-93.5 52.5t-122 16.5q-142 0 -235 -79t-111 -251l-31 -293q57 64 145.5 98t186.5 34q95 0 173 -23.5 t137.5 -70.5t88 -127t17.5 -185l-6 -41q-19 -136 -93 -229.5t-178.5 -135.5t-232.5 -42q-95 0 -175.5 26.5t-140 76.5t-88.5 128.5t-18 175.5zM317 389q-13 -135 67 -207.5t218 -72.5q139 0 230 68.5t112 211.5l4 35q14 144 -63.5 212.5t-218.5 68.5t-234.5 -69t-109.5 -212 z" />
<glyph unicode="7" horiz-adv-x="991" d="M193 1305l40 129h867l-17 -129q-597 -629 -671 -1305h-158q36 340 216.5 682.5t463.5 622.5h-741z" />
<glyph unicode="8" horiz-adv-x="1138" d="M150 360l4 41q11 106 81 193.5t187 132.5q-92 46 -140 128t-38 192l4 40q18 153 151 260t328 107q85 0 161 -25t132.5 -70.5t85.5 -116t20 -155.5l-4 -40q-12 -110 -77 -192t-166 -128q102 -43 156 -127t42 -199l-4 -41q-12 -116 -85.5 -204t-182 -132t-234.5 -44 t-225 44t-153.5 132t-42.5 204zM299 379q-14 -128 66.5 -199t218.5 -71q147 0 239.5 74.5t104.5 222.5q12 125 -67 191.5t-218 66.5q-306 0 -344 -285zM391 1042q-12 -116 65 -182.5t201 -66.5q87 0 154 28t112.5 93t55.5 161q8 78 -27 136t-97 86t-142 28q-135 0 -222 -70 t-100 -213z" />
<glyph unicode="9" horiz-adv-x="1155" d="M147 426l3 20h147l-2 -20q-18 -163 59 -240t219 -77q93 0 164.5 30.5t122.5 106t64 192.5l28 289q-57 -64 -144 -97.5t-187 -33.5q-95 0 -173.5 24t-137 72t-86.5 128.5t-17 185.5l4 41q11 97 56.5 175.5t114.5 128.5t155 76.5t180 26.5t174 -26.5t138.5 -76.5 t87.5 -128.5t18 -175.5l-62 -607q-13 -119 -60 -209.5t-117.5 -144t-154.5 -80t-180 -26.5t-174.5 26t-138 78t-87 140t-14.5 202zM356 1018q-16 -150 63 -221.5t222 -71.5q151 0 238.5 73t105.5 244q14 135 -65.5 209t-217.5 74q-147 0 -238 -77t-108 -230z" />
<glyph unicode=":" horiz-adv-x="403" d="M152 135l20 201h129l-20 -201h-129zM203 627l20 200h129l-20 -200h-129z" />
<glyph unicode=";" horiz-adv-x="473" d="M80 -281l104 281l21 201h129l-21 -201l-127 -281h-106zM252 627l20 200h129l-20 -200h-129z" />
<glyph unicode="&#x3c;" horiz-adv-x="811" d="M158 668l10 108l608 219l-12 -121l-436 -149v-4l403 -150l-12 -118z" />
<glyph unicode="=" horiz-adv-x="966" d="M186 516l13 115h696l-12 -115h-697zM217 817l12 115h697l-13 -115h-696z" />
<glyph unicode="&#x3e;" horiz-adv-x="811" d="M186 453l13 118l436 150v4l-404 149l13 121l561 -219l-10 -108z" />
<glyph unicode="?" horiz-adv-x="1062" d="M170 971l4 24q12 119 58 209.5t117 143.5t155 79.5t180 26.5q97 0 175.5 -25t138 -76t87 -138t15.5 -203q-10 -94 -39 -168.5t-71 -124.5t-98.5 -84.5t-118 -51t-132.5 -20.5l-20 -213h-132l37 334h78q72 0 128 16t103 53t76.5 103t40.5 160q16 164 -61 236.5t-221 72.5 q-142 0 -235 -79t-111 -251l-5 -24h-149zM453 0l20 201h129l-20 -201h-129z" />
<glyph unicode="@" horiz-adv-x="1425" d="M158 289l47 440q14 126 70.5 227t143.5 166.5t196 100t231 34.5q162 0 286 -59t191.5 -180.5t50.5 -288.5l-26 -248q-17 -162 -121 -248.5t-262 -91.5h-72v99q-73 -113 -211 -113q-109 0 -166.5 73.5t-46.5 184.5l25 229q12 111 83.5 184.5t178.5 73.5q140 0 184 -110 l43 96h88l-61 -602q45 5 81 18t68 38t52 67.5t26 101.5l27 248q11 104 -19 186.5t-91 133t-142.5 76.5t-177.5 26t-182.5 -26t-158.5 -76.5t-119.5 -133t-58.5 -186.5l-47 -440q-21 -208 84.5 -315t300.5 -107l-10 -105q-245 0 -378 137.5t-107 389.5zM592 387 q-9 -73 26 -118.5t109 -45.5t121.5 56t58.5 149l15 143q9 93 -27.5 149t-110.5 56q-73 0 -117.5 -45.5t-52.5 -118.5z" />
<glyph unicode="A" horiz-adv-x="1159" d="M29 0l624 1444h150l325 -1444h-157l-82 391h-537l-164 -391h-159zM403 520h463l-155 727z" />
<glyph unicode="B" horiz-adv-x="1193" d="M158 0l151 1434h482q197 0 293 -86q81 -73 82 -205q0 -24 -3 -49l-6 -68q-12 -101 -62.5 -172.5t-131.5 -110.5q103 -36 154 -117q41 -65 40 -156q0 -23 -2 -48l-8 -68q-18 -175 -148 -264.5t-335 -89.5h-506zM319 129h355q299 0 325 240l7 55q2 21 2 40q0 94 -52 142 q-62 58 -196 58h-383zM391 793h320q272 0 295 229l6 53q2 20 2 38q0 91 -49 137q-59 56 -201 55h-320z" />
<glyph unicode="C" horiz-adv-x="1148" d="M176 440l57 553q13 119 59 209.5t116.5 144.5t155 80.5t181.5 26.5q76 0 141.5 -16t120.5 -51.5t91.5 -88t52.5 -130.5q10 -48 9 -102q0 -34 -3 -71l-151 -24l4 24q3 32 3 61q0 126 -63 190q-78 80 -221 79q-142 0 -235 -79t-111 -251l-57 -557q-4 -34 -4 -65 q0 -123 61 -185q76 -78 219 -79q142 0 235.5 78.5t112.5 250.5l2 21h150l-2 -21q-13 -119 -59 -209t-116.5 -143.5t-154.5 -79.5t-180 -26q-97 0 -176 26.5t-138.5 80t-85.5 143.5q-18 61 -18 135q0 36 4 75z" />
<glyph unicode="D" horiz-adv-x="1220" d="M160 0l151 1434h449q77 0 144.5 -16.5t126 -53.5t97.5 -92.5t56 -139.5q10 -51 10 -108q0 -37 -4 -78l-47 -459q-14 -128 -64 -224.5t-125 -152.5t-161.5 -83t-184.5 -27h-448zM322 129h301q69 0 128.5 18.5t111 58t86 110.5t44.5 167l49 467q3 33 3 62q-1 58 -13 105 q-20 71 -63 111t-99 58.5t-125 18.5h-301z" />
<glyph unicode="E" horiz-adv-x="1081" d="M160 0l151 1434h852l-14 -129h-703l-53 -512h629l-12 -129h-631l-57 -535h704l-14 -129h-852z" />
<glyph unicode="F" horiz-adv-x="1060" d="M160 0l151 1434h850l-16 -129h-699l-57 -551h555l-39 -129h-530l-66 -625h-149z" />
<glyph unicode="G" horiz-adv-x="1169" d="M176 440l57 553q13 119 59 209.5t116.5 144.5t155 80.5t181.5 26.5q76 0 141.5 -16t120.5 -51.5t91.5 -88t52.5 -130.5q10 -47 10 -102q0 -34 -4 -71l-2 -24h-149l4 24q3 32 3 61q0 125 -63 190q-78 79 -221 79q-142 0 -235 -79t-111 -251l-57 -557q-4 -34 -4 -65 q0 -123 61 -185q76 -79 219 -79q142 0 235.5 78t112.5 247l15 156h-332l41 125h454l-28 -277q-13 -119 -59 -209t-116.5 -143.5t-154.5 -79.5t-180 -26q-97 0 -176 26.5t-138.5 80t-85.5 143.5q-18 61 -18 135q0 36 4 75z" />
<glyph unicode="H" horiz-adv-x="1271" d="M160 0l151 1434h150l-68 -641h654l67 641h150l-152 -1434h-149l69 664h-653l-70 -664h-149z" />
<glyph unicode="I" horiz-adv-x="468" d="M160 0l151 1434h150l-152 -1434h-149z" />
<glyph unicode="J" horiz-adv-x="630" d="M49 0l12 125q143 0 221 76.5t97 238.5l104 994h150l-105 -994q-47 -440 -479 -440z" />
<glyph unicode="K" horiz-adv-x="1064" d="M160 0l151 1434h150l-72 -674l645 674h174l-678 -701l543 -733h-184l-506 694l-74 -694h-149z" />
<glyph unicode="L" horiz-adv-x="1038" d="M160 0l151 1434h150l-139 -1305h692l-39 -129h-815z" />
<glyph unicode="M" horiz-adv-x="1413" d="M158 0l151 1434h158l324 -697l464 697h152l-152 -1434h-149l84 807q16 159 47 375l-414 -615h-123l-282 621q-19 -240 -33 -381l-84 -807h-143z" />
<glyph unicode="N" horiz-adv-x="1308" d="M158 0l151 1434h158l577 -1170q20 254 31 363l86 807h144l-152 -1434h-152l-585 1169q-16 -219 -31 -362l-84 -807h-143z" />
<glyph unicode="O" horiz-adv-x="1181" d="M176 440l57 553q13 119 59 209.5t116.5 144.5t155 80.5t181.5 26.5q96 0 174.5 -26.5t137.5 -80.5q59 -55 86 -145q18 -61 18 -135q0 -36 -4 -74l-57 -553q-13 -119 -59 -209.5t-116.5 -144t-154.5 -80t-180 -26.5q-97 0 -176 26.5t-138.5 80t-85.5 143.5q-18 61 -18 135 q0 36 4 75zM326 438q-4 -34 -4 -65q0 -123 61 -185q76 -78 219 -79q142 0 235.5 78.5t112.5 250.5l60 557q3 32 3 61q0 126 -63 190q-78 80 -221 79q-142 0 -235 -79t-111 -251z" />
<glyph unicode="P" horiz-adv-x="1130" d="M160 0l151 1434h457q95 0 174 -26.5t138 -78t87 -137.5q20 -61 20 -135q0 -29 -3 -60l-4 -32q-11 -109 -57 -194t-116 -137t-155 -78t-180 -26h-307l-56 -530h-149zM379 657h307q91 0 163 31t122 102.5t61 178.5l2 26q3 27 3 51q0 120 -65 183q-78 76 -220 76h-308z" />
<glyph unicode="Q" horiz-adv-x="1183" d="M174 422l62 590q15 144 88.5 245.5t181 149t239.5 47.5q203 0 321 -114q98 -96 98 -263q0 -31 -3 -65l-61 -590q-14 -140 -82.5 -238t-177.5 -151l196 -183l-92 -88l-244 228q-58 -10 -110 -10q-132 0 -230 47.5t-150 148.5q-40 78 -40 181q0 31 4 65zM322 422 q-3 -30 -3 -57q0 -118 63 -181q79 -78 220 -78q142 0 236 77.5t112 238.5l62 590q3 27 3 52q0 121 -65 186q-78 77 -219 77q-142 0 -236 -77t-112 -238z" />
<glyph unicode="R" horiz-adv-x="1181" d="M160 0l151 1434h475q206 0 312 -88q91 -75 91 -217q0 -24 -3 -50l-8 -73q-27 -243 -254 -314q67 -35 104.5 -107.5t44.5 -197.5l21 -387h-150l-18 375q-4 68 -19.5 115.5t-38 74.5t-60.5 41.5t-74.5 18.5t-92.5 4h-266l-66 -629h-149zM389 758h326q287 0 313 246l6 55 q2 20 2 37q0 98 -56 149q-66 60 -208 60h-328z" />
<glyph unicode="S" horiz-adv-x="1120" d="M145 438l2 21h150l-2 -21q-4 -31 -3 -60q0 -51 11 -93q18 -65 59.5 -102.5t96 -55.5t123.5 -18q140 0 228.5 65.5t100.5 185.5q2 16 2 31q0 45 -16 81q-21 48 -61.5 80.5t-94.5 57.5t-114.5 46.5t-121 44.5t-113.5 56t-92 76q-40 43 -58 109q-12 44 -12 97q0 26 3 53 q13 118 82 201.5t171 122t229 38.5q77 0 141.5 -16t117.5 -51.5t88 -88.5q36 -52 50 -130q9 -46 9 -98q0 -36 -5 -75l-2 -24h-149l4 24q4 34 4 65q0 124 -59 186q-73 78 -214 79q-135 0 -220 -59t-97 -170q-2 -17 -2 -34q0 -46 15 -84q20 -50 60 -82.5t94 -58t114.5 -46.5 t121 -43t114 -54t93 -74t58.5 -108q13 -45 13 -98q0 -25 -3 -52q-12 -120 -82.5 -207.5t-177 -131t-236.5 -43.5q-96 0 -176 26t-140.5 79t-88.5 143q-19 62 -19 137q0 35 4 73z" />
<glyph unicode="T" horiz-adv-x="942" d="M184 1305l17 129h843l-40 -129h-320l-139 -1305h-148l138 1305h-351z" />
<glyph unicode="U" horiz-adv-x="1222" d="M197 440l104 996h150l-105 -998q-4 -34 -4 -65q0 -123 62 -185q76 -78 219 -79q142 0 235.5 78.5t112.5 250.5l104 998h150l-105 -996q-13 -119 -59 -209.5t-116.5 -144t-154.5 -80t-180 -26.5q-97 0 -176 26.5t-138 79.5q-60 54 -86 144q-18 61 -17 135q0 36 4 75z" />
<glyph unicode="V" horiz-adv-x="1159" d="M180 1434h160l260 -1248l522 1248h158l-631 -1444h-149z" />
<glyph unicode="W" horiz-adv-x="1746" d="M188 1434h160l170 -1213l434 1213h156l172 -1215l428 1215h154l-535 -1444h-151l-177 1202l-432 -1202h-149z" />
<glyph unicode="X" horiz-adv-x="1105" d="M2 0l549 727l-387 707h164l315 -584l438 584h164l-534 -707l393 -727h-164l-324 606l-450 -606h-164z" />
<glyph unicode="Y" horiz-adv-x="1136" d="M166 1434h160l311 -746l477 746h160l-580 -885l-57 -549h-148l58 553z" />
<glyph unicode="Z" horiz-adv-x="1013" d="M53 0l15 129l841 1176h-698l41 129h846l-15 -129l-841 -1176h729l-15 -129h-903z" />
<glyph unicode="[" horiz-adv-x="618" d="M123 -307l215 2048h397l-12 -111h-287l-190 -1827h286l-12 -110h-397z" />
<glyph unicode="\" horiz-adv-x="952" d="M197 1434h114l594 -1434h-112z" />
<glyph unicode="]" horiz-adv-x="618" d="M33 -307l12 110h287l190 1827h-284l10 111h397l-215 -2048h-397z" />
<glyph unicode="^" horiz-adv-x="991" d="M293 594l239 287h111l180 -287h-125l-120 192l-160 -192h-125z" />
<glyph unicode="_" horiz-adv-x="894" d="M82 -156l12 115h697l-13 -115h-696z" />
<glyph unicode="`" horiz-adv-x="780" d="M381 1413h133l166 -287h-113z" />
<glyph unicode="a" d="M137 346l35 332q15 157 117.5 261.5t257.5 104.5q207 0 276 -165l29 145h125l-109 -1024h-125l2 145q-103 -165 -309 -165q-154 0 -236 104q-67 86 -66 207q0 27 3 55zM281 348q-2 -19 -2 -36q0 -88 46 -146q55 -70 169 -70q112 0 185.5 85t88.5 227l23 208q3 29 3 55 q0 104 -44 172q-56 85 -168 85q-115 0 -185.5 -70.5t-81.5 -181.5z" />
<glyph unicode="b" d="M129 0l152 1434l145 26l-61 -579q106 163 307 163q155 0 234 -104q66 -86 66 -210q0 -25 -3 -52l-37 -332q-15 -157 -118 -261.5t-257 -104.5q-205 0 -276 165l-27 -145h-125zM313 408q-3 -28 -3 -54q0 -105 46 -173q56 -85 170 -85t183.5 70.5t78.5 181.5l37 328 q2 19 2 36q0 88 -46 146q-55 70 -169 70q-113 0 -187 -85.5t-89 -226.5z" />
<glyph unicode="c" horiz-adv-x="868" d="M139 375l29 274q12 106 53.5 186t101.5 123.5t125 64.5t134 21q181 0 331 -92l-47 -104q-149 82 -272 82q-109 0 -188 -66t-93 -213l-28 -278q-3 -29 -3 -56q0 -43 8 -77q14 -56 48 -87t75.5 -45t92.5 -14q125 0 289 82l26 -104q-173 -92 -352 -92q-55 0 -104.5 12 t-95.5 41.5t-77.5 73.5t-46.5 113q-9 43 -9 93q0 30 3 62z" />
<glyph unicode="d" d="M137 346l35 332q15 157 117.5 261.5t257.5 104.5q202 0 270 -163l64 579l139 -26l-152 -1434h-125l2 145q-103 -165 -309 -165q-154 0 -236 104q-67 86 -66 207q0 27 3 55zM281 348q-2 -19 -2 -36q0 -88 46 -146q55 -70 169 -70q112 0 185.5 85t88.5 227l23 208 q3 29 3 55q0 104 -44 172q-56 85 -168 85q-115 0 -185.5 -70.5t-81.5 -181.5z" />
<glyph unicode="e" horiz-adv-x="958" d="M139 375l31 276q10 104 50.5 182.5t101 123t129 66t145.5 21.5q76 0 139 -21.5t113 -66.5q50 -44 72 -122q16 -54 15 -121q0 -30 -3 -62q-9 -81 -31 -168h-606l-10 -110q-3 -27 -3 -51q0 -46 10 -82q16 -56 53 -87t81 -45t96 -14q162 0 336 82l10 -106q-194 -90 -385 -90 q-70 0 -133 21t-116 65q-54 43 -80 123q-19 57 -18 126q0 29 3 60zM305 588h479q10 70 11 78q3 25 3 47q0 97 -50 151q-60 66 -164 66q-105 0 -181 -66.5t-90 -199.5z" />
<glyph unicode="f" horiz-adv-x="618" d="M147 909l13 115h135l16 164q10 89 38 150.5t71.5 95t93.5 47.5t113 14q91 0 182 -31l-29 -110q-63 26 -145 26q-84 0 -126 -45t-54 -151l-17 -160h254l-39 -115h-227l-96 -909h-144l97 909h-136z" />
<glyph unicode="g" d="M96 -338l47 105q160 -82 299 -82q50 0 94 14t83.5 44.5t67 86.5t36.5 133l18 193q-54 -66 -132.5 -101t-170.5 -35q-155 0 -235 105q-65 86 -65 206q0 27 3 56l31 291q15 157 119 261.5t258 104.5q206 0 274 -165l29 145h125l-113 -1059q-9 -86 -38 -155t-69.5 -113 t-92 -73.5t-104 -41.5t-107.5 -12q-191 0 -357 92zM285 389q-2 -19 -2 -36q0 -88 46 -146q55 -70 169 -70q112 0 185.5 85t88.5 227l19 167q3 29 3 55q0 104 -44 172q-56 85 -168 85q-115 0 -185.5 -70.5t-81.5 -181.5z" />
<glyph unicode="h" horiz-adv-x="1026" d="M129 0l152 1434l145 26l-61 -588q58 89 141 130.5t176 41.5q108 0 178 -50.5t94 -128.5q17 -55 18 -121q0 -27 -3 -56l-72 -688h-143l71 680q2 19 2 37q-1 85 -43 142q-52 69 -163 69q-115 0 -192.5 -86t-92.5 -226l-64 -616h-143z" />
<glyph unicode="i" horiz-adv-x="401" d="M129 0l109 1024h143l-109 -1024h-143zM252 1176l29 258h143l-29 -258h-143z" />
<glyph unicode="j" horiz-adv-x="401" d="M-184 -410l28 111q49 -16 115 -16q78 0 112 44.5t46 151.5l121 1143h143l-123 -1147q-18 -169 -91.5 -238t-193.5 -69q-78 0 -157 20zM252 1176l29 264h143l-29 -264h-143z" />
<glyph unicode="k" horiz-adv-x="954" d="M131 0l152 1434l147 26l-96 -909l545 473h170l-570 -494l475 -530h-180l-446 492l-54 -492h-143z" />
<glyph unicode="l" horiz-adv-x="401" d="M129 0l152 1434l145 26l-154 -1460h-143z" />
<glyph unicode="m" horiz-adv-x="1650" d="M129 0l109 1024h124l-4 -154q58 90 142.5 132t179.5 42q117 0 187 -56t91 -150q123 206 347 206q82 0 142.5 -28.5t94 -78.5t46.5 -113q8 -39 8 -82q0 -26 -3 -54l-71 -688h-144l72 680q2 19 2 37q0 85 -43 142q-52 69 -164 69t-190 -82.5t-92 -216.5l-66 -629h-143 l71 680q2 19 2 37q-1 85 -43 142q-52 69 -163 69q-115 0 -192.5 -86t-92.5 -226l-64 -616h-143z" />
<glyph unicode="n" horiz-adv-x="1026" d="M129 0l109 1024h124l-4 -154q58 90 142.5 132t179.5 42q82 0 142.5 -28.5t94 -78.5t47.5 -113q8 -40 8 -83q0 -26 -3 -53l-72 -688h-143l71 680q2 19 2 37q-1 85 -43 142q-52 69 -163 69q-115 0 -192.5 -86t-92.5 -226l-64 -616h-143z" />
<glyph unicode="o" horiz-adv-x="970" d="M139 373l31 278q10 104 50.5 182.5t101 123t129 66t145.5 21.5t140.5 -21.5t113.5 -66.5q50 -44 74 -122q16 -55 17 -123q0 -29 -3 -60l-31 -278q-11 -104 -51 -182.5t-100 -123t-128 -66t-145 -21.5t-141 21.5t-115 66t-75 122.5q-16 54 -16 120q0 30 3 63zM283 360 q-3 -25 -2 -47q0 -99 49 -153q61 -66 166 -66t179.5 66.5t88.5 199.5l31 304q3 25 3 48q0 98 -49 152q-60 66 -165 66t-181 -66.5t-90 -199.5z" />
<glyph unicode="p" d="M86 -410l152 1434h124l-4 -145q105 165 312 165q154 0 234 -104q67 -88 67 -214q0 -23 -2 -48l-37 -332q-16 -157 -117 -261.5t-256 -104.5q-201 0 -272 163l-58 -553h-143zM313 408q-3 -28 -3 -54q0 -105 46 -173q56 -85 170 -85t183.5 70.5t78.5 181.5l37 328 q2 19 2 36q0 88 -46 146q-55 70 -169 70q-113 0 -187 -85.5t-89 -226.5z" />
<glyph unicode="q" d="M137 346l35 332q15 157 119 261.5t258 104.5q206 0 274 -165l29 145h125l-154 -1454l-139 27l55 546q-103 -163 -305 -163q-155 0 -235 104q-65 86 -65 206q0 27 3 56zM281 348q-2 -19 -2 -36q0 -88 46 -146q55 -70 169 -70q112 0 185.5 85t88.5 227l23 208q3 29 3 55 q0 104 -44 172q-56 85 -168 85q-115 0 -185.5 -70.5t-81.5 -181.5z" />
<glyph unicode="r" horiz-adv-x="708" d="M129 0l109 1024h124l-6 -172q111 192 320 192q70 0 125 -22l-56 -137q-57 24 -127 24q-114 0 -191.5 -82.5t-90.5 -220.5l-64 -606h-143z" />
<glyph unicode="s" horiz-adv-x="901" d="M82 53l51 113q65 -31 152.5 -51.5t167.5 -20.5q115 0 181.5 47t74.5 125q1 11 1 21q0 33 -12 59q-16 34 -48 54.5t-74.5 35.5t-90 27.5t-95 27t-89.5 37t-73 54.5q-30 31 -46 82q-11 37 -12 82q0 17 2 36q11 113 112 187.5t281 74.5q24 0 48 -1.5t44 -3.5t42 -6 t37.5 -6.5t35.5 -8.5t30.5 -9t29 -9.5t25 -8.5t23 -8.5t19.5 -7.5l-53 -115q-160 70 -287 70q-103 0 -170 -38t-74 -112l-2 -22q-1 -44 23 -75q28 -39 78.5 -59.5t111.5 -37t122 -37.5t110.5 -52t75.5 -90q20 -44 20 -102q0 -20 -2 -41q-13 -134 -126 -209t-277 -75 q-217 0 -367 73z" />
<glyph unicode="t" horiz-adv-x="626" d="M143 909l15 115h133l22 205h144l-23 -205h256l-39 -115h-227l-66 -618q-3 -35 -4 -63q0 -60 17 -90q24 -44 104 -44q58 0 119 17l4 -111q-84 -20 -162 -20q-58 0 -100 14t-74 48q-34 32 -46 94q-7 36 -7 81q0 32 4 70l68 622h-138z" />
<glyph unicode="u" horiz-adv-x="1026" d="M164 336l74 688h143l-74 -680q-2 -18 -2 -34q0 -87 44 -145q52 -69 165 -69q114 0 190.5 86t90.5 226l67 616h144l-109 -1024h-127l6 154q-58 -90 -142.5 -132t-178.5 -42q-82 0 -143 28.5t-95 78.5q-33 50 -47 113q-8 40 -9 83q0 26 3 53z" />
<glyph unicode="v" horiz-adv-x="923" d="M145 1024h146l190 -856l373 856h141l-467 -1034h-139z" />
<glyph unicode="w" horiz-adv-x="1372" d="M152 1024h139l127 -858l305 858h141l125 -860l307 860h142l-389 -1034h-154l-121 848l-301 -848h-156z" />
<glyph unicode="x" horiz-adv-x="897" d="M23 0l405 512l-297 512h143l240 -403l324 403h145l-410 -512l301 -512h-145l-237 403l-326 -403h-143z" />
<glyph unicode="y" horiz-adv-x="917" d="M-37 -410l23 111q78 -20 133 -20q83 0 130 41.5t101 156.5l41 92l-250 1053h146l196 -860l369 860h141l-506 -1124q-61 -135 -120.5 -208.5t-115.5 -97.5t-134 -24q-64 0 -154 20z" />
<glyph unicode="z" horiz-adv-x="864" d="M59 0l11 115l657 794h-549l39 115h678l-12 -115l-656 -794h590l-10 -115h-748z" />
<glyph unicode="{" horiz-adv-x="579" d="M125 664l12 106q42 6 73 21t49.5 35t31 52t18 61.5t10.5 74.5q6 61 9.5 214.5t9.5 215.5q8 75 32.5 130t57.5 86.5t80.5 50t92 24.5t101.5 6l-10 -111q-28 0 -47 -1.5t-49 -7t-51.5 -19.5t-43 -35.5t-35.5 -58.5t-20 -85q-6 -59 -10.5 -226.5t-11.5 -233.5 q-11 -114 -58 -168t-130 -76v-4q78 -22 113 -76t24 -168q-6 -67 -37.5 -237t-38.5 -228q-4 -42 1 -74.5t15 -53.5t29 -36t35 -22.5t42 -11.5t41 -4.5t40 -0.5l-13 -110q-57 0 -100 6t-87 24.5t-70.5 50t-40 86.5t-5.5 130q7 64 37 217.5t37 212.5q5 67 2 117t-35.5 83.5 t-99.5 43.5z" />
<glyph unicode="|" horiz-adv-x="428" d="M125 -307l215 2048h111l-215 -2048h-111z" />
<glyph unicode="}" horiz-adv-x="579" d="M27 -307l10 110q25 0 40.5 0.5t42 4.5t44.5 11.5t40.5 22.5t36.5 36t26 53.5t16 74.5q7 66 11.5 235.5t10.5 229.5q11 113 59 167t130 77v4q-50 15 -81 39t-48 75.5t-9 129.5q7 61 38.5 228t37.5 232q6 57 -6 98t-31 61.5t-52.5 32t-56.5 13.5t-57 2l13 111 q57 0 100.5 -6t87.5 -24.5t70.5 -50t39.5 -86.5t5 -130q-6 -63 -36 -217t-36 -213q-6 -67 -3.5 -117t35 -83.5t99.5 -43.5l-10 -106q-53 -7 -87.5 -27t-53.5 -54.5t-27.5 -70.5t-13.5 -92q-7 -61 -10.5 -214.5t-10.5 -215.5q-8 -75 -32.5 -130t-57.5 -86.5t-80.5 -50 t-92 -24.5t-101.5 -6z" />
<glyph unicode="~" horiz-adv-x="860" d="M195 635q11 101 55.5 148.5t109.5 47.5q48 0 103.5 -22t103 -44t76.5 -22q34 0 52 18t24 70h100q-11 -101 -55 -146.5t-109 -45.5q-49 0 -104 22t-101 44t-75 22q-34 0 -54 -19.5t-26 -72.5h-100z" />
<glyph unicode="&#xa1;" horiz-adv-x="462" d="M113 -410l123 1084h131l-105 -1084h-149zM252 823l22 201h129l-22 -201h-129z" />
<glyph unicode="&#xa2;" horiz-adv-x="913" d="M139 375l29 274q11 96 46 170t85.5 119t107.5 70t121 32l19 189h104l-18 -187q156 -12 280 -90l-47 -104q-149 82 -272 82q-109 0 -188 -66t-93 -213l-28 -278q-9 -77 5.5 -133t48 -87t75 -45t92.5 -14q125 0 289 82l26 -104q-144 -79 -301 -90l-20 -187h-105l21 189 q-62 7 -113.5 32t-93 70t-61 119t-9.5 170z" />
<glyph unicode="&#xa3;" horiz-adv-x="1191" d="M100 0l13 129h123l45 422h-127l14 127h125l37 348q15 142 83 240t170.5 143t233.5 45q98 0 174.5 -26t130.5 -79.5t77 -140.5t11 -202l-2 -21h-149l2 21q18 164 -51 241.5t-207 77.5q-292 0 -324 -303l-35 -344h338l-41 -127h-311l-43 -422h731l-12 -129h-1006z" />
<glyph unicode="&#xa4;" horiz-adv-x="1191" d="M100 0l13 129h123l45 422h-127l14 127h125l37 348q15 142 83 240t170.5 143t233.5 45q98 0 174.5 -26t130.5 -79.5t77 -140.5t11 -202l-2 -21h-149l2 21q18 164 -51 241.5t-207 77.5q-292 0 -324 -303l-35 -344h338l-41 -127h-311l-43 -422h731l-12 -129h-1006z" />
<glyph unicode="&#xa5;" horiz-adv-x="1210" d="M203 1434h159l312 -746l477 746h160l-549 -838h264l-39 -129h-264l-49 -467h-150l49 467h-294l12 129h272z" />
<glyph unicode="&#xa6;" horiz-adv-x="428" d="M125 -307l98 921h111l-98 -921h-111zM244 819l96 922h111l-97 -922h-110z" />
<glyph unicode="&#xa7;" horiz-adv-x="1148" d="M168 383l12 106h144l-13 -106q-13 -130 65 -202t210 -72q129 0 219 62.5t102 170.5l25 248h-742l9 92h895l-37 -340q-12 -112 -81 -194t-173 -122t-230 -40q-127 0 -222 44.5t-145.5 136t-37.5 216.5zM207 764l35 334q18 167 154.5 261.5t330.5 94.5q126 0 220 -44.5 t144 -136t37 -216.5l-10 -113h-143l10 113q13 131 -63 203.5t-207 72.5t-221.5 -63.5t-102.5 -171.5l-24 -242h745l-10 -92h-895z" />
<glyph unicode="&#xa8;" horiz-adv-x="1036" d="M352 1174l27 262h143l-26 -262h-144zM788 1174l27 262h143l-26 -262h-144z" />
<glyph unicode="&#xa9;" horiz-adv-x="1611" d="M166 717q16 152 85 288.5t174.5 235t245 156t290.5 57.5q201 0 355.5 -98t229 -266.5t53.5 -372.5q-17 -155 -86 -291.5t-174 -234.5t-244 -154.5t-290 -56.5t-278.5 57t-212 154.5t-125 234.5t-23.5 291zM229 717q-16 -145 21 -271t114.5 -214t192.5 -138.5t252 -50.5 q184 0 342.5 86t261 240.5t123.5 347.5q19 190 -51 345t-211 242t-324 87q-182 0 -340.5 -87t-260 -242t-120.5 -345zM578 514l43 406q10 112 97.5 175.5t207.5 63.5t195 -63.5t63 -175.5l-8 -80h-93l9 80q7 76 -44.5 118.5t-129.5 42.5t-137 -42.5t-66 -118.5l-43 -406 q-8 -80 41 -121t129 -41t139.5 41t67.5 121l8 80h92l-8 -80q-12 -112 -99.5 -176t-207.5 -64q-77 0 -137 27t-93.5 82.5t-25.5 130.5z" />
<glyph unicode="&#xaa;" horiz-adv-x="759" d="M154 530l8 74h565l-8 -74h-565zM197 909q8 80 52 131t143.5 80.5t260.5 32.5l9 61q4 44 -6 73.5t-33 43t-46.5 18.5t-54.5 5q-94 0 -229 -58l-21 84q136 68 271 68q257 0 237 -238l-51 -493h-104v108q-40 -67 -103.5 -95t-124.5 -28q-108 0 -158 60.5t-42 146.5zM317 918 q-6 -55 30 -88t102 -33q88 0 136 67.5t60 204.5q-175 -3 -247.5 -37.5t-80.5 -113.5z" />
<glyph unicode="&#xab;" horiz-adv-x="1214" d="M113 457l10 106l555 402l-14 -150l-410 -303v-4l346 -299l-16 -150zM639 457l10 106l557 402l-16 -150l-410 -303v-4l346 -299l-16 -150z" />
<glyph unicode="&#xac;" horiz-adv-x="1013" d="M217 670l14 114h727l-12 -114l-18 -168h-115l16 168h-612z" />
<glyph unicode="&#xad;" horiz-adv-x="909" d="M154 455l12 114h696l-12 -114h-696z" />
<glyph unicode="&#xae;" horiz-adv-x="1611" d="M166 717q16 152 85 288.5t174.5 235t245 156t290.5 57.5q201 0 355.5 -98t229 -266.5t53.5 -372.5q-17 -155 -86 -291.5t-174 -234.5t-244 -154.5t-290 -56.5t-278.5 57t-212 154.5t-125 234.5t-23.5 291zM229 717q-16 -145 21 -271t114.5 -214t192.5 -138.5t252 -50.5 q184 0 342.5 86t261 240.5t123.5 347.5q19 190 -51 345t-211 242t-324 87q-182 0 -340.5 -87t-260 -242t-120.5 -345zM584 287l90 860h303q247 0 223 -240q-14 -165 -166 -207q46 -15 72.5 -56t32.5 -124l12 -233h-96l-11 227q-2 49 -14.5 80t-37 45t-50.5 18.5t-68 4.5 h-155l-41 -375h-94zM725 739h197q77 0 125.5 40t54.5 114q10 98 -24 137t-117 39h-201z" />
<glyph unicode="&#xaf;" horiz-adv-x="1087" d="M354 1184l13 98h624l-10 -98h-627z" />
<glyph unicode="&#xb0;" horiz-adv-x="552" d="M231 1276q8 74 66 126t133 52q73 0 119.5 -52t38.5 -126q-7 -73 -65 -125.5t-132 -52.5q-75 0 -121.5 52t-38.5 126zM309 1276q-5 -43 21 -72.5t69 -29.5t74.5 29.5t36.5 72.5q4 43 -21.5 71.5t-68.5 28.5t-75 -28.5t-36 -71.5z" />
<glyph unicode="&#xb1;" horiz-adv-x="909" d="M135 342l10 115h711l-10 -115h-711zM186 821l13 117h299l28 297h115l-29 -297h297l-14 -117h-295l-33 -297h-114l30 297h-297z" />
<glyph unicode="&#xb2;" horiz-adv-x="796" d="M111 430l12 105q7 67 43 124.5t88.5 99.5t114 79.5t123 72t113 69.5t86.5 80t40 95l2 12q9 88 -41.5 134.5t-144.5 46.5q-96 0 -158.5 -53.5t-73.5 -170.5l-2 -18h-118l2 18q18 164 117.5 244t242.5 80q141 0 224 -74t69 -209v-14q-7 -66 -43 -123.5t-88.5 -99.5 t-114.5 -80t-123.5 -72.5t-113 -68.5t-86 -77t-39.5 -91v-9h542l-10 -100h-663z" />
<glyph unicode="&#xb3;" horiz-adv-x="804" d="M143 729l2 14h119l-2 -14q-10 -110 42.5 -161.5t152.5 -51.5q92 0 156 47.5t73 128.5q19 197 -190 197h-78l12 102h78q81 0 142.5 47t68.5 123q19 187 -170 187q-95 0 -157 -54t-75 -170l-2 -18l-116 18q18 164 117.5 244t242.5 80q133 0 213 -70.5t66 -212.5 q-9 -76 -55.5 -134.5t-116.5 -90.5q156 -65 139 -250q-13 -130 -114 -202t-247 -72q-148 0 -233.5 78t-67.5 235z" />
<glyph unicode="&#xb4;" horiz-adv-x="780" d="M350 1126l228 287h133l-248 -287h-113z" />
<glyph unicode="&#xb6;" horiz-adv-x="1241" d="M231 971l9 65q13 125 86.5 217t181 136.5t233.5 44.5h170l-92 -861h-170q-195 0 -316 106t-102 292zM854 0l152 1434h305l-15 -111h-190l-141 -1323h-111z" />
<glyph unicode="&#xb7;" horiz-adv-x="403" d="M182 434l21 203h129l-21 -203h-129z" />
<glyph unicode="&#xb8;" horiz-adv-x="886" d="M180 -416l25 76q68 -29 141 -29q123 0 139 90l2 15q6 45 -24.5 68.5t-102.5 23.5h-86l9 82l12 110h80l-10 -110h32q91 0 145 -42.5t44 -123.5l-2 -23q-11 -83 -72.5 -127.5t-167.5 -44.5q-92 0 -164 35z" />
<glyph unicode="&#xb9;" horiz-adv-x="587" d="M199 1272l266 162h119l-107 -1004h-119l95 883l-207 -121z" />
<glyph unicode="&#xba;" horiz-adv-x="759" d="M154 530l8 74h565l-8 -74h-565zM207 981l20 188q7 73 35 128t70.5 87.5t92.5 48t107 15.5q56 0 102.5 -15.5t82.5 -48t53 -87.5t10 -128l-20 -188q-8 -73 -36.5 -128t-70.5 -87.5t-92 -48t-106 -15.5q-120 0 -191 68.5t-57 210.5zM326 971q-9 -88 30.5 -131t108.5 -43 t116.5 43t57.5 131l20 209q10 88 -29 131t-108 43q-68 0 -116.5 -43.5t-57.5 -130.5z" />
<glyph unicode="&#xbb;" horiz-adv-x="1214" d="M117 59l16 150l408 299v4l-344 303l14 150l471 -402l-10 -106zM643 59l16 150l410 299v4l-346 303l16 150l471 -402l-10 -106z" />
<glyph unicode="&#xbc;" horiz-adv-x="1828" d="M201 1272l268 162h117l-107 -1004h-117l93 883l-207 -121zM412 0l936 1434h122l-935 -1434h-123zM1001 262l13 100l555 642h119l-68 -642h147l-30 -100h-127l-29 -262h-119l27 262h-488zM1147 362h352l49 461z" />
<glyph unicode="&#xbd;" horiz-adv-x="1869" d="M201 1272l268 162h117l-107 -1004h-117l93 883l-207 -121zM412 0l936 1434h122l-935 -1434h-123zM1124 0l13 104q7 69 43.5 127.5t89 100t114.5 78.5t123.5 71t113 70t86.5 83.5t40 102.5q7 88 -42.5 134.5t-141.5 46.5q-98 0 -160.5 -53.5t-73.5 -170.5l-2 -18h-119 l2 18q18 164 118.5 244t244.5 80q139 0 221.5 -74t69.5 -209q-7 -73 -43 -134.5t-88.5 -105t-114.5 -81.5t-124 -72t-113.5 -68.5t-86 -78.5t-39.5 -95h543l-10 -100h-664z" />
<glyph unicode="&#xbe;" horiz-adv-x="2033" d="M158 729l2 14h121l-2 -14q-11 -110 40.5 -161.5t151.5 -51.5q93 0 156.5 47t72.5 129q11 105 -38.5 151t-149.5 46h-78l10 102h78q82 0 143 47.5t70 128.5q10 90 -36.5 135.5t-133.5 45.5q-95 0 -157.5 -54t-73.5 -170l-2 -18l-119 18q10 84 43 147.5t82.5 101.5 t109 56.5t127.5 18.5q81 0 146.5 -28.5t104.5 -89.5t30 -144q-10 -97 -54.5 -153.5t-121.5 -92.5q74 -29 112 -88.5t29 -146.5q-13 -140 -113 -214.5t-247 -74.5q-148 0 -233.5 78t-69.5 235zM635 0l936 1434h123l-936 -1434h-123zM1225 262l10 100l555 642h121l-68 -642 h146l-31 -100h-125l-29 -262h-121l29 262h-487zM1370 362h354l48 463z" />
<glyph unicode="&#xbf;" horiz-adv-x="1052" d="M70 12q13 116 53.5 202t103.5 137.5t137 78t164 31.5l23 213h129l-35 -334h-72q-58 0 -105.5 -9.5t-91 -33t-74.5 -61t-53 -95t-30 -133.5q-33 -309 281 -309q142 0 235.5 79t112.5 251l2 24h149l-2 -24q-11 -96 -43.5 -173.5t-80.5 -130t-110.5 -88t-131.5 -51.5 t-146 -16q-96 0 -174.5 25t-138 76t-87 138t-15.5 203zM565 823l23 201h131l-23 -201h-131z" />
<glyph unicode="&#xc0;" horiz-adv-x="1159" d="M29 0l624 1444h150l325 -1444h-157l-82 391h-537l-164 -391h-159zM403 520h463l-155 727zM510 1823h133l166 -287h-113z" />
<glyph unicode="&#xc1;" horiz-adv-x="1159" d="M29 0l624 1444h150l325 -1444h-157l-82 391h-537l-164 -391h-159zM403 520h463l-155 727zM690 1536l228 287h133l-248 -287h-113z" />
<glyph unicode="&#xc2;" horiz-adv-x="1159" d="M29 0l624 1444h150l325 -1444h-157l-82 391h-537l-164 -391h-159zM403 520h463l-155 727zM479 1536l240 287h110l181 -287h-125l-123 193l-158 -193h-125z" />
<glyph unicode="&#xc3;" horiz-adv-x="1159" d="M29 0l624 1444h150l325 -1444h-157l-82 391h-537l-164 -391h-159zM403 520h463l-155 727zM442 1548q8 101 53 149t109 48q49 0 104.5 -22t102.5 -44t76 -22q34 0 53 18t25 70h98q-10 -101 -54 -148t-108 -47q-49 0 -104 22.5t-102 45t-77 22.5q-33 0 -52 -20t-25 -72h-99 z" />
<glyph unicode="&#xc4;" horiz-adv-x="1159" d="M29 0l624 1444h150l325 -1444h-157l-82 391h-537l-164 -391h-159zM403 520h463l-155 727zM459 1583l26 262h144l-27 -262h-143zM895 1583l27 262h143l-27 -262h-143z" />
<glyph unicode="&#xc5;" horiz-adv-x="1159" d="M29 0l624 1444h150l325 -1444h-157l-82 391h-537l-164 -391h-159zM403 520h463l-155 727zM537 1708q9 90 72.5 144.5t170.5 54.5q110 0 162 -54.5t41 -144.5q-8 -89 -72 -143t-172 -54q-107 0 -158.5 54t-43.5 143zM637 1708q-5 -50 23.5 -82.5t89.5 -32.5t95.5 32.5 t39.5 82.5q6 53 -22 84t-91 31q-61 0 -95.5 -31t-39.5 -84z" />
<glyph unicode="&#xc6;" horiz-adv-x="1675" d="M29 0l798 1434h930l-14 -129h-703l-53 -512h629l-12 -129h-631l-58 -535h705l-14 -129h-852l41 391h-389l-218 -391h-159zM471 520h338l78 740z" />
<glyph unicode="&#xc7;" horiz-adv-x="1148" d="M176 440l57 553q13 119 59 209.5t116.5 144.5t155 80.5t181.5 26.5q76 0 141.5 -16t120.5 -51.5t91.5 -88t52.5 -130t6 -173.5l-151 -24l4 24q18 171 -60 250.5t-221 79.5q-142 0 -235 -79t-111 -251l-57 -557q-19 -172 57 -250.5t219 -78.5q142 0 235.5 78.5 t112.5 250.5l2 21h150l-2 -21q-12 -117 -56.5 -206t-112.5 -142t-149.5 -80.5t-175.5 -29.5l-8 -70h33q91 0 144.5 -42.5t43.5 -123.5l-2 -23q-11 -83 -72 -127.5t-167 -44.5q-92 0 -164 35l24 76q68 -29 142 -29q123 0 139 90l2 15q6 45 -24.5 68.5t-102.5 23.5h-86l10 82 l6 74q-175 16 -273 129.5t-75 326.5z" />
<glyph unicode="&#xc8;" horiz-adv-x="1081" d="M160 0l151 1434h852l-14 -129h-703l-53 -512h629l-12 -129h-631l-57 -535h704l-14 -129h-852zM496 1823h133l166 -287h-113z" />
<glyph unicode="&#xc9;" horiz-adv-x="1081" d="M160 0l151 1434h852l-14 -129h-703l-53 -512h629l-12 -129h-631l-57 -535h704l-14 -129h-852zM676 1536l227 287h133l-248 -287h-112z" />
<glyph unicode="&#xca;" horiz-adv-x="1081" d="M160 0l151 1434h852l-14 -129h-703l-53 -512h629l-12 -129h-631l-57 -535h704l-14 -129h-852zM465 1536l240 287h110l180 -287h-125l-122 193l-158 -193h-125z" />
<glyph unicode="&#xcb;" horiz-adv-x="1081" d="M160 0l151 1434h852l-14 -129h-703l-53 -512h629l-12 -129h-631l-57 -535h704l-14 -129h-852zM444 1583l27 262h143l-26 -262h-144zM881 1583l26 262h144l-27 -262h-143z" />
<glyph unicode="&#xcc;" horiz-adv-x="468" d="M160 0l151 1434h150l-152 -1434h-149zM164 1823h133l166 -287h-113z" />
<glyph unicode="&#xcd;" horiz-adv-x="468" d="M160 0l151 1434h150l-152 -1434h-149zM344 1536l227 287h134l-248 -287h-113z" />
<glyph unicode="&#xce;" horiz-adv-x="468" d="M133 1536l240 287h110l181 -287h-125l-123 193l-158 -193h-125zM160 0l151 1434h150l-152 -1434h-149z" />
<glyph unicode="&#xcf;" horiz-adv-x="468" d="M113 1583l26 262h144l-27 -262h-143zM160 0l151 1434h150l-152 -1434h-149zM549 1583l26 262h144l-27 -262h-143z" />
<glyph unicode="&#xd0;" horiz-adv-x="1220" d="M90 664l12 120h140l69 650h449q77 0 144.5 -16.5t126 -53.5t97.5 -92.5t56 -139t6 -186.5l-47 -459q-14 -128 -64 -224.5t-125 -152.5t-161.5 -83t-184.5 -27h-448l69 664h-139zM322 129h301q69 0 128.5 18.5t111 58t86 110.5t44.5 167l49 467q10 96 -9.5 167t-63 111 t-99.5 58.5t-125 18.5h-301l-53 -521h236l-13 -120h-235z" />
<glyph unicode="&#xd1;" horiz-adv-x="1308" d="M158 0l151 1434h158l577 -1170q20 254 31 363l86 807h144l-152 -1434h-152l-585 1169q-16 -219 -31 -362l-84 -807h-143zM516 1548q8 101 53 149t109 48q49 0 104.5 -22t102.5 -44t76 -22q34 0 52.5 18t24.5 70h99q-10 -101 -54 -148t-108 -47q-49 0 -104 22.5t-102 45 t-77 22.5q-34 0 -53 -20t-25 -72h-98z" />
<glyph unicode="&#xd2;" horiz-adv-x="1181" d="M176 440l57 553q13 119 59 209.5t116.5 144.5t155 80.5t181.5 26.5q96 0 174.5 -26.5t137.5 -80.5t86 -144.5t14 -209.5l-57 -553q-13 -119 -59 -209.5t-116.5 -144t-154.5 -80t-180 -26.5q-97 0 -176 26.5t-138.5 80t-86 144t-13.5 209.5zM326 438q-19 -172 57 -250.5 t219 -78.5q142 0 235.5 78.5t112.5 250.5l60 557q18 171 -60 250.5t-221 79.5q-142 0 -235 -79t-111 -251zM520 1823h133l166 -287h-112z" />
<glyph unicode="&#xd3;" horiz-adv-x="1181" d="M176 440l57 553q13 119 59 209.5t116.5 144.5t155 80.5t181.5 26.5q96 0 174.5 -26.5t137.5 -80.5t86 -144.5t14 -209.5l-57 -553q-13 -119 -59 -209.5t-116.5 -144t-154.5 -80t-180 -26.5q-97 0 -176 26.5t-138.5 80t-86 144t-13.5 209.5zM326 438q-19 -172 57 -250.5 t219 -78.5q142 0 235.5 78.5t112.5 250.5l60 557q18 171 -60 250.5t-221 79.5q-142 0 -235 -79t-111 -251zM700 1536l228 287h133l-248 -287h-113z" />
<glyph unicode="&#xd4;" horiz-adv-x="1181" d="M176 440l57 553q13 119 59 209.5t116.5 144.5t155 80.5t181.5 26.5q96 0 174.5 -26.5t137.5 -80.5t86 -144.5t14 -209.5l-57 -553q-13 -119 -59 -209.5t-116.5 -144t-154.5 -80t-180 -26.5q-97 0 -176 26.5t-138.5 80t-86 144t-13.5 209.5zM326 438q-19 -172 57 -250.5 t219 -78.5q142 0 235.5 78.5t112.5 250.5l60 557q18 171 -60 250.5t-221 79.5q-142 0 -235 -79t-111 -251zM489 1536l240 287h111l180 -287h-125l-123 193l-158 -193h-125z" />
<glyph unicode="&#xd5;" horiz-adv-x="1181" d="M176 440l57 553q13 119 59 209.5t116.5 144.5t155 80.5t181.5 26.5q96 0 174.5 -26.5t137.5 -80.5t86 -144.5t14 -209.5l-57 -553q-13 -119 -59 -209.5t-116.5 -144t-154.5 -80t-180 -26.5q-97 0 -176 26.5t-138.5 80t-86 144t-13.5 209.5zM326 438q-19 -172 57 -250.5 t219 -78.5q142 0 235.5 78.5t112.5 250.5l60 557q18 171 -60 250.5t-221 79.5q-142 0 -235 -79t-111 -251zM453 1548q8 101 52.5 149t108.5 48q49 0 104.5 -22t102.5 -44t76 -22q34 0 53 18t25 70h98q-10 -101 -54 -148t-108 -47q-49 0 -104 22.5t-101.5 45t-76.5 22.5 q-34 0 -53 -20t-25 -72h-98z" />
<glyph unicode="&#xd6;" horiz-adv-x="1181" d="M176 440l57 553q13 119 59 209.5t116.5 144.5t155 80.5t181.5 26.5q96 0 174.5 -26.5t137.5 -80.5t86 -144.5t14 -209.5l-57 -553q-13 -119 -59 -209.5t-116.5 -144t-154.5 -80t-180 -26.5q-97 0 -176 26.5t-138.5 80t-86 144t-13.5 209.5zM326 438q-19 -172 57 -250.5 t219 -78.5q142 0 235.5 78.5t112.5 250.5l60 557q18 171 -60 250.5t-221 79.5q-142 0 -235 -79t-111 -251zM469 1583l27 262h143l-27 -262h-143zM905 1583l27 262h143l-26 -262h-144z" />
<glyph unicode="&#xd7;" horiz-adv-x="913" d="M141 449l312 278l-252 279l90 81l250 -280l309 280l76 -81l-312 -279l252 -281l-92 -81l-250 280l-309 -278z" />
<glyph unicode="&#xd8;" horiz-adv-x="1181" d="M127 -41l113 170q-84 117 -64 311l57 553q13 119 59 209.5t116.5 144.5t155 80.5t181.5 26.5q189 0 297 -94l76 115h94l-114 -177q79 -116 59 -305l-57 -553q-13 -119 -59 -209.5t-116.5 -144t-154.5 -80t-180 -26.5q-183 0 -295 90l-74 -111h-94zM326 438 q-9 -92 10 -162l625 957q-68 92 -232 92q-142 0 -235 -79t-111 -251zM377 197q71 -88 225 -88q142 0 235.5 78.5t112.5 250.5l60 557q9 91 -9 156z" />
<glyph unicode="&#xd9;" horiz-adv-x="1222" d="M197 440l104 996h150l-105 -998q-19 -172 57.5 -250.5t219.5 -78.5q142 0 235.5 78.5t112.5 250.5l104 998h150l-105 -996q-13 -119 -59 -209.5t-116.5 -144t-154.5 -80t-180 -26.5q-97 0 -176 26.5t-138 80t-85.5 144t-13.5 209.5zM545 1823h133l166 -287h-113z" />
<glyph unicode="&#xda;" horiz-adv-x="1222" d="M197 440l104 996h150l-105 -998q-19 -172 57.5 -250.5t219.5 -78.5q142 0 235.5 78.5t112.5 250.5l104 998h150l-105 -996q-13 -119 -59 -209.5t-116.5 -144t-154.5 -80t-180 -26.5q-97 0 -176 26.5t-138 80t-85.5 144t-13.5 209.5zM725 1536l227 287h133l-247 -287h-113 z" />
<glyph unicode="&#xdb;" horiz-adv-x="1222" d="M197 440l104 996h150l-105 -998q-19 -172 57.5 -250.5t219.5 -78.5q142 0 235.5 78.5t112.5 250.5l104 998h150l-105 -996q-13 -119 -59 -209.5t-116.5 -144t-154.5 -80t-180 -26.5q-97 0 -176 26.5t-138 80t-85.5 144t-13.5 209.5zM514 1536l240 287h110l180 -287h-124 l-123 193l-158 -193h-125z" />
<glyph unicode="&#xdc;" horiz-adv-x="1222" d="M197 440l104 996h150l-105 -998q-19 -172 57.5 -250.5t219.5 -78.5q142 0 235.5 78.5t112.5 250.5l104 998h150l-105 -996q-13 -119 -59 -209.5t-116.5 -144t-154.5 -80t-180 -26.5q-97 0 -176 26.5t-138 80t-85.5 144t-13.5 209.5zM494 1583l26 262h144l-27 -262h-143z M930 1583l26 262h144l-27 -262h-143z" />
<glyph unicode="&#xdd;" horiz-adv-x="1136" d="M166 1434h160l311 -746l477 746h160l-580 -885l-57 -549h-148l58 553zM676 1536l227 287h133l-248 -287h-112z" />
<glyph unicode="&#xde;" horiz-adv-x="1130" d="M160 0l151 1434h150l-27 -254h305q96 0 175.5 -26t138.5 -78t87 -137.5t17 -195.5l-4 -32q-12 -110 -57.5 -195.5t-115.5 -137.5t-154.5 -78t-180.5 -26h-307l-29 -274h-149zM352 403h307q141 0 235 76.5t110 235.5l4 24q16 159 -62 235.5t-219 76.5h-307z" />
<glyph unicode="&#xdf;" horiz-adv-x="1171" d="M147 909l13 115h139l10 121q8 76 36.5 136t69 99.5t94 66t109.5 37.5t117 11q62 0 116 -11t101.5 -37.5t79.5 -66t46.5 -99.5t6.5 -136l-6 -72q-22 -207 -202 -297q121 -33 187 -119.5t52 -226.5l-6 -59q-10 -94 -52.5 -167t-108.5 -116.5t-144 -65.5t-166 -22h-203 l10 111h197q62 0 115.5 14t99.5 44t76 83t37 125l6 59q10 88 -27.5 149.5t-100 88t-142.5 26.5h-199l12 115h94q127 0 217 60t103 186l10 92q11 114 -51.5 170.5t-169.5 56.5q-106 0 -181.5 -57t-86.5 -170l-121 -1153h-144l97 909h-140z" />
<glyph unicode="&#xe0;" d="M137 346l35 332q15 157 117.5 261.5t257.5 104.5q207 0 276 -165l29 145h125l-109 -1024h-125l2 145q-103 -165 -309 -165q-154 0 -235.5 104.5t-63.5 261.5zM281 348q-11 -112 44 -182t169 -70q112 0 185.5 85t88.5 227l23 208q14 142 -41.5 227t-167.5 85 q-115 0 -185.5 -70.5t-81.5 -181.5zM416 1413h133l166 -287h-113z" />
<glyph unicode="&#xe1;" d="M137 346l35 332q15 157 117.5 261.5t257.5 104.5q207 0 276 -165l29 145h125l-109 -1024h-125l2 145q-103 -165 -309 -165q-154 0 -235.5 104.5t-63.5 261.5zM281 348q-11 -112 44 -182t169 -70q112 0 185.5 85t88.5 227l23 208q14 142 -41.5 227t-167.5 85 q-115 0 -185.5 -70.5t-81.5 -181.5zM596 1126l227 287h133l-247 -287h-113z" />
<glyph unicode="&#xe2;" d="M137 346l35 332q15 157 117.5 261.5t257.5 104.5q207 0 276 -165l29 145h125l-109 -1024h-125l2 145q-103 -165 -309 -165q-154 0 -235.5 104.5t-63.5 261.5zM281 348q-11 -112 44 -182t169 -70q112 0 185.5 85t88.5 227l23 208q14 142 -41.5 227t-167.5 85 q-115 0 -185.5 -70.5t-81.5 -181.5zM385 1126l240 287h110l180 -287h-124l-123 193l-158 -193h-125z" />
<glyph unicode="&#xe3;" d="M137 346l35 332q15 157 117.5 261.5t257.5 104.5q207 0 276 -165l29 145h125l-109 -1024h-125l2 145q-103 -165 -309 -165q-154 0 -235.5 104.5t-63.5 261.5zM281 348q-11 -112 44 -182t169 -70q112 0 185.5 85t88.5 227l23 208q14 142 -41.5 227t-167.5 85 q-115 0 -185.5 -70.5t-81.5 -181.5zM348 1139q8 101 53 148.5t109 47.5q49 0 104.5 -22t102.5 -44t76 -22q34 0 52.5 18t24.5 70h99q-10 -101 -54 -147.5t-108 -46.5q-49 0 -104 22.5t-102 45t-77 22.5q-34 0 -53 -20t-25 -72h-98z" />
<glyph unicode="&#xe4;" d="M137 346l35 332q15 157 117.5 261.5t257.5 104.5q207 0 276 -165l29 145h125l-109 -1024h-125l2 145q-103 -165 -309 -165q-154 0 -235.5 104.5t-63.5 261.5zM281 348q-11 -112 44 -182t169 -70q112 0 185.5 85t88.5 227l23 208q14 142 -41.5 227t-167.5 85 q-115 0 -185.5 -70.5t-81.5 -181.5zM365 1174l26 262h144l-27 -262h-143zM801 1174l26 262h144l-27 -262h-143z" />
<glyph unicode="&#xe5;" d="M137 346l35 332q15 157 117.5 261.5t257.5 104.5q207 0 276 -165l29 145h125l-109 -1024h-125l2 145q-103 -165 -309 -165q-154 0 -235.5 104.5t-63.5 261.5zM281 348q-11 -112 44 -182t169 -70q112 0 185.5 85t88.5 227l23 208q14 142 -41.5 227t-167.5 85 q-115 0 -185.5 -70.5t-81.5 -181.5zM442 1298q9 90 73 144.5t171 54.5q110 0 162 -54.5t41 -144.5q-8 -88 -72 -142t-172 -54q-107 0 -159 53.5t-44 142.5zM543 1298q-5 -50 23 -82t89 -32q62 0 96.5 32t39.5 82q6 53 -22 84t-91 31q-61 0 -95.5 -31t-39.5 -84z" />
<glyph unicode="&#xe6;" horiz-adv-x="1558" d="M104 283q9 75 47.5 131t114.5 99t200.5 66.5t297.5 26.5l12 109q6 54 -4.5 94.5t-30 63t-51 36t-60.5 17.5t-65 4q-141 0 -325 -82l-27 106q196 90 375 90q239 0 291 -145q106 145 317 145q76 0 139 -21.5t112.5 -66t72 -123t12.5 -182.5q-8 -74 -31 -153h-606l-12 -125 q-8 -76 9 -132.5t53 -87.5t79.5 -45t95.5 -14q164 0 338 82l10 -106q-198 -90 -385 -90q-67 0 -126.5 17t-114.5 63.5t-78 119.5q-54 -92 -155.5 -146t-217.5 -54q-106 0 -175 43t-94 109t-18 151zM250 289q-10 -94 42.5 -144.5t156.5 -50.5q113 0 195 71t95 195l15 140 q-258 -4 -375.5 -54.5t-128.5 -156.5zM907 602h479q1 15 5 36.5t4 25.5q14 133 -47 199.5t-164 66.5q-105 0 -181 -66.5t-90 -199.5z" />
<glyph unicode="&#xe7;" horiz-adv-x="868" d="M139 375l29 274q12 106 53.5 186t101.5 123.5t125 64.5t134 21q181 0 331 -92l-47 -104q-149 82 -272 82q-109 0 -188 -66t-93 -213l-28 -278q-9 -77 5.5 -133t48 -87t75 -45t92.5 -14q125 0 289 82l26 -104q-161 -90 -340 -92l-6 -70h33q91 0 144.5 -42.5t43.5 -123.5 l-2 -23q-11 -83 -72 -127.5t-167 -44.5q-91 0 -164 35l24 76q68 -29 142 -29q123 0 139 90l2 15q6 45 -24.5 68.5t-102.5 23.5h-86l8 82l8 74q-60 10 -109 36t-88.5 71.5t-57 118t-7.5 165.5z" />
<glyph unicode="&#xe8;" horiz-adv-x="958" d="M139 375l31 276q10 104 50.5 182.5t101 123t129 66t145.5 21.5q76 0 139 -21.5t112.5 -66t72 -123t12.5 -182.5q-9 -81 -31 -168h-606l-10 -110q-9 -76 7.5 -132.5t53 -87.5t80.5 -45t96 -14q162 0 336 82l10 -106q-194 -90 -385 -90q-70 0 -133 21t-116 64.5 t-79.5 123.5t-15.5 186zM305 588h479q10 70 11 78q14 131 -46.5 197.5t-164.5 66.5q-105 0 -181 -66.5t-90 -199.5zM373 1413h133l166 -287h-113z" />
<glyph unicode="&#xe9;" horiz-adv-x="958" d="M139 375l31 276q10 104 50.5 182.5t101 123t129 66t145.5 21.5q76 0 139 -21.5t112.5 -66t72 -123t12.5 -182.5q-9 -81 -31 -168h-606l-10 -110q-9 -76 7.5 -132.5t53 -87.5t80.5 -45t96 -14q162 0 336 82l10 -106q-194 -90 -385 -90q-70 0 -133 21t-116 64.5 t-79.5 123.5t-15.5 186zM305 588h479q10 70 11 78q14 131 -46.5 197.5t-164.5 66.5q-105 0 -181 -66.5t-90 -199.5zM553 1126l227 287h133l-247 -287h-113z" />
<glyph unicode="&#xea;" horiz-adv-x="958" d="M139 375l31 276q10 104 50.5 182.5t101 123t129 66t145.5 21.5q76 0 139 -21.5t112.5 -66t72 -123t12.5 -182.5q-9 -81 -31 -168h-606l-10 -110q-9 -76 7.5 -132.5t53 -87.5t80.5 -45t96 -14q162 0 336 82l10 -106q-194 -90 -385 -90q-70 0 -133 21t-116 64.5 t-79.5 123.5t-15.5 186zM305 588h479q10 70 11 78q14 131 -46.5 197.5t-164.5 66.5q-105 0 -181 -66.5t-90 -199.5zM342 1126l240 287h110l180 -287h-124l-123 193l-158 -193h-125z" />
<glyph unicode="&#xeb;" horiz-adv-x="958" d="M139 375l31 276q10 104 50.5 182.5t101 123t129 66t145.5 21.5q76 0 139 -21.5t112.5 -66t72 -123t12.5 -182.5q-9 -81 -31 -168h-606l-10 -110q-9 -76 7.5 -132.5t53 -87.5t80.5 -45t96 -14q162 0 336 82l10 -106q-194 -90 -385 -90q-70 0 -133 21t-116 64.5 t-79.5 123.5t-15.5 186zM305 588h479q10 70 11 78q14 131 -46.5 197.5t-164.5 66.5q-105 0 -181 -66.5t-90 -199.5zM322 1174l26 262h144l-27 -262h-143zM758 1174l26 262h144l-27 -262h-143z" />
<glyph unicode="&#xec;" horiz-adv-x="407" d="M88 1413h133l166 -287h-113zM131 0l109 1024h143l-109 -1024h-143z" />
<glyph unicode="&#xed;" horiz-adv-x="407" d="M131 0l109 1024h143l-109 -1024h-143zM268 1126l228 287h133l-248 -287h-113z" />
<glyph unicode="&#xee;" horiz-adv-x="407" d="M57 1126l240 287h111l180 -287h-125l-123 193l-158 -193h-125zM131 0l109 1024h143l-109 -1024h-143z" />
<glyph unicode="&#xef;" horiz-adv-x="407" d="M37 1174l26 262h144l-27 -262h-143zM131 0l109 1024h143l-109 -1024h-143zM473 1174l27 262h143l-27 -262h-143z" />
<glyph unicode="&#xf0;" horiz-adv-x="970" d="M139 373l6 45q9 83 37.5 149.5t69 110t93 72.5t108 41t116.5 12h240l27 250q14 133 -46 199.5t-165 66.5h-27l-18 -178h-97l19 178h-185l13 115h184l23 204h96l-23 -204h27q76 0 140 -21.5t114.5 -66.5t74 -123.5t13.5 -182.5l-72 -667q-11 -104 -51 -182.5t-100 -123 t-128 -66t-145 -21.5t-141 21.5t-115 66t-75 123t-13 182.5zM283 360q-14 -133 47 -199.5t166 -66.5t179.5 66.5t88.5 199.5l35 328h-240q-105 0 -180.5 -66.5t-89.5 -199.5z" />
<glyph unicode="&#xf1;" horiz-adv-x="1026" d="M129 0l109 1024h124l-4 -154q58 90 142.5 132t179.5 42q82 0 142.5 -28.5t94 -78.5t47 -113t5.5 -136l-72 -688h-143l71 680q11 110 -40.5 179t-163.5 69q-115 0 -192.5 -86t-92.5 -226l-64 -616h-143zM340 1139q8 101 53 148.5t109 47.5q49 0 104.5 -22t102 -44 t75.5 -22q34 0 53 18t25 70h99q-10 -101 -54 -147.5t-108 -46.5q-49 0 -104 22.5t-102 45t-77 22.5q-34 0 -53 -20t-25 -72h-98z" />
<glyph unicode="&#xf2;" horiz-adv-x="970" d="M139 373l31 278q10 104 50.5 182.5t101 123t129 66t145.5 21.5t140.5 -21.5t114 -66t74 -123t13.5 -182.5l-31 -278q-11 -104 -51 -182.5t-100 -123t-128 -66t-145 -21.5t-141 21.5t-115 66t-75 123t-13 182.5zM283 360q-14 -133 47 -199.5t166 -66.5t179.5 66.5 t88.5 199.5l31 304q14 133 -46 199.5t-165 66.5t-181 -66.5t-90 -199.5zM367 1413h133l166 -287h-113z" />
<glyph unicode="&#xf3;" horiz-adv-x="970" d="M139 373l31 278q10 104 50.5 182.5t101 123t129 66t145.5 21.5t140.5 -21.5t114 -66t74 -123t13.5 -182.5l-31 -278q-11 -104 -51 -182.5t-100 -123t-128 -66t-145 -21.5t-141 21.5t-115 66t-75 123t-13 182.5zM283 360q-14 -133 47 -199.5t166 -66.5t179.5 66.5 t88.5 199.5l31 304q14 133 -46 199.5t-165 66.5t-181 -66.5t-90 -199.5zM547 1126l227 287h133l-248 -287h-112z" />
<glyph unicode="&#xf4;" horiz-adv-x="970" d="M139 373l31 278q10 104 50.5 182.5t101 123t129 66t145.5 21.5t140.5 -21.5t114 -66t74 -123t13.5 -182.5l-31 -278q-11 -104 -51 -182.5t-100 -123t-128 -66t-145 -21.5t-141 21.5t-115 66t-75 123t-13 182.5zM283 360q-14 -133 47 -199.5t166 -66.5t179.5 66.5 t88.5 199.5l31 304q14 133 -46 199.5t-165 66.5t-181 -66.5t-90 -199.5zM336 1126l239 287h111l180 -287h-125l-123 193l-157 -193h-125z" />
<glyph unicode="&#xf5;" horiz-adv-x="970" d="M139 373l31 278q10 104 50.5 182.5t101 123t129 66t145.5 21.5t140.5 -21.5t114 -66t74 -123t13.5 -182.5l-31 -278q-11 -104 -51 -182.5t-100 -123t-128 -66t-145 -21.5t-141 21.5t-115 66t-75 123t-13 182.5zM283 360q-14 -133 47 -199.5t166 -66.5t179.5 66.5 t88.5 199.5l31 304q14 133 -46 199.5t-165 66.5t-181 -66.5t-90 -199.5zM299 1139q8 101 53 148.5t109 47.5q49 0 104.5 -22t102 -44t75.5 -22q34 0 53 18t25 70h99q-10 -101 -54 -147.5t-108 -46.5q-49 0 -104 22.5t-102 45t-77 22.5q-34 0 -53 -20t-25 -72h-98z" />
<glyph unicode="&#xf6;" horiz-adv-x="970" d="M139 373l31 278q10 104 50.5 182.5t101 123t129 66t145.5 21.5t140.5 -21.5t114 -66t74 -123t13.5 -182.5l-31 -278q-11 -104 -51 -182.5t-100 -123t-128 -66t-145 -21.5t-141 21.5t-115 66t-75 123t-13 182.5zM283 360q-14 -133 47 -199.5t166 -66.5t179.5 66.5 t88.5 199.5l31 304q14 133 -46 199.5t-165 66.5t-181 -66.5t-90 -199.5zM315 1174l27 262h143l-26 -262h-144zM752 1174l26 262h144l-27 -262h-143z" />
<glyph unicode="&#xf7;" horiz-adv-x="976" d="M195 670l12 114h727l-12 -114h-727zM461 354l20 201h131l-20 -201h-131zM520 899l21 201h129l-21 -201h-129z" />
<glyph unicode="&#xf8;" horiz-adv-x="970" d="M94 -41l103 143q-75 98 -58 271l31 278q10 104 50.5 182.5t101 123t129 66t145.5 21.5q138 0 229 -65l62 86h96l-102 -143q74 -100 57 -271l-31 -278q-11 -104 -51 -182.5t-100 -123t-128 -66t-145 -21.5q-140 0 -231 65l-62 -86h-96zM283 360q-8 -69 8 -127l454 635 q-59 62 -161 62q-105 0 -181 -66.5t-90 -199.5zM332 158q58 -64 164 -64q105 0 179.5 66.5t88.5 199.5l31 304q6 74 -9 127z" />
<glyph unicode="&#xf9;" horiz-adv-x="1026" d="M164 336l74 688h143l-74 -680q-10 -110 42 -179t165 -69q114 0 190.5 86t90.5 226l67 616h144l-109 -1024h-127l6 154q-58 -90 -142.5 -132t-178.5 -42q-82 0 -143 28.5t-95 78.5t-47.5 113t-5.5 136zM399 1413h133l166 -287h-112z" />
<glyph unicode="&#xfa;" horiz-adv-x="1026" d="M164 336l74 688h143l-74 -680q-10 -110 42 -179t165 -69q114 0 190.5 86t90.5 226l67 616h144l-109 -1024h-127l6 154q-58 -90 -142.5 -132t-178.5 -42q-82 0 -143 28.5t-95 78.5t-47.5 113t-5.5 136zM580 1126l227 287h133l-248 -287h-112z" />
<glyph unicode="&#xfb;" horiz-adv-x="1026" d="M164 336l74 688h143l-74 -680q-10 -110 42 -179t165 -69q114 0 190.5 86t90.5 226l67 616h144l-109 -1024h-127l6 154q-58 -90 -142.5 -132t-178.5 -42q-82 0 -143 28.5t-95 78.5t-47.5 113t-5.5 136zM369 1126l239 287h111l180 -287h-125l-123 193l-157 -193h-125z" />
<glyph unicode="&#xfc;" horiz-adv-x="1026" d="M164 336l74 688h143l-74 -680q-10 -110 42 -179t165 -69q114 0 190.5 86t90.5 226l67 616h144l-109 -1024h-127l6 154q-58 -90 -142.5 -132t-178.5 -42q-82 0 -143 28.5t-95 78.5t-47.5 113t-5.5 136zM348 1174l27 262h143l-26 -262h-144zM784 1174l27 262h143l-26 -262 h-144z" />
<glyph unicode="&#xfd;" horiz-adv-x="917" d="M-37 -410l23 111q78 -20 133 -20q83 0 130 41.5t101 156.5l41 92l-250 1053h146l196 -860l369 860h141l-506 -1124q-61 -135 -120.5 -208.5t-115.5 -97.5t-134 -24q-64 0 -154 20zM524 1126l228 287h133l-248 -287h-113z" />
<glyph unicode="&#xfe;" d="M86 -410l195 1844l147 26l-61 -579q110 163 309 163q153 0 231 -104t62 -262l-37 -332q-16 -157 -117 -261.5t-256 -104.5q-201 0 -272 163l-58 -553h-143zM313 408q-14 -142 42.5 -227t170.5 -85t183.5 70.5t78.5 181.5l37 328q11 112 -44 182t-169 70 q-113 0 -187 -85.5t-89 -226.5z" />
<glyph unicode="&#xff;" horiz-adv-x="917" d="M-37 -410l23 111q78 -20 133 -20q83 0 130 41.5t101 156.5l41 92l-250 1053h146l196 -860l369 860h141l-506 -1124q-61 -135 -120.5 -208.5t-115.5 -97.5t-134 -24q-64 0 -154 20zM295 1174l27 262h143l-27 -262h-143zM731 1174l27 262h143l-27 -262h-143z" />
<glyph unicode="&#x152;" horiz-adv-x="1822" d="M176 440l57 553q13 119 59 209.5t116.5 144.5t155 80.5t181.5 26.5q111 0 200 -42.5t138 -129.5l17 152h805l-15 -129h-698l-55 -512h628l-14 -129h-627l-57 -535h700l-14 -129h-805l17 152q-68 -87 -166.5 -129.5t-208.5 -42.5q-97 0 -176 26.5t-138.5 80t-86 144 t-13.5 209.5zM326 438q-19 -172 57 -250.5t219 -78.5q140 0 234 74.5t112 234.5l62 577q18 171 -60 250.5t-221 79.5q-142 0 -235 -79t-111 -251z" />
<glyph unicode="&#x153;" horiz-adv-x="1583" d="M139 373l31 278q10 104 50.5 182.5t101 123t129 66t145.5 21.5q98 0 177.5 -38.5t115.5 -124.5q56 86 144 124.5t188 38.5q76 0 139 -21.5t112 -66t71.5 -123t12.5 -182.5q-10 -88 -30 -168h-606l-11 -110q-9 -76 7.5 -132.5t53 -87.5t81 -45t96.5 -14q162 0 336 82 l10 -106q-194 -90 -385 -90q-92 0 -173.5 38.5t-119.5 126.5q-54 -87 -143.5 -126t-188.5 -39q-77 0 -141 21.5t-115 66t-75 123t-13 182.5zM283 360q-14 -133 47 -199.5t166 -66.5t179.5 66.5t88.5 199.5l31 304q14 133 -46 199.5t-165 66.5t-181 -66.5t-90 -199.5z M930 588h479q8 51 10 76q16 133 -45 199.5t-166 66.5t-180.5 -66.5t-89.5 -199.5z" />
<glyph unicode="&#x178;" horiz-adv-x="1136" d="M166 1434h160l311 -746l477 746h160l-580 -885l-57 -549h-148l58 553zM444 1583l27 262h143l-26 -262h-144zM881 1583l26 262h144l-27 -262h-143z" />
<glyph unicode="&#x2c6;" horiz-adv-x="991" d="M350 1126l240 287h110l181 -287h-125l-123 193l-158 -193h-125z" />
<glyph unicode="&#x2dc;" horiz-adv-x="663" d="M244 1139q8 101 53 148.5t109 47.5q49 0 104.5 -22t102 -44t75.5 -22q34 0 53 18t25 70h98q-10 -101 -54 -147.5t-108 -46.5q-49 0 -104 22.5t-101.5 45t-76.5 22.5q-34 0 -53 -20t-25 -72h-98z" />
<glyph unicode="&#x2000;" horiz-adv-x="953" />
<glyph unicode="&#x2001;" horiz-adv-x="1907" />
<glyph unicode="&#x2002;" horiz-adv-x="953" />
<glyph unicode="&#x2003;" horiz-adv-x="1907" />
<glyph unicode="&#x2004;" horiz-adv-x="635" />
<glyph unicode="&#x2005;" horiz-adv-x="476" />
<glyph unicode="&#x2006;" horiz-adv-x="317" />
<glyph unicode="&#x2007;" horiz-adv-x="317" />
<glyph unicode="&#x2008;" horiz-adv-x="238" />
<glyph unicode="&#x2009;" horiz-adv-x="381" />
<glyph unicode="&#x200a;" horiz-adv-x="105" />
<glyph unicode="&#x2010;" horiz-adv-x="909" d="M154 455l12 114h696l-12 -114h-696z" />
<glyph unicode="&#x2011;" horiz-adv-x="909" d="M154 455l12 114h696l-12 -114h-696z" />
<glyph unicode="&#x2012;" horiz-adv-x="909" d="M154 455l12 114h696l-12 -114h-696z" />
<glyph unicode="&#x2013;" horiz-adv-x="1216" d="M154 455l12 114h1003l-12 -114h-1003z" />
<glyph unicode="&#x2014;" horiz-adv-x="1421" d="M154 455l12 114h1208l-12 -114h-1208z" />
<glyph unicode="&#x2018;" horiz-adv-x="389" d="M233 952l52 482h88l12 -281l-23 -201h-129z" />
<glyph unicode="&#x2019;" horiz-adv-x="387" d="M252 1233l22 201h129l-51 -482h-86z" />
<glyph unicode="&#x201a;" horiz-adv-x="395" d="M133 0l21 201h129l-52 -482h-86z" />
<glyph unicode="&#x201c;" horiz-adv-x="829" d="M233 952l52 482h88l12 -281l-23 -201h-129zM674 952l51 482h86l14 -281l-22 -201h-129z" />
<glyph unicode="&#x201d;" horiz-adv-x="825" d="M252 1233l22 201h129l-51 -482h-86zM692 1233l23 201h129l-51 -482h-86z" />
<glyph unicode="&#x201e;" horiz-adv-x="833" d="M133 0l21 201h129l-52 -482h-86zM573 0l21 201h129l-51 -482h-86z" />
<glyph unicode="&#x2022;" horiz-adv-x="417" d="M203 629l22 217h144l-23 -217h-143z" />
<glyph unicode="&#x2026;" horiz-adv-x="1273" d="M133 0l21 201h129l-21 -201h-129zM573 0l21 201h129l-21 -201h-129zM1012 0l20 201h131l-20 -201h-131z" />
<glyph unicode="&#x202f;" horiz-adv-x="381" />
<glyph unicode="&#x2039;" horiz-adv-x="688" d="M113 457l10 106l555 402l-14 -150l-410 -303v-4l346 -299l-16 -150z" />
<glyph unicode="&#x203a;" horiz-adv-x="688" d="M117 59l16 150l408 299v4l-344 303l14 150l471 -402l-10 -106z" />
<glyph unicode="&#x205f;" horiz-adv-x="476" />
<glyph unicode="&#x20ac;" horiz-adv-x="1245" d="M135 535l12 112h117l19 160h-119l12 113h117l8 73q12 119 58 209.5t116.5 144.5t155 80.5t180.5 26.5q77 0 142.5 -16t121 -51.5t92 -88t52.5 -130t6 -173.5l-152 -24l2 24q18 172 -59 251t-219 79t-235 -79t-111 -251l-9 -75h295l-37 -113h-270l-16 -160h297l-41 -112 h-269l-10 -97q-19 -171 58.5 -250t220.5 -79q142 0 235.5 78.5t112.5 250.5l2 21h149l-2 -21q-13 -119 -59.5 -209t-117 -143.5t-154.5 -79.5t-181 -26q-96 0 -174.5 26.5t-137.5 80t-85.5 144t-13.5 209.5l10 95h-119z" />
<glyph unicode="&#x2122;" horiz-adv-x="1544" d="M246 1356l8 78h508l-8 -78h-203l-82 -783h-96l82 783h-209zM791 573l92 861h102l189 -414l276 414h96l-92 -861h-96l51 476q4 41 7.5 71t10 72t11.5 84l-242 -363h-76l-168 367q-5 -59 -9.5 -121.5t-8.5 -109.5l-51 -476h-92z" />
<glyph unicode="&#x25fc;" horiz-adv-x="1024" d="M0 0v1024h1024v-1024h-1024z" />
</font>
</defs>
</svg>
