<?xml version="1.0" encoding="utf-8"?>
<!-- Generator: Adobe Illustrator 16.0.3, SVG Export Plug-In . SVG Version: 6.00 Build 0)  -->
<!DOCTYPE svg PUBLIC "-//W3C//DTD SVG 1.1//EN" "http://www.w3.org/Graphics/SVG/1.1/DTD/svg11.dtd">
<svg version="1.1" id="Layer_64" xmlns="http://www.w3.org/2000/svg" xmlns:xlink="http://www.w3.org/1999/xlink" x="0px" y="0px"
	 width="62.314px" height="59.418px" viewBox="0 0 62.314 59.418" enable-background="new 0 0 62.314 59.418" xml:space="preserve">
<g>
	<path fill="#FED625" d="M60.794,21.531H39.259L32.604,1.053C32.401,0.426,31.817,0,31.159,0c-0.663,0-1.247,0.426-1.45,1.053
		l-6.654,20.479H1.522c-0.66,0-1.244,0.426-1.447,1.053s0.02,1.313,0.551,1.701l17.424,12.66l-6.656,20.48
		c-0.203,0.627,0.021,1.314,0.553,1.701c0.533,0.389,1.256,0.389,1.789,0l17.424-12.66l17.42,12.66
		c0.266,0.193,0.58,0.291,0.893,0.291c0.314,0,0.629-0.098,0.895-0.291c0.533-0.387,0.758-1.074,0.553-1.701l-6.654-20.48
		l17.424-12.66c0.533-0.389,0.754-1.074,0.553-1.701C62.036,21.957,61.452,21.531,60.794,21.531z M41.583,35.133
		c-0.533,0.387-0.756,1.074-0.555,1.701l5.551,17.078L32.052,43.354c-0.533-0.387-1.256-0.387-1.79,0L15.735,53.912l5.549-17.078
		c0.203-0.627-0.02-1.314-0.553-1.701L6.204,24.576h17.957c0.66,0,1.244-0.426,1.447-1.053l5.551-17.078l5.547,17.078
		c0.205,0.627,0.789,1.053,1.447,1.053H56.11L41.583,35.133z"/>
</g>
</svg>
