<?xml version="1.0" encoding="utf-8"?>
<!-- Generator: Adobe Illustrator 16.0.3, SVG Export Plug-In . SVG Version: 6.00 Build 0)  -->
<!DOCTYPE svg PUBLIC "-//W3C//DTD SVG 1.1//EN" "http://www.w3.org/Graphics/SVG/1.1/DTD/svg11.dtd">
<svg version="1.1" id="Layer_1" xmlns="http://www.w3.org/2000/svg" xmlns:xlink="http://www.w3.org/1999/xlink" x="0px" y="0px"
	 width="62.31px" height="59.421px" viewBox="266.487 366.373 62.31 59.421" enable-background="new 266.487 366.373 62.31 59.421"
	 xml:space="preserve">
<path fill="#FED625" d="M328.722,388.955c-0.205-0.627-0.789-1.051-1.447-1.051h-21.53l-6.66-20.48
	c-0.205-0.627-0.789-1.051-1.449-1.051c-0.658,0-1.242,0.424-1.445,1.051l-6.651,20.48h-21.529c-0.66,0-1.242,0.424-1.447,1.051
	s0.021,1.313,0.553,1.701l17.423,12.667l-6.662,20.478c-0.203,0.629,0.02,1.316,0.553,1.703s1.256,0.387,1.789,0l17.422-12.667
	l17.422,12.667c0.266,0.193,0.578,0.291,0.893,0.291c0.315,0,0.629-0.098,0.896-0.291c0.533-0.387,0.758-1.074,0.553-1.701
	l-6.649-20.48l17.422-12.666C328.701,390.267,328.925,389.582,328.722,388.955z"/>
</svg>
